STARTFONT 2.1
COMMENT
COMMENT Converted from OpenType font "Ubuntu-Regular.ttf" by "otf2bdf 3.0".
COMMENT
FONT -FreeType-Ubuntu-Medium-R-Normal--50-360-100-100-P-264-ISO10646-1
SIZE 36 100 100
FONTBOUNDINGBOX 182 57 -8 -9
STARTPROPERTIES 19
FOUNDRY "FreeType"
FAMILY_NAME "Ubuntu"
WEIGHT_NAME "Medium"
SLANT "R"
SETWIDTH_NAME "Normal"
ADD_STYLE_NAME ""
PIXEL_SIZE 50
POINT_SIZE 360
RESOLUTION_X 100
RESOLUTION_Y 100
SPACING "P"
AVERAGE_WIDTH 264
CHARSET_REGISTRY "ISO10646"
CHARSET_ENCODING "1"
FONT_ASCENT 46
FONT_DESCENT 9
COPYRIGHT "Copyright 2011 Canonical Ltd.  Licensed under the Ubuntu Font Licence 1.0"
_OTF_FONTFILE "Ubuntu-Regular.ttf"
_OTF_PSNAME "Ubuntu-Regular"
ENDPROPERTIES
CHARS 1194
STARTCHAR 0000
ENCODING 0
SWIDTH 0 0
DWIDTH 0 0
BBX 0 0 0 0
BITMAP
ENDCHAR
STARTCHAR 0008
ENCODING 8
SWIDTH 0 0
DWIDTH 0 0
BBX 0 0 0 0
BITMAP
ENDCHAR
STARTCHAR 0009
ENCODING 9
SWIDTH 220 0
DWIDTH 11 0
BBX 0 0 0 0
BITMAP
ENDCHAR
STARTCHAR 000D
ENCODING 13
SWIDTH 220 0
DWIDTH 11 0
BBX 0 0 0 0
BITMAP
ENDCHAR
STARTCHAR 001D
ENCODING 29
SWIDTH 0 0
DWIDTH 0 0
BBX 0 0 0 0
BITMAP
ENDCHAR
STARTCHAR 0020
ENCODING 32
SWIDTH 220 0
DWIDTH 11 0
BBX 0 0 0 0
BITMAP
ENDCHAR
STARTCHAR 0021
ENCODING 33
SWIDTH 260 0
DWIDTH 13 0
BBX 6 36 4 -1
BITMAP
F8
F8
F8
F8
F8
F8
F8
F8
F8
F8
F8
F8
F8
F8
F8
78
78
78
78
78
78
78
78
70
00
00
00
00
00
78
FC
FC
FC
FC
F8
30
ENDCHAR
STARTCHAR 0022
ENCODING 34
SWIDTH 400 0
DWIDTH 20 0
BBX 13 13 4 25
BITMAP
F0F8
F0F8
F0F8
F0F8
F0F8
F078
F078
F078
F078
F078
F078
F070
6070
ENDCHAR
STARTCHAR 0023
ENCODING 35
SWIDTH 660 0
DWIDTH 33 0
BBX 29 35 2 0
BITMAP
003C03C0
003C03C0
007C03C0
007807C0
00780780
00780780
00780780
00F80780
00F00F80
FFFFFFF8
FFFFFFF8
FFFFFFF8
FFFFFFF8
01E00F00
01E01F00
01E01E00
01E01E00
03E01E00
03C01E00
03C03E00
03C03C00
03C03C00
FFFFFFF8
FFFFFFF8
FFFFFFF8
FFFFFFF8
07807800
07807800
0F807800
0F00F800
0F00F000
0F00F000
0F00F000
1F00F000
1E01F000
ENDCHAR
STARTCHAR 0024
ENCODING 36
SWIDTH 560 0
DWIDTH 28 0
BBX 22 44 3 -5
BITMAP
007800
007800
007800
007800
007800
007800
01FFC0
0FFFF0
1FFFF0
3FFFF0
3F0060
7E0000
7C0000
7C0000
7C0000
7C0000
7C0000
7F0000
3F8000
3FF000
1FFC00
07FF80
01FFC0
003FE0
000FF0
0003F8
0000FC
0000FC
00007C
00007C
00007C
00007C
4000FC
7001F8
7FFFF8
FFFFF0
7FFFC0
0FFF00
007800
007800
007800
007800
007800
007800
ENDCHAR
STARTCHAR 0025
ENCODING 37
SWIDTH 840 0
DWIDTH 42 0
BBX 38 36 2 -1
BITMAP
07F0001E00
1FFC003E00
3FFE003C00
3E3E007C00
7C1F007800
780F00F800
780F01F000
700F01E000
F00F03E000
700F03C000
780F07C000
780F078000
780F0F8000
7C1F0F0000
3F7E1F0000
1FFC3E0000
0FF83C0000
07E07C0700
0000783FE0
0000F87FF0
0000F0FFF8
0001F0F078
0003E1E03C
0003C1E03C
0007C1E03C
000781C03C
000F83C03C
000F01C03C
001F01E03C
003E01E03C
003E01E03C
007C01F078
007800FFF8
00F8007FF0
00F0003FE0
0000000F00
ENDCHAR
STARTCHAR 0026
ENCODING 38
SWIDTH 660 0
DWIDTH 33 0
BBX 30 35 2 0
BITMAP
007F8000
01FFE000
03FFF000
07E1F000
07C0F800
0F807800
0F007800
0F007800
0F007800
0F807800
0F80F800
0781F000
07C3E000
03E7E000
01FF8000
01FF0000
03FC0000
07FE0000
0FFF00F0
1F1F80F0
3E0FC0F0
7C07E0F0
7C03F1F0
7801F9E0
F800FDE0
F8007FC0
F8003FC0
F8001F80
7C000FC0
7C003FE0
7F007FF0
3FE7FDF0
1FFFF8F8
0FFFE07C
03FF803C
ENDCHAR
STARTCHAR 0027
ENCODING 39
SWIDTH 240 0
DWIDTH 12 0
BBX 4 13 4 25
BITMAP
F0
F0
F0
F0
F0
F0
F0
F0
F0
F0
F0
F0
60
ENDCHAR
STARTCHAR 0028
ENCODING 40
SWIDTH 320 0
DWIDTH 16 0
BBX 12 48 4 -9
BITMAP
00C0
01E0
01F0
03E0
07C0
07C0
0F80
0F00
1F00
1E00
3E00
3E00
3C00
7C00
7C00
7800
7800
F800
F800
F800
F800
F800
F800
F800
F800
F800
F800
F800
F800
F800
F800
7800
7800
7C00
7C00
3C00
3E00
3E00
1E00
1F00
0F00
0F80
0780
07C0
03E0
03E0
01E0
00C0
ENDCHAR
STARTCHAR 0029
ENCODING 41
SWIDTH 320 0
DWIDTH 16 0
BBX 11 48 1 -9
BITMAP
2000
F000
F800
F800
7C00
3C00
3E00
1E00
1F00
0F00
0F80
0780
07C0
07C0
07C0
03C0
03E0
03E0
03E0
03E0
03E0
01E0
01E0
01E0
01E0
01E0
01E0
03E0
03E0
03E0
03E0
03E0
03C0
07C0
07C0
07C0
0780
0F80
0F00
1F00
1F00
3E00
3E00
7C00
F800
F800
F000
2000
ENDCHAR
STARTCHAR 002A
ENCODING 42
SWIDTH 480 0
DWIDTH 24 0
BBX 20 19 2 16
BITMAP
00F000
00F000
00F000
00F000
00F000
60F020
78F1E0
FE67F0
FF6FF0
FFFFF0
03FC00
01F800
03FC00
079E00
0F9F00
1F0F80
1F0F80
1E0780
060600
ENDCHAR
STARTCHAR 002B
ENCODING 43
SWIDTH 560 0
DWIDTH 28 0
BBX 23 24 3 3
BITMAP
007800
007800
007800
007800
007800
007800
007800
007800
007800
007800
FFFFFE
FFFFFE
FFFFFE
FFFFFE
007800
007800
007800
007800
007800
007800
007800
007800
007800
007800
ENDCHAR
STARTCHAR 002C
ENCODING 44
SWIDTH 240 0
DWIDTH 12 0
BBX 7 14 2 -8
BITMAP
3E
3E
3E
3E
3E
3E
3C
3C
7C
7C
78
F8
F0
30
ENDCHAR
STARTCHAR 002D
ENCODING 45
SWIDTH 280 0
DWIDTH 14 0
BBX 13 4 1 13
BITMAP
FFF8
FFF8
FFF8
FFF8
ENDCHAR
STARTCHAR 002E
ENCODING 46
SWIDTH 240 0
DWIDTH 12 0
BBX 7 7 3 -1
BITMAP
78
FC
FC
FE
FC
7C
30
ENDCHAR
STARTCHAR 002F
ENCODING 47
SWIDTH 380 0
DWIDTH 19 0
BBX 21 48 -1 -9
BITMAP
000078
0000F8
0000F0
0001F0
0001F0
0001E0
0003E0
0003E0
0003C0
0007C0
0007C0
000780
000F80
000F80
000F00
001F00
001F00
001E00
003E00
003E00
003C00
007C00
007C00
00F800
00F800
00F000
01F000
01F000
01E000
03E000
03E000
03C000
07C000
07C000
078000
0F8000
0F8000
0F0000
1F0000
1F0000
3E0000
3E0000
3E0000
7C0000
7C0000
7C0000
F80000
F80000
ENDCHAR
STARTCHAR 0030
ENCODING 48
SWIDTH 560 0
DWIDTH 28 0
BBX 24 36 2 -1
BITMAP
00FF80
03FFC0
07FFE0
0FFFF0
1F81F8
1F00F8
3F007C
3E007C
3E003E
7C003E
7C003E
7C003E
7C003E
7C001E
7C001F
78001F
F8001F
F8001F
F8001F
78001F
78001F
7C001F
7C001E
7C003E
7C003E
7C003E
3C003E
3E007C
3E007C
1F00F8
1F81F8
0FE7F0
07FFE0
03FFC0
01FF80
003C00
ENDCHAR
STARTCHAR 0031
ENCODING 49
SWIDTH 560 0
DWIDTH 28 0
BBX 13 35 5 0
BITMAP
0038
0078
00F8
01F8
07F8
0FF8
3FF8
FF78
FC78
F878
4078
0078
0078
0078
0078
0078
0078
0078
0078
0078
0078
0078
0078
0078
0078
0078
0078
0078
0078
0078
0078
0078
0078
0078
0078
ENDCHAR
STARTCHAR 0032
ENCODING 50
SWIDTH 560 0
DWIDTH 28 0
BBX 22 35 3 0
BITMAP
07FE00
1FFF80
7FFFC0
FFFFE0
FC07E0
7003F0
2001F0
0001F0
0001F0
0001F0
0001F0
0001F0
0001F0
0003E0
0007E0
0007C0
000F80
001F80
003F00
007E00
00FC00
01F800
03F000
07E000
0FC000
1F8000
1F0000
3E0000
3E0000
7C0000
7C0000
7FFFFC
FFFFFC
FFFFFC
FFFFFC
ENDCHAR
STARTCHAR 0033
ENCODING 51
SWIDTH 560 0
DWIDTH 28 0
BBX 21 36 3 -1
BITMAP
0FFE00
3FFF80
7FFFC0
7FFFC0
3807E0
2003E0
0001F0
0001F0
0001F0
0001F0
0001F0
0003E0
0003E0
0007C0
007F80
03FF00
03FE00
03FF80
00FFE0
0007F0
0001F0
0001F8
0000F8
0000F8
000078
000078
0000F8
0000F8
0000F8
0001F8
C003F0
FE7FE0
FFFFE0
FFFF80
7FFE00
07F000
ENDCHAR
STARTCHAR 0034
ENCODING 52
SWIDTH 560 0
DWIDTH 28 0
BBX 24 35 2 0
BITMAP
0001F0
0003F0
0003F0
0007F0
000FF0
001FF0
003FF0
007DF0
0079F0
00F1F0
01F1F0
01E1F0
03C1F0
07C1F0
0781F0
0F01F0
1F01F0
1E01F0
3C01F0
3C01F0
7801F0
7801F0
FFFFFF
FFFFFF
FFFFFF
FFFFFF
0001F0
0001F0
0001F0
0001F0
0001F0
0001F0
0001F0
0001F0
0001F0
ENDCHAR
STARTCHAR 0035
ENCODING 53
SWIDTH 560 0
DWIDTH 28 0
BBX 22 36 3 -1
BITMAP
0FFFF0
0FFFF0
0FFFF0
1FFFF0
1F0000
1F0000
1F0000
1E0000
1E0000
1E0000
1E0000
1E0000
1E0000
1E0000
1FF800
1FFF00
3FFF80
3FFFE0
001FE0
0003F0
0001F8
0000F8
0000F8
000078
00007C
00007C
000078
0000F8
0000F8
0001F8
6003F0
7E3FF0
7FFFE0
FFFF80
3FFF00
03F000
ENDCHAR
STARTCHAR 0036
ENCODING 54
SWIDTH 560 0
DWIDTH 28 0
BBX 23 36 3 -1
BITMAP
0000F0
000FF0
003FF0
00FFF0
01FF00
03F800
07E000
0FC000
1F8000
1F0000
3E0000
3E0000
7C0000
7C0000
7DFF00
7FFFC0
FFFFF0
FFFFF8
FC01F8
F800FC
F8007C
F8007C
F8003E
F8003E
F8003E
F8003E
7C003C
7C007C
7C007C
3E00FC
3F01F8
1F83F0
0FFFF0
07FFE0
03FF80
007C00
ENDCHAR
STARTCHAR 0037
ENCODING 55
SWIDTH 560 0
DWIDTH 28 0
BBX 22 35 3 0
BITMAP
FFFFFC
FFFFFC
FFFFFC
FFFFFC
00007C
0000F8
0001F0
0001F0
0003E0
0007C0
0007C0
000F80
000F80
001F00
001F00
003E00
003E00
003C00
007C00
007C00
00F800
00F800
00F000
01F000
01F000
01F000
01E000
03E000
03E000
03E000
03E000
03C000
07C000
07C000
07C000
ENDCHAR
STARTCHAR 0038
ENCODING 56
SWIDTH 560 0
DWIDTH 28 0
BBX 22 36 3 -1
BITMAP
03FF00
07FFC0
1FFFE0
3FCFF0
3E01F8
7C00F8
7C00F8
78007C
78007C
78007C
780078
7C00F8
7C00F8
3E01F0
3F83E0
1FE7E0
0FFF80
07FF80
0FFFE0
1F0FF0
3E03F8
7C00F8
7800FC
F8007C
F8003C
F0003C
F0003C
F8003C
F8007C
F8007C
7C00F8
7F03F8
3FFFF0
1FFFE0
07FF80
00FC00
ENDCHAR
STARTCHAR 0039
ENCODING 57
SWIDTH 560 0
DWIDTH 28 0
BBX 22 35 3 0
BITMAP
03FE00
0FFF80
1FFFC0
3FDFE0
7E03F0
7C01F0
F800F8
F800F8
F80078
F0007C
F0007C
F0007C
F0007C
F8007C
F8007C
FC007C
7E007C
7FCFFC
3FFFFC
1FFFFC
07FF78
0000F8
0000F8
0000F8
0001F0
0001F0
0003E0
0007E0
000FC0
003F80
00FF00
3FFE00
3FF800
3FE000
3F0000
ENDCHAR
STARTCHAR 003A
ENCODING 58
SWIDTH 240 0
DWIDTH 12 0
BBX 7 27 3 -1
BITMAP
78
FC
FC
FE
FC
7C
30
00
00
00
00
00
00
00
00
00
00
00
00
00
78
FC
FC
FE
FC
7C
30
ENDCHAR
STARTCHAR 003B
ENCODING 59
SWIDTH 240 0
DWIDTH 12 0
BBX 8 34 2 -8
BITMAP
3C
7E
7E
7F
7E
3E
18
00
00
00
00
00
00
00
00
00
00
00
00
00
3E
3E
3E
3E
3E
3E
3C
3C
7C
7C
78
F8
F0
30
ENDCHAR
STARTCHAR 003C
ENCODING 60
SWIDTH 560 0
DWIDTH 28 0
BBX 23 22 3 4
BITMAP
000008
00007C
0001FC
0007FC
003FF8
00FFC0
03FF00
1FF800
7FE000
FF8000
FC0000
FC0000
FF0000
7FE000
1FF800
07FF00
00FFC0
003FF8
000FFE
0001FC
00007C
00000C
ENDCHAR
STARTCHAR 003D
ENCODING 61
SWIDTH 560 0
DWIDTH 28 0
BBX 23 14 3 8
BITMAP
FFFFFE
FFFFFE
FFFFFE
FFFFFE
000000
000000
000000
000000
000000
000000
FFFFFE
FFFFFE
FFFFFE
FFFFFE
ENDCHAR
STARTCHAR 003E
ENCODING 62
SWIDTH 560 0
DWIDTH 28 0
BBX 23 22 3 4
BITMAP
400000
F80000
FE0000
FF8000
7FF000
0FFC00
03FF80
007FE0
001FF8
0003FE
0000FE
0000FE
0003FE
001FF8
007FE0
01FF80
0FFC00
3FF000
FFC000
FE0000
F80000
600000
ENDCHAR
STARTCHAR 003F
ENCODING 63
SWIDTH 400 0
DWIDTH 20 0
BBX 18 36 1 -1
BITMAP
3FF800
FFFE00
FFFF00
7EFF80
601F80
000FC0
0007C0
0007C0
0007C0
0007C0
000F80
000F80
001F00
003E00
007E00
00FC00
01F000
01F000
03E000
03C000
07C000
078000
078000
078000
000000
000000
000000
000000
000000
038000
07C000
0FE000
0FE000
0FE000
07C000
010000
ENDCHAR
STARTCHAR 0040
ENCODING 64
SWIDTH 940 0
DWIDTH 47 0
BBX 41 43 3 -8
BITMAP
0003FFF00000
000FFFFC0000
003FFFFF0000
00FFE1FFC000
01FE000FE000
03F80003F000
07E00001F800
0FC00000FC00
0F8000007C00
1F0004003E00
3E007FF81E00
3E01FFFC1F00
3C03FFFC0F00
7C07F07C0F80
780FC07C0F80
780F807C0780
781F007C0780
F81F007C0780
F81F007C0780
F81E007C0780
F83E007C0780
F83E007C0780
F81E007C0780
F81E007C0F80
F81F007C0F80
781F007C0F00
781F807C1F00
780FC07C1E00
7C07F0FE7E00
7C07FFFFFC00
3E03FFFFF800
3E00FFFFF000
1F001E07C000
1F8000000000
0FC000000000
07E000000000
03F000000000
01FC00000000
00FFC0180000
007FFFFC0000
001FFFFC0000
0003FFFC0000
00000F000000
ENDCHAR
STARTCHAR 0041
ENCODING 65
SWIDTH 660 0
DWIDTH 33 0
BBX 32 35 1 0
BITMAP
0007C000
0007C000
000FE000
000FE000
001FF000
001FF000
003EF800
003EF800
003C7800
007C7C00
00787C00
00F83E00
00F83E00
00F01F00
01F01F00
01E01F00
03E00F80
03E00F80
03C007C0
07C007C0
07C007C0
0F8003E0
0FFFFFE0
0FFFFFF0
1FFFFFF0
1FFFFFF0
1E0001F8
3E0000F8
3E0000F8
7C0000FC
7C00007C
7C00007C
F800007E
F800003E
F800003F
ENDCHAR
STARTCHAR 0042
ENCODING 66
SWIDTH 640 0
DWIDTH 32 0
BBX 26 35 4 0
BITMAP
3FFE0000
FFFFE000
FFFFF800
FFFFFC00
F803FE00
F8007E00
F8003F00
F8001F00
F8001F00
F8001F00
F8001F00
F8001F00
F8003E00
F8007E00
F803FC00
FFFFF800
FFFFE000
FFFFF800
FFFFFE00
F800FF00
F8001F80
F8000F80
F8000F80
F8000FC0
F80007C0
F80007C0
F8000F80
F8000F80
F8001F80
F8003F80
F800FF00
FFFFFE00
FFFFFC00
FFFFF000
7FFFC000
ENDCHAR
STARTCHAR 0043
ENCODING 67
SWIDTH 620 0
DWIDTH 31 0
BBX 27 36 3 -1
BITMAP
001FFE00
00FFFFC0
01FFFFC0
03FFFFC0
07F807C0
0FE00080
1F800000
3F000000
3F000000
7E000000
7C000000
7C000000
FC000000
F8000000
F8000000
F8000000
F8000000
F8000000
F8000000
F8000000
F8000000
F8000000
FC000000
7C000000
7C000000
7E000000
7E000000
3F000000
3F800000
1FC00000
0FF001C0
07FFFFC0
03FFFFC0
01FFFFE0
007FFF80
0007F000
ENDCHAR
STARTCHAR 0044
ENCODING 68
SWIDTH 700 0
DWIDTH 35 0
BBX 29 35 4 0
BITMAP
3FFE0000
FFFFE000
FFFFF800
FFFFFC00
F807FF00
F8007F80
F8001F80
F8000FC0
F80007E0
F80003E0
F80003F0
F80001F0
F80001F0
F80001F0
F80001F8
F80001F8
F80000F8
F80000F8
F80000F8
F80001F8
F80001F8
F80001F0
F80001F0
F80001F0
F80003F0
F80003E0
F80007E0
F8000FC0
F8001FC0
F8003F80
F801FF00
FFFFFE00
FFFFF800
FFFFE000
7FFF0000
ENDCHAR
STARTCHAR 0045
ENCODING 69
SWIDTH 560 0
DWIDTH 28 0
BBX 23 35 4 0
BITMAP
FFFFF8
FFFFF8
FFFFF8
FFFFF8
FFFFF8
F80000
F80000
F80000
F80000
F80000
F80000
F80000
F80000
F80000
F80000
FFFFF0
FFFFF0
FFFFF0
FFFFF0
F80000
F80000
F80000
F80000
F80000
F80000
F80000
F80000
F80000
F80000
F80000
F80000
FFFFFE
FFFFFE
FFFFFE
FFFFFE
ENDCHAR
STARTCHAR 0046
ENCODING 70
SWIDTH 520 0
DWIDTH 26 0
BBX 21 35 4 0
BITMAP
FFFFF8
FFFFF8
FFFFF8
FFFFF8
FFFFF8
F80000
F80000
F80000
F80000
F80000
F80000
F80000
F80000
F80000
F80000
FFFFE0
FFFFE0
FFFFE0
FFFFE0
F80000
F80000
F80000
F80000
F80000
F80000
F80000
F80000
F80000
F80000
F80000
F80000
F80000
F80000
F80000
F80000
ENDCHAR
STARTCHAR 0047
ENCODING 71
SWIDTH 660 0
DWIDTH 33 0
BBX 27 36 3 -1
BITMAP
001FFF00
00FFFFC0
01FFFFE0
03FFFFE0
07F803C0
0FE00040
1F800000
3F000000
3F000000
7E000000
7C000000
7C000000
FC000000
F8000000
F8000000
F8000000
F8000000
F8000000
F80003E0
F80003E0
F80003E0
F80003E0
FC0003E0
7C0003E0
7C0003E0
7E0003E0
7E0003E0
3F0003E0
1F8003E0
1FC003E0
0FF003E0
07FFFFE0
03FFFFE0
01FFFFE0
003FFFC0
0003F000
ENDCHAR
STARTCHAR 0048
ENCODING 72
SWIDTH 700 0
DWIDTH 35 0
BBX 27 35 4 0
BITMAP
F80003E0
F80003E0
F80003E0
F80003E0
F80003E0
F80003E0
F80003E0
F80003E0
F80003E0
F80003E0
F80003E0
F80003E0
F80003E0
F80003E0
F80003E0
FFFFFFE0
FFFFFFE0
FFFFFFE0
FFFFFFE0
F80003E0
F80003E0
F80003E0
F80003E0
F80003E0
F80003E0
F80003E0
F80003E0
F80003E0
F80003E0
F80003E0
F80003E0
F80003E0
F80003E0
F80003E0
F80003E0
ENDCHAR
STARTCHAR 0049
ENCODING 73
SWIDTH 260 0
DWIDTH 13 0
BBX 5 35 4 0
BITMAP
F8
F8
F8
F8
F8
F8
F8
F8
F8
F8
F8
F8
F8
F8
F8
F8
F8
F8
F8
F8
F8
F8
F8
F8
F8
F8
F8
F8
F8
F8
F8
F8
F8
F8
F8
ENDCHAR
STARTCHAR 004A
ENCODING 74
SWIDTH 500 0
DWIDTH 25 0
BBX 20 36 1 -1
BITMAP
0001F0
0001F0
0001F0
0001F0
0001F0
0001F0
0001F0
0001F0
0001F0
0001F0
0001F0
0001F0
0001F0
0001F0
0001F0
0001F0
0001F0
0001F0
0001F0
0001F0
0001F0
0001F0
0001F0
0001F0
0001F0
0001F0
0001F0
0001F0
0003E0
4003E0
700FE0
FFFFC0
FFFF80
FFFF00
3FFE00
03F000
ENDCHAR
STARTCHAR 004B
ENCODING 75
SWIDTH 620 0
DWIDTH 31 0
BBX 27 35 4 0
BITMAP
F8000FC0
F8001F80
F8003F00
F8007E00
F800FC00
F801F800
F803F000
F807E000
F80FC000
F81F8000
F83F0000
F87E0000
F8FC0000
F9F80000
FBF00000
FFE00000
FFC00000
FFF00000
FFF80000
F9FC0000
F8FE0000
F87F0000
F83F8000
F80FC000
F807E000
F803F000
F801F800
F800FC00
F800FE00
F8007E00
F8003F00
F8001F80
F8000FC0
F8000FC0
F80007E0
ENDCHAR
STARTCHAR 004C
ENCODING 76
SWIDTH 500 0
DWIDTH 25 0
BBX 21 35 4 0
BITMAP
F80000
F80000
F80000
F80000
F80000
F80000
F80000
F80000
F80000
F80000
F80000
F80000
F80000
F80000
F80000
F80000
F80000
F80000
F80000
F80000
F80000
F80000
F80000
F80000
F80000
F80000
F80000
F80000
F80000
F80000
F80000
FFFFF8
FFFFF8
FFFFF8
FFFFF8
ENDCHAR
STARTCHAR 004D
ENCODING 77
SWIDTH 860 0
DWIDTH 43 0
BBX 37 35 3 0
BITMAP
1E000003E0
1F000003E0
1F000007E0
1F800007E0
3FC0000FE0
3FC0000FE0
3FE0001FE0
3FE0001FE0
3FF0003FE0
3DF0003DF0
3CF8007DF0
3CF80079F0
3C7800F9F0
3C7C00F1F0
3C3C01F1F0
7C3E01E0F0
7C1E03E0F0
7C1F03C0F0
7C0F07C0F0
7C0F8780F0
7C078F80F0
7C07CF80F0
7C07CF00F8
7C03DF00F8
7C03FE00F8
7801FE00F8
7801FC00F8
7800FC00F8
7800F800F8
78007800F8
78000000F8
F8000000F8
F8000000F8
F8000000F8
F8000000F8
ENDCHAR
STARTCHAR 004E
ENCODING 78
SWIDTH 720 0
DWIDTH 36 0
BBX 28 35 4 0
BITMAP
F00001F0
F80001F0
FC0001F0
FE0001F0
FF0001F0
FF8001F0
FF8001F0
FFC001F0
FFE001F0
FBF001F0
F9F801F0
F8F801F0
F87C01F0
F83E01F0
F83F01F0
F81F01F0
F80F81F0
F80FC1F0
F807C1F0
F803E1F0
F801F1F0
F801F1F0
F800F9F0
F8007DF0
F8007DF0
F8003FF0
F8001FF0
F8001FF0
F8000FF0
F80007F0
F80007F0
F80003F0
F80001F0
F80001F0
F80000F0
ENDCHAR
STARTCHAR 004F
ENCODING 79
SWIDTH 760 0
DWIDTH 38 0
BBX 33 36 3 -1
BITMAP
001FFC0000
00FFFF8000
01FFFFC000
07FFFFE000
0FF00FF000
0FC003F800
1F8000FC00
3F00007E00
3E00007E00
7E00003F00
7C00001F00
7C00001F00
FC00001F00
F800001F80
F800000F80
F800000F80
F800000F80
F800000F80
F800000F80
F800000F80
F800000F80
F800001F80
FC00001F80
7C00001F00
7C00001F00
7E00003F00
3E00003E00
3F00007E00
1F8000FC00
1FC001FC00
0FF007F800
07FFFFF000
03FFFFE000
00FFFF8000
003FFE0000
0003E00000
ENDCHAR
STARTCHAR 0050
ENCODING 80
SWIDTH 600 0
DWIDTH 30 0
BBX 25 35 4 0
BITMAP
3FFE0000
FFFFC000
FFFFF000
FFFFFC00
F807FE00
F800FE00
F8003F00
F8001F00
F8001F00
F8001F80
F8000F80
F8000F80
F8001F80
F8001F00
F8001F00
F8003F00
F8007E00
F803FE00
FFFFFC00
FFFFF800
FFFFE000
FFFF0000
F8000000
F8000000
F8000000
F8000000
F8000000
F8000000
F8000000
F8000000
F8000000
F8000000
F8000000
F8000000
F8000000
ENDCHAR
STARTCHAR 0051
ENCODING 81
SWIDTH 760 0
DWIDTH 38 0
BBX 33 44 3 -9
BITMAP
001FFC0000
00FFFF8000
01FFFFC000
07FFFFE000
0FF00FF000
0FC003F800
1F8000FC00
3F00007E00
3E00007E00
7E00003F00
7C00001F00
7C00001F00
FC00001F00
F800001F80
F800000F80
F800000F80
F800000F80
F800000F80
F800000F80
F800000F80
F800000F80
F800001F80
FC00001F80
7C00001F00
7C00001F00
7E00003F00
3E00003E00
3F00007E00
1F8000FC00
1FC001FC00
0FF007F800
07FFFFF000
03FFFFE000
00FFFF8000
003FFE0000
0003F00000
0001F00000
0000F80000
0000FE0000
00007F8000
00003FFE00
00000FFC00
000003FC00
0000007C00
ENDCHAR
STARTCHAR 0052
ENCODING 82
SWIDTH 620 0
DWIDTH 31 0
BBX 26 35 4 0
BITMAP
3FFE0000
FFFFC000
FFFFF000
FFFFFC00
F807FC00
F800FE00
F8003F00
F8003F00
F8001F00
F8001F00
F8001F00
F8001F00
F8001F00
F8001F00
F8003F00
F8003E00
F800FE00
FFFFFC00
FFFFF800
FFFFE000
FFFF8000
F80FC000
F807E000
F803F000
F801F000
F801F800
F800FC00
F8007C00
F8007E00
F8003F00
F8001F00
F8001F80
F8000F80
F8000FC0
F80007C0
ENDCHAR
STARTCHAR 0053
ENCODING 83
SWIDTH 520 0
DWIDTH 26 0
BBX 23 36 2 -1
BITMAP
03FFE0
0FFFF8
1FFFF8
3FFFF8
3F0078
7E0000
7C0000
7C0000
F80000
FC0000
FC0000
7C0000
7E0000
7F8000
3FE000
1FFC00
0FFF00
03FFC0
00FFE0
001FF8
0007F8
0001FC
0000FC
00007E
00003E
00003E
00003E
00003E
00003E
00007E
7000FC
FFDFF8
FFFFF8
FFFFE0
3FFFC0
01FC00
ENDCHAR
STARTCHAR 0054
ENCODING 84
SWIDTH 560 0
DWIDTH 28 0
BBX 26 35 1 0
BITMAP
FFFFFFC0
FFFFFFC0
FFFFFFC0
FFFFFFC0
FFFFFFC0
001F0000
001F0000
001F0000
001F0000
001F0000
001F0000
001F0000
001F0000
001F0000
001F0000
001F0000
001F0000
001F0000
001F0000
001F0000
001F0000
001F0000
001F0000
001F0000
001F0000
001F0000
001F0000
001F0000
001F0000
001F0000
001F0000
001F0000
001F0000
001F0000
001F0000
ENDCHAR
STARTCHAR 0055
ENCODING 85
SWIDTH 680 0
DWIDTH 34 0
BBX 26 36 4 -1
BITMAP
F80007C0
F80007C0
F80007C0
F80007C0
F80007C0
F80007C0
F80007C0
F80007C0
F80007C0
F80007C0
F80007C0
F80007C0
F80007C0
F80007C0
F80007C0
F80007C0
F80007C0
F80007C0
F80007C0
F80007C0
F80007C0
F80007C0
F80007C0
F80007C0
F80007C0
F80007C0
7C0007C0
7C000FC0
7E000F80
3F001F80
3F807F00
1FFFFE00
0FFFFE00
07FFF800
01FFF000
003F0000
ENDCHAR
STARTCHAR 0056
ENCODING 86
SWIDTH 640 0
DWIDTH 32 0
BBX 31 35 1 0
BITMAP
F800003E
F800003E
FC00007E
7C00007C
7C00007C
7E0000FC
3E0000F8
3E0000F8
3F0001F0
1F0001F0
1F0001F0
1F8003E0
0F8003E0
0F8003E0
07C007C0
07C007C0
07C00780
03E00F80
03E00F80
01F01F00
01F01F00
01F01E00
00F83E00
00F83E00
007C7C00
007C7C00
007C7800
003EF800
003EF800
001FF000
001FF000
000FE000
000FE000
000FC000
0007C000
ENDCHAR
STARTCHAR 0057
ENCODING 87
SWIDTH 920 0
DWIDTH 46 0
BBX 44 35 1 0
BITMAP
FC00000001F0
7C00000001F0
7C00000001F0
7C00000001E0
7C000F0003E0
7C000F8003E0
3E000F8003E0
3E001F8003E0
3E001FC003C0
3E001FC007C0
3E003FC007C0
1F003FE007C0
1F003DE007C0
1F007DE00780
1F0079F00F80
1F0078F00F80
0F80F8F00F80
0F80F0F80F80
0F80F0780F00
0F81F0781F00
07C1E07C1F00
07C1E03C1F00
07C3E03E1E00
07C3C03E3E00
03E7C01E3E00
03E7801F3E00
03E7801F3C00
03EF800F7C00
01FF000FFC00
01FF0007F800
01FE0007F800
00FE0007F800
00FE0003F000
00FC0003F000
007C0001F000
ENDCHAR
STARTCHAR 0058
ENCODING 88
SWIDTH 620 0
DWIDTH 31 0
BBX 29 35 1 0
BITMAP
7C0001F8
7E0003F0
3F0003E0
1F0007E0
1F800FC0
0FC00F80
07C01F80
07E03F00
03F03E00
01F07E00
01F87C00
00FCF800
007DF800
003FF000
003FE000
001FE000
000FC000
001FE000
003FE000
003FF000
007FF800
00FCF800
00F8FC00
01F07E00
03F03E00
03E03F00
07E01F80
0FC00F80
0F800FC0
1F8007C0
1F0003E0
3E0003F0
7E0001F0
7C0001F8
FC0000F8
ENDCHAR
STARTCHAR 0059
ENCODING 89
SWIDTH 580 0
DWIDTH 29 0
BBX 30 35 0 0
BITMAP
FC0000FC
7E0000F8
7E0001F0
3F0001F0
1F0003E0
1F8003E0
0F8007C0
0FC007C0
07C00F80
07E01F00
03E01F00
01F03E00
01F03E00
00F87C00
00FCF800
007CF800
003FF000
003FF000
001FE000
001FC000
000FC000
00078000
00078000
00078000
00078000
00078000
00078000
00078000
00078000
00078000
00078000
00078000
00078000
00078000
00078000
ENDCHAR
STARTCHAR 005A
ENCODING 90
SWIDTH 560 0
DWIDTH 28 0
BBX 25 35 2 0
BITMAP
7FFFFF00
7FFFFF00
7FFFFF00
7FFFFF00
7FFFFF00
00007E00
00007C00
0000F800
0001F800
0003F000
0007E000
0007C000
000FC000
001F8000
001F0000
003E0000
007E0000
00FC0000
00F80000
01F00000
03F00000
03E00000
07C00000
0FC00000
0F800000
1F000000
1F000000
3E000000
7E000000
7C000000
F8000000
FFFFFF80
FFFFFF80
FFFFFF80
FFFFFF80
ENDCHAR
STARTCHAR 005B
ENCODING 91
SWIDTH 320 0
DWIDTH 16 0
BBX 11 48 5 -9
BITMAP
FFE0
FFE0
FFE0
FFE0
F000
F000
F000
F000
F000
F000
F000
F000
F000
F000
F000
F000
F000
F000
F000
F000
F000
F000
F000
F000
F000
F000
F000
F000
F000
F000
F000
F000
F000
F000
F000
F000
F000
F000
F000
F000
F000
F000
F000
F000
F000
FFE0
FFE0
FFE0
ENDCHAR
STARTCHAR 005C
ENCODING 92
SWIDTH 380 0
DWIDTH 19 0
BBX 21 48 -1 -9
BITMAP
F80000
F80000
780000
7C0000
7C0000
3C0000
3E0000
3E0000
1E0000
1F0000
0F0000
0F8000
0F8000
078000
07C000
07C000
03C000
03E000
03E000
01E000
01F000
01F000
00F000
00F800
00F800
007800
007C00
007C00
003C00
003E00
003E00
001F00
001F00
000F00
000F80
000F80
000780
0007C0
0007C0
0003C0
0003E0
0003E0
0001E0
0001F0
0001F0
0000F0
0000F8
0000F8
ENDCHAR
STARTCHAR 005D
ENCODING 93
SWIDTH 320 0
DWIDTH 16 0
BBX 12 48 0 -9
BITMAP
FFF0
FFF0
FFF0
FFF0
01F0
01F0
01F0
01F0
01F0
01F0
01F0
01F0
01F0
01F0
01F0
01F0
01F0
01F0
01F0
01F0
01F0
01F0
01F0
01F0
01F0
01F0
01F0
01F0
01F0
01F0
01F0
01F0
01F0
01F0
01F0
01F0
01F0
01F0
01F0
01F0
01F0
01F0
01F0
01F0
01F0
FFF0
FFF0
FFF0
ENDCHAR
STARTCHAR 005E
ENCODING 94
SWIDTH 560 0
DWIDTH 28 0
BBX 23 19 3 16
BITMAP
007800
00FC00
00FC00
01FE00
01FF00
03FF00
03CF80
07CF80
0F87C0
0F83C0
1F03E0
1E01F0
3E01F0
3C00F8
7C00F8
F8007C
F8003C
F0003E
200018
ENDCHAR
STARTCHAR 005F
ENCODING 95
SWIDTH 480 0
DWIDTH 24 0
BBX 25 4 0 -9
BITMAP
FFFFFF80
FFFFFF80
FFFFFF80
FFFFFF80
ENDCHAR
STARTCHAR 0060
ENCODING 96
SWIDTH 360 0
DWIDTH 18 0
BBX 9 9 3 30
BITMAP
3000
7800
FC00
7E00
3E00
1F00
0780
0380
0100
ENDCHAR
STARTCHAR 0061
ENCODING 97
SWIDTH 520 0
DWIDTH 26 0
BBX 20 28 2 -1
BITMAP
01F800
1FFF00
1FFFC0
1FFFE0
1F0FE0
0003F0
0001F0
0001F0
0000F0
0000F0
0000F0
00FCF0
0FFFF0
1FFFF0
3FFFF0
7F00F0
7C00F0
F800F0
F800F0
F800F0
F800F0
F800F0
7C00F0
7F83F0
3FFFF0
1FFFF0
0FFFF0
002000
ENDCHAR
STARTCHAR 0062
ENCODING 98
SWIDTH 580 0
DWIDTH 29 0
BBX 23 40 4 -1
BITMAP
180000
F80000
F80000
F80000
F80000
F80000
F80000
F80000
F80000
F80000
F80000
F80000
F83000
FBFF00
FFFFC0
FFFFE0
FFFFF0
FC03F8
F800F8
F8007C
F8007C
F8007C
F8003E
F8003E
F8003E
F8003E
F8003E
F8003E
F8003E
F8003E
F8007C
F8007C
F800FC
F801F8
F803F8
FFFFF0
FFFFE0
FFFFC0
7FFF00
006000
ENDCHAR
STARTCHAR 0063
ENCODING 99
SWIDTH 460 0
DWIDTH 23 0
BBX 19 28 3 -1
BITMAP
003C00
01FFE0
07FFE0
0FFFC0
1FF7C0
3F0000
7E0000
7C0000
F80000
F80000
F80000
F80000
F00000
F00000
F00000
F00000
F80000
F80000
F80000
F80000
7C0000
7E0000
3F0020
1FFFE0
1FFFE0
07FFE0
01FFE0
001C00
ENDCHAR
STARTCHAR 0064
ENCODING 100
SWIDTH 580 0
DWIDTH 29 0
BBX 22 40 3 -1
BITMAP
000004
00003C
00003C
00003C
00003C
00003C
00003C
00003C
00003C
00003C
00003C
00003C
00383C
03FFBC
0FFFFC
1FFFFC
3FFFFC
3F00FC
7E003C
7C003C
F8003C
F8003C
F8003C
F8003C
F0003C
F0003C
F0003C
F0003C
F8003C
F8003C
F8003C
FC003C
7C003C
7E003C
3F803C
1FFFFC
0FFFFC
07FFFC
01FFFC
001C00
ENDCHAR
STARTCHAR 0065
ENCODING 101
SWIDTH 540 0
DWIDTH 27 0
BBX 22 28 3 -1
BITMAP
003C00
03FF80
07FFC0
1FFFE0
1FC7F0
3F01F8
7C00F8
7C0078
F8007C
F8007C
F8007C
FFFFFC
FFFFFC
FFFFFC
FFFFFC
F00000
F80000
F80000
F80000
F80000
7C0000
7E0000
3F0010
3FFFF0
1FFFF0
07FFF0
01FFF0
003E00
ENDCHAR
STARTCHAR 0066
ENCODING 102
SWIDTH 380 0
DWIDTH 19 0
BBX 16 39 4 0
BITMAP
01FC
0FFF
1FFE
3FFE
7F86
7C00
7C00
F800
F800
F800
F800
F800
F800
FFFE
FFFE
FFFE
FFFE
F800
F800
F800
F800
F800
F800
F800
F800
F800
F800
F800
F800
F800
F800
F800
F800
F800
F800
F800
F800
F800
F800
ENDCHAR
STARTCHAR 0067
ENCODING 103
SWIDTH 560 0
DWIDTH 28 0
BBX 22 36 3 -9
BITMAP
000800
01FFF8
07FFFC
0FFFFC
1FFFFC
3F007C
7E007C
7C007C
F8007C
F8007C
F8007C
F8007C
F0007C
F0007C
F0007C
F8007C
F8007C
F8007C
F8007C
7C007C
7E007C
3F81FC
3FFFFC
1FFFFC
07FFFC
01FE7C
00007C
00007C
00007C
0000F8
0000F8
2003F8
3FFFF0
7FFFE0
7FFFC0
3FFF00
ENDCHAR
STARTCHAR 0068
ENCODING 104
SWIDTH 560 0
DWIDTH 28 0
BBX 21 39 4 0
BITMAP
180000
F80000
F80000
F80000
F80000
F80000
F80000
F80000
F80000
F80000
F80000
F80000
F87000
FFFF00
FFFF80
FFFFE0
FFFFE0
F803F0
F801F0
F801F0
F800F8
F800F8
F800F8
F800F8
F800F8
F800F8
F800F8
F800F8
F800F8
F800F8
F800F8
F800F8
F800F8
F800F8
F800F8
F800F8
F800F8
F800F8
F800F8
ENDCHAR
STARTCHAR 0069
ENCODING 105
SWIDTH 240 0
DWIDTH 12 0
BBX 6 37 3 0
BITMAP
38
7C
FC
FC
7C
78
00
00
00
00
00
7C
7C
7C
7C
7C
7C
7C
7C
7C
7C
7C
7C
7C
7C
7C
7C
7C
7C
7C
7C
7C
7C
7C
7C
7C
7C
ENDCHAR
STARTCHAR 006A
ENCODING 106
SWIDTH 240 0
DWIDTH 12 0
BBX 12 46 -3 -9
BITMAP
00E0
01F0
03F0
03F0
01F0
01E0
0000
0000
0000
0000
0000
01F0
01F0
01F0
01F0
01F0
01F0
01F0
01F0
01F0
01F0
01F0
01F0
01F0
01F0
01F0
01F0
01F0
01F0
01F0
01F0
01F0
01F0
01F0
01F0
01F0
01F0
01F0
01F0
01E0
03E0
07E0
FFC0
FFC0
FF80
FE00
ENDCHAR
STARTCHAR 006B
ENCODING 107
SWIDTH 520 0
DWIDTH 26 0
BBX 21 39 4 0
BITMAP
180000
F80000
F80000
F80000
F80000
F80000
F80000
F80000
F80000
F80000
F80000
F80000
F80000
F801F0
F803E0
F807C0
F80F80
F81F00
F83E00
F87C00
F8F800
F9F800
FBF000
FFE000
FFC000
FFC000
FFF000
FBF800
F9F800
F8FC00
F87E00
F83F00
F81F80
F80FC0
F807C0
F803E0
F803F0
F801F0
F800F8
ENDCHAR
STARTCHAR 006C
ENCODING 108
SWIDTH 260 0
DWIDTH 13 0
BBX 8 40 4 -1
BITMAP
18
F8
F8
F8
F8
F8
F8
F8
F8
F8
F8
F8
F8
F8
F8
F8
F8
F8
F8
F8
F8
F8
F8
F8
F8
F8
F8
F8
F8
F8
F8
F8
F8
F8
F8
FF
7F
3F
1F
01
ENDCHAR
STARTCHAR 006D
ENCODING 109
SWIDTH 860 0
DWIDTH 43 0
BBX 35 27 4 0
BITMAP
00B0004000
7FFE0FFE00
FFFFBFFF00
FFFFFFFF80
FFFFFFFFC0
F807F807C0
F803E007E0
F801F003E0
F801F003E0
F801F003E0
F801F001E0
F801F001E0
F801F001E0
F801F001E0
F801F001E0
F801F001E0
F801F001E0
F801F001E0
F801F001E0
F801F001E0
F801F001E0
F801F001E0
F801F001E0
F801F001E0
F801F001E0
F801F001E0
F801F001E0
ENDCHAR
STARTCHAR 006E
ENCODING 110
SWIDTH 560 0
DWIDTH 28 0
BBX 21 27 4 0
BITMAP
00B000
7FFF00
FFFF80
FFFFE0
FFFFE0
F803F0
F801F0
F801F0
F800F8
F800F8
F800F8
F800F8
F800F8
F800F8
F800F8
F800F8
F800F8
F800F8
F800F8
F800F8
F800F8
F800F8
F800F8
F800F8
F800F8
F800F8
F800F8
ENDCHAR
STARTCHAR 006F
ENCODING 111
SWIDTH 580 0
DWIDTH 29 0
BBX 24 28 3 -1
BITMAP
003800
03FF80
07FFE0
0FFFF0
1FEFF8
3F01FC
7E007C
7C007E
F8003E
F8003E
F8001F
F8001F
F0001F
F0001F
F0001F
F0001F
F8001F
F8001F
F8003E
F8003E
7C007E
7E007C
3F00FC
1FEFF8
0FFFF0
07FFE0
03FF80
003800
ENDCHAR
STARTCHAR 0070
ENCODING 112
SWIDTH 580 0
DWIDTH 29 0
BBX 23 36 4 -9
BITMAP
004000
7FFE00
FFFF80
FFFFE0
FFFFF0
F803F8
F801F8
F800FC
F8007C
F8007C
F8003E
F8003E
F8003E
F8003E
F8003E
F8003E
F8003E
F8003E
F8007C
F8007C
F8007C
F800F8
FC03F8
FFFFF0
FFFFE0
FFFFC0
FBFF00
F83000
F80000
F80000
F80000
F80000
F80000
F80000
F80000
F80000
ENDCHAR
STARTCHAR 0071
ENCODING 113
SWIDTH 580 0
DWIDTH 29 0
BBX 22 36 3 -9
BITMAP
001A00
01FFF8
07FFFC
0FFFFC
1FFFFC
3F803C
7E003C
7C003C
FC003C
F8003C
F8003C
F8003C
F0003C
F0003C
F0003C
F0003C
F8003C
F8003C
F8003C
F8003C
7C003C
7E003C
3F00FC
3FFFFC
1FFFFC
0FFFFC
03FFBC
00783C
00003C
00003C
00003C
00003C
00003C
00003C
00003C
00003C
ENDCHAR
STARTCHAR 0072
ENCODING 114
SWIDTH 380 0
DWIDTH 19 0
BBX 15 27 4 0
BITMAP
0060
3FFE
FFFE
FFFC
FFFC
F800
F800
F800
F800
F800
F800
F800
F800
F800
F800
F800
F800
F800
F800
F800
F800
F800
F800
F800
F800
F800
F800
ENDCHAR
STARTCHAR 0073
ENCODING 115
SWIDTH 440 0
DWIDTH 22 0
BBX 18 28 2 -1
BITMAP
00F000
0FFF80
1FFF80
3FFF80
7F0F00
7C0000
F80000
F80000
F80000
7C0000
7E0000
7F8000
3FF000
1FFC00
07FF00
00FF80
003F80
000FC0
0007C0
0003C0
0003C0
0007C0
4007C0
783FC0
FFFF80
FFFF00
7FFC00
038000
ENDCHAR
STARTCHAR 0074
ENCODING 116
SWIDTH 400 0
DWIDTH 20 0
BBX 15 35 4 -1
BITMAP
7000
F000
F000
F000
F000
F000
F000
F000
FFFC
FFFC
FFFC
FFFC
F000
F000
F000
F000
F000
F000
F000
F000
F000
F000
F000
F000
F000
F000
F800
F800
F800
FC00
7FFE
7FFE
3FFE
0FFC
0080
ENDCHAR
STARTCHAR 0075
ENCODING 117
SWIDTH 560 0
DWIDTH 28 0
BBX 21 27 4 -1
BITMAP
F000F8
F000F8
F000F8
F000F8
F000F8
F000F8
F000F8
F000F8
F000F8
F000F8
F000F8
F000F8
F000F8
F000F8
F000F8
F000F8
F800F8
F800F8
F800F8
F800F8
7C00F8
7E00F8
3FFFF8
3FFFF8
1FFFF8
07FFF0
002800
ENDCHAR
STARTCHAR 0076
ENCODING 118
SWIDTH 500 0
DWIDTH 25 0
BBX 23 26 1 0
BITMAP
F8003E
F8003E
F8003E
7C003C
7C007C
7C007C
3E0078
3E00F8
3E00F8
1F00F0
1F01F0
1F01F0
0F81E0
0F83E0
0783E0
07C3C0
07C7C0
03C780
03EF80
01EF00
01FF00
01FF00
00FE00
00FE00
007C00
007C00
ENDCHAR
STARTCHAR 0077
ENCODING 119
SWIDTH 760 0
DWIDTH 38 0
BBX 37 26 1 0
BITMAP
F8007800F8
F800F800F8
7800F800F0
7C00F801F0
7C00FC01F0
7C01FC01E0
3C01FC01E0
3E01FC03E0
3E03FE03E0
1E03DE03C0
1F03DE07C0
1F039E07C0
1F078F0780
0F078F0780
0F878F0F80
0F8F078F00
078F078F00
07CF079F00
03DE07DE00
03DE03DE00
03FE03FE00
01FC01FC00
01FC01FC00
01FC01F800
00F800F800
00F800F800
ENDCHAR
STARTCHAR 0078
ENCODING 120
SWIDTH 500 0
DWIDTH 25 0
BBX 23 26 1 0
BITMAP
7C003E
7C007C
3E00F8
1F01F0
1F81F0
0F83E0
07C7C0
07E7C0
03EF80
01FF00
01FF00
00FE00
007E00
00FF00
01FF00
03EF80
03EFC0
07C7C0
0F83E0
0F81F0
1F01F0
3E00F8
3E007C
7C007C
78003E
F8003E
ENDCHAR
STARTCHAR 0079
ENCODING 121
SWIDTH 480 0
DWIDTH 24 0
BBX 24 35 0 -9
BITMAP
7C001F
7C001F
7C001E
3E003E
3E003E
3E003E
1F003C
1F007C
1F007C
0F8078
0F8078
0F80F8
07C0F0
07C0F0
03C1F0
03E1E0
03E1E0
01F3E0
01F3C0
00F3C0
00FFC0
007F80
007F80
003F80
003F00
001F00
001E00
001E00
003C00
007C00
00F800
7FF800
7FF000
FFE000
FF8000
ENDCHAR
STARTCHAR 007A
ENCODING 122
SWIDTH 460 0
DWIDTH 23 0
BBX 20 26 2 0
BITMAP
FFFFE0
FFFFE0
FFFFE0
FFFFE0
0007C0
000FC0
001F80
003F00
003E00
007C00
00F800
01F800
01F000
03E000
07C000
0FC000
0F8000
1F0000
3F0000
3E0000
7C0000
7C0000
FFFFF0
FFFFF0
FFFFF0
FFFFF0
ENDCHAR
STARTCHAR 007B
ENCODING 123
SWIDTH 320 0
DWIDTH 16 0
BBX 14 48 2 -9
BITMAP
007C
01FC
03FC
03FC
07C0
0780
0780
0780
0780
0780
0780
0780
0780
0780
0780
0780
0780
0780
0F80
0F80
0F00
1F00
FE00
FC00
FC00
FE00
3F00
0F00
0F80
0F80
0780
0780
0780
0780
0780
0780
0780
0780
0780
0780
0780
0780
0780
07C0
07F8
03FC
01FC
007C
ENDCHAR
STARTCHAR 007C
ENCODING 124
SWIDTH 260 0
DWIDTH 13 0
BBX 4 48 5 -9
BITMAP
F0
F0
F0
F0
F0
F0
F0
F0
F0
F0
F0
F0
F0
F0
F0
F0
F0
F0
F0
F0
F0
F0
F0
F0
F0
F0
F0
F0
F0
F0
F0
F0
F0
F0
F0
F0
F0
F0
F0
F0
F0
F0
F0
F0
F0
F0
F0
F0
ENDCHAR
STARTCHAR 007D
ENCODING 125
SWIDTH 320 0
DWIDTH 16 0
BBX 15 48 0 -9
BITMAP
F800
FE00
FF00
FF80
0FC0
07C0
03C0
03C0
03C0
03C0
03C0
03C0
03C0
03C0
03C0
03C0
03C0
03C0
03C0
03C0
03E0
01F0
01FE
00FE
00FE
01FE
01F0
03E0
03C0
03C0
03C0
03C0
03C0
03C0
03C0
03C0
03C0
03C0
03C0
03C0
03C0
03C0
07C0
07C0
7F80
FF80
FF00
FC00
ENDCHAR
STARTCHAR 007E
ENCODING 126
SWIDTH 560 0
DWIDTH 28 0
BBX 24 8 2 11
BITMAP
0FC004
1FF00F
3FF80F
7FFE1E
787FFE
F01FFC
F00FF8
2003F0
ENDCHAR
STARTCHAR 00A0
ENCODING 160
SWIDTH 220 0
DWIDTH 11 0
BBX 0 0 0 0
BITMAP
ENDCHAR
STARTCHAR 00A1
ENCODING 161
SWIDTH 260 0
DWIDTH 13 0
BBX 6 35 4 -9
BITMAP
78
FC
FC
FC
FC
FC
30
00
00
00
00
70
70
78
78
78
78
78
78
78
78
F8
F8
F8
F8
F8
F8
F8
F8
F8
F8
F8
F8
F8
F8
ENDCHAR
STARTCHAR 00A2
ENCODING 162
SWIDTH 560 0
DWIDTH 28 0
BBX 20 40 4 -5
BITMAP
003C00
003C00
003C00
003C00
003C00
003C00
003C00
003F00
01FFF0
07FFE0
0FFFE0
1FE0E0
1F0000
3E0000
7E0000
7C0000
7C0000
780000
F80000
F80000
F80000
F80000
F80000
780000
7C0000
7C0000
7E0000
3F0000
3F8000
1FFFF0
0FFFF0
07FFF0
01FFE0
003C00
003C00
003C00
003C00
003C00
003C00
003C00
ENDCHAR
STARTCHAR 00A3
ENCODING 163
SWIDTH 560 0
DWIDTH 28 0
BBX 23 35 3 0
BITMAP
003FF8
00FFFC
01FFFC
01FFF8
03F008
03E000
07C000
07C000
07C000
078000
078000
078000
078000
078000
078000
078000
FFFFE0
FFFFE0
FFFFE0
FFFFE0
078000
078000
078000
078000
078000
0F8000
0F8000
0F8000
0F8000
0F8000
0F8000
0FFFFE
0FFFFE
1FFFFE
1FFFFE
ENDCHAR
STARTCHAR 00A4
ENCODING 164
SWIDTH 560 0
DWIDTH 28 0
BBX 24 23 2 5
BITMAP
30000C
78001E
FC7E3F
7FFFFE
3FFFFC
1FFFF8
0F81F0
1F0078
1E0078
1E003C
3C003C
3C003C
3C003C
1C003C
1E0078
1E0078
0F00F8
1FC3F8
3FFFFC
7FFFFE
FCFF3F
78001E
30000C
ENDCHAR
STARTCHAR 00A5
ENCODING 165
SWIDTH 560 0
DWIDTH 28 0
BBX 26 35 1 0
BITMAP
F80007C0
FC0007C0
7C000F80
3C000F80
3E001F00
1E001F00
1F003E00
0F803C00
0F807C00
07C07800
07C0F800
03E0F000
01E1F000
01F1E000
00FBE000
00FFC000
007F8000
1FFFFF00
1FFFFF00
1FFFFF00
1FFFFF00
001E0000
001E0000
001E0000
001E0000
001E0000
1FFFFF00
1FFFFF00
1FFFFF00
1FFFFF00
001E0000
001E0000
001E0000
001E0000
001E0000
ENDCHAR
STARTCHAR 00A6
ENCODING 166
SWIDTH 260 0
DWIDTH 13 0
BBX 4 48 5 -9
BITMAP
F0
F0
F0
F0
F0
F0
F0
F0
F0
F0
F0
F0
F0
F0
F0
F0
F0
F0
F0
00
00
00
00
00
00
00
00
00
00
F0
F0
F0
F0
F0
F0
F0
F0
F0
F0
F0
F0
F0
F0
F0
F0
F0
F0
F0
ENDCHAR
STARTCHAR 00A7
ENCODING 167
SWIDTH 480 0
DWIDTH 24 0
BBX 20 40 2 -5
BITMAP
03FFC0
0FFFE0
1FFFE0
1FC3E0
3E0040
3E0000
3C0000
3C0000
3E0000
3F0000
1FC000
0FF000
0FFE00
1FFF80
3E7FC0
7C0FE0
7803F0
F801F0
F000F0
F000F0
F800F0
F800F0
7C00F0
7F01F0
3FC3E0
1FFFC0
0FFF80
01FF80
007FC0
000FC0
0003E0
0001E0
0001E0
0001E0
0001E0
6003E0
7F3FE0
7FFFC0
FFFF80
3FFE00
ENDCHAR
STARTCHAR 00A8
ENCODING 168
SWIDTH 360 0
DWIDTH 18 0
BBX 15 6 2 31
BITMAP
3018
F83C
F87E
FC7E
F87E
783C
ENDCHAR
STARTCHAR 00A9
ENCODING 169
SWIDTH 800 0
DWIDTH 40 0
BBX 34 36 3 -1
BITMAP
000FFE0000
007FFF8000
00FFFFE000
03F807F000
07E000F800
0F80007C00
0F00001E00
1E00F01F00
3E07FE0F00
3C0FFF0780
781FFF0780
783E0203C0
787C0003C0
70780003C0
F0780001C0
F0F00001C0
F0F00001C0
F0F00001C0
F0F00001C0
F0F00001C0
F0780001C0
70780003C0
787C0003C0
783C0003C0
783F8F0780
3C1FFF0780
3C0FFF0F00
1E01FC0F00
1F00001E00
0F80003E00
07C000FC00
03F003F800
01FFFFE000
007FFFC000
001FFF0000
0001F00000
ENDCHAR
STARTCHAR 00AA
ENCODING 170
SWIDTH 380 0
DWIDTH 19 0
BBX 15 19 2 16
BITMAP
3FF0
3FF8
3FFC
203C
001E
001E
001E
0FFE
3FFE
7FFE
F81E
F01E
E01E
F01E
F01E
7FFE
7FFE
3FFE
0140
ENDCHAR
STARTCHAR 00AB
ENCODING 171
SWIDTH 480 0
DWIDTH 24 0
BBX 21 22 2 3
BITMAP
018060
03E0F8
07C0F0
0781F0
0F83E0
1F03E0
1F07C0
3E0F80
7C0F80
FC1F00
F83F00
F83F00
7C1F00
7E0F80
3E07C0
1F07C0
0F03E0
0F81E0
07C1F0
03C0F8
03C070
010040
ENDCHAR
STARTCHAR 00AC
ENCODING 172
SWIDTH 560 0
DWIDTH 28 0
BBX 23 17 3 3
BITMAP
FFFFFE
FFFFFE
FFFFFE
FFFFFE
00001E
00001E
00001E
00001E
00001E
00001E
00001E
00001E
00001E
00001E
00001E
00001E
00001E
ENDCHAR
STARTCHAR 00AD
ENCODING 173
SWIDTH 280 0
DWIDTH 14 0
BBX 13 4 1 13
BITMAP
FFF8
FFF8
FFF8
FFF8
ENDCHAR
STARTCHAR 00AE
ENCODING 174
SWIDTH 800 0
DWIDTH 40 0
BBX 34 36 3 -1
BITMAP
000FFE0000
007FFF8000
00FFFFE000
03F807F000
07E000F800
0F80007C00
0F00001E00
1E00001F00
3E3FF80F00
3C3FFE0780
783FFF0780
783C0F03C0
783C0783C0
703C0783C0
F03C0781C0
F03C0781C0
F03C0F01C0
F03FFF01C0
F03FFE01C0
F03FF801C0
F03C3C01C0
703C3E03C0
783C1E03C0
783C0F03C0
783C0F0780
3C3C078780
3C3C03CF00
1E3C03CF00
1F00001E00
0F80003E00
07C000FC00
03F003F800
01FFFFE000
007FFFC000
001FFF0000
0001F00000
ENDCHAR
STARTCHAR 00AF
ENCODING 175
SWIDTH 360 0
DWIDTH 18 0
BBX 15 4 2 32
BITMAP
FFFE
FFFE
FFFE
FFFE
ENDCHAR
STARTCHAR 00B0
ENCODING 176
SWIDTH 320 0
DWIDTH 16 0
BBX 14 14 1 25
BITMAP
0380
1FF0
3FF8
7CF8
783C
F01C
F01C
F01C
F01C
703C
7C78
3FF8
1FF0
0FC0
ENDCHAR
STARTCHAR 00B1
ENCODING 177
SWIDTH 560 0
DWIDTH 28 0
BBX 23 31 3 0
BITMAP
007800
007800
007800
007800
007800
007800
007800
007800
007800
007800
FFFFFE
FFFFFE
FFFFFE
FFFFFE
007800
007800
007800
007800
007800
007800
007800
007800
007800
007800
000000
000000
000000
FFFFFE
FFFFFE
FFFFFE
FFFFFE
ENDCHAR
STARTCHAR 00B2
ENCODING 178
SWIDTH 340 0
DWIDTH 17 0
BBX 14 19 2 16
BITMAP
3FC0
FFF0
FFF0
E078
4078
0078
0078
00F0
01F0
03E0
07C0
0F80
1F00
3C00
7800
7800
FFFC
FFFC
FFFC
ENDCHAR
STARTCHAR 00B3
ENCODING 179
SWIDTH 340 0
DWIDTH 17 0
BBX 13 20 2 15
BITMAP
7FC0
FFE0
FFF0
40F0
0070
0070
00F0
03E0
1FC0
1FE0
07F0
0078
0038
0038
0038
0078
FBF8
FFF0
FFE0
0E00
ENDCHAR
STARTCHAR 00B4
ENCODING 180
SWIDTH 360 0
DWIDTH 18 0
BBX 8 10 7 29
BITMAP
04
06
0F
1F
3E
7C
78
F0
E0
40
ENDCHAR
STARTCHAR 00B5
ENCODING 181
SWIDTH 580 0
DWIDTH 29 0
BBX 21 35 4 -9
BITMAP
F800F8
F800F8
F800F8
F800F8
F800F8
F800F8
F800F8
F800F8
F800F8
F800F8
F800F8
F800F8
F800F8
F800F8
F800F8
F800F8
F800F8
F800F8
F800F8
FC00F8
FC00F8
FE00F8
FFFFF8
FFFFF8
F7FFF8
F3FFF0
F85400
F80000
F80000
F80000
F80000
F80000
F80000
F80000
F80000
ENDCHAR
STARTCHAR 00B6
ENCODING 182
SWIDTH 640 0
DWIDTH 32 0
BBX 25 44 2 -9
BITMAP
001FFF00
01FFFF80
07FFFF80
0FFFFF80
1FFF0780
3FFF0780
7FFF0780
7FFF0780
FFFF0780
FFFF0780
FFFF0780
FFFF0780
FFFF0780
FFFF0780
7FFF0780
7FFF0780
7FFF0780
3FFF0780
1FFF0780
0FFF0780
03FF0780
007F0780
000F0780
000F0780
000F0780
000F0780
000F0780
000F0780
000F0780
000F0780
000F0780
000F0780
000F0780
000F0780
000F0780
000F0780
000F0780
000F0780
000F0780
000F0780
000F0780
000F0780
000F0780
000F0780
ENDCHAR
STARTCHAR 00B7
ENCODING 183
SWIDTH 240 0
DWIDTH 12 0
BBX 7 7 3 11
BITMAP
78
FC
FC
FE
FC
7C
30
ENDCHAR
STARTCHAR 00B8
ENCODING 184
SWIDTH 360 0
DWIDTH 18 0
BBX 9 10 4 -9
BITMAP
0E00
1E00
1C00
3E00
3F00
0F80
0780
FF80
FF00
FE00
ENDCHAR
STARTCHAR 00B9
ENCODING 185
SWIDTH 340 0
DWIDTH 17 0
BBX 9 19 3 16
BITMAP
0380
0780
1F80
7F80
FF80
F780
8780
0780
0780
0780
0780
0780
0780
0780
0780
0780
0780
0780
0780
ENDCHAR
STARTCHAR 00BA
ENCODING 186
SWIDTH 440 0
DWIDTH 22 0
BBX 18 19 2 16
BITMAP
07F800
1FFE00
3FFF00
3E0F80
780780
7803C0
F003C0
F003C0
F003C0
F003C0
F003C0
F003C0
7803C0
780780
3C0F80
3FFF00
1FFE00
07FC00
00C000
ENDCHAR
STARTCHAR 00BB
ENCODING 187
SWIDTH 480 0
DWIDTH 24 0
BBX 21 22 2 3
BITMAP
300C00
F03E00
781F00
7C0F00
3E0F80
3E07C0
1F07C0
0F83E0
0F81F0
07C1F8
07E0F8
07E0F8
07C1F0
0F83F0
1F03E0
1F07C0
3E0780
3C0F80
7C1F00
F81E00
701E00
100400
ENDCHAR
STARTCHAR 00BC
ENCODING 188
SWIDTH 860 0
DWIDTH 43 0
BBX 40 35 3 0
BITMAP
0380003E00
0780003C00
1F80007800
7F80007800
FF8000F000
F78001F000
878001E000
078003E000
078003C000
078007C000
0780078000
07800F0000
07801F0000
07801E0000
07803E0000
07803C0000
07807C0078
07807800F8
0780F001F8
0000F003F8
0001E007B8
0003E00F38
0003C00E38
0007C01C38
0007803C38
000F807838
000F007038
001E00FFFF
003E00FFFF
003C00FFFF
007C000038
0078000038
00F8000038
00F0000038
01E0000038
ENDCHAR
STARTCHAR 00BD
ENCODING 189
SWIDTH 860 0
DWIDTH 43 0
BBX 38 35 3 0
BITMAP
0380007C00
0780007800
1F8000F000
7F8000F000
FF8001E000
F78003E000
878003C000
078007C000
0780078000
07800F0000
07800F0000
07801E0000
07803E0000
07803C0000
07807C0000
0780780FC0
0780F83FF0
0780F07FF8
0781E078F8
0003E06038
0003C0003C
0007C00038
0007800078
000F800078
000F0000F0
001E0003E0
001E0007C0
003C000F80
007C001F00
0078003E00
00F8003C00
00F0007800
01F0007FFC
01E0007FFC
03C0007FFC
ENDCHAR
STARTCHAR 00BE
ENCODING 190
SWIDTH 860 0
DWIDTH 43 0
BBX 41 35 2 0
BITMAP
7FC0000F0000
FFE0001F0000
FFF0001E0000
40F0003E0000
0070003C0000
0070007C0000
00F000780000
03E000F00000
1FC001F00000
1FE001E00000
07F003E00000
007803C00000
003807C00000
003807800000
00380F000000
00780F000000
FBF81E003C00
FFF03E007C00
FFE03C00FC00
0E007C01FC00
00007803DC00
0000F8079C00
0000F0071C00
0001E00E1C00
0003E01E1C00
0003C03C1C00
0007C0381C00
0007807FFF80
000F807FFF80
000F007FFF80
001E00001C00
001E00001C00
003C00001C00
007C00001C00
007800001C00
ENDCHAR
STARTCHAR 00BF
ENCODING 191
SWIDTH 400 0
DWIDTH 20 0
BBX 18 35 1 -9
BITMAP
007000
00F800
01FC00
01FC00
01FC00
00F800
007000
000000
000000
000000
000000
007800
007800
007800
007800
00F800
00F000
01F000
03E000
07C000
0F8000
1F0000
3F0000
3E0000
7C0000
7C0000
F80000
F80000
F80000
7C0000
7E0180
7FFFC0
3FFFC0
1FFFC0
07FF00
ENDCHAR
STARTCHAR 00C0
ENCODING 192
SWIDTH 660 0
DWIDTH 33 0
BBX 32 47 1 0
BITMAP
00080000
00180000
003C0000
003E0000
001F0000
000F8000
0007C000
0003C000
0001E000
00008000
00000000
00000000
0007C000
0007C000
000FE000
000FE000
001FF000
001FF000
003EF800
003EF800
003C7800
007C7C00
00787C00
00F83E00
00F83E00
00F01F00
01F01F00
01E01F00
03E00F80
03E00F80
03C007C0
07C007C0
07C007C0
0F8003E0
0FFFFFE0
0FFFFFF0
1FFFFFF0
1FFFFFF0
1E0001F8
3E0000F8
3E0000F8
7C0000FC
7C00007C
7C00007C
F800007E
F800003E
F800003F
ENDCHAR
STARTCHAR 00C1
ENCODING 193
SWIDTH 660 0
DWIDTH 33 0
BBX 32 46 1 1
BITMAP
00003000
00007800
0000FC00
0001F800
0001F000
0003E000
0007C000
00078000
00030000
00000000
00000000
0007C000
0007C000
000FE000
000FE000
001FF000
001FF000
003EF800
003EF800
003C7800
007C7C00
00787C00
00F83E00
00F83E00
00F01F00
01F01F00
01E01F00
03E00F80
03E00F80
03C007C0
07C007C0
07C007C0
0F8003E0
0FFFFFE0
0FFFFFF0
1FFFFFF0
1FFFFFF0
1E0001F8
3E0000F8
3E0000F8
7C0000FC
7C00007C
7C00007C
F800007E
F800003E
F800003F
ENDCHAR
STARTCHAR 00C2
ENCODING 194
SWIDTH 660 0
DWIDTH 33 0
BBX 32 46 1 0
BITMAP
00010000
00038000
0007C000
000FE000
001FF000
003EF800
007C3C00
00701C00
00200800
00000000
00000000
0007C000
0007C000
000FE000
000FE000
001FF000
001FF000
003EF800
003EF800
003C7800
007C7C00
00787C00
00F83E00
00F83E00
00F01F00
01F01F00
01E01F00
03E00F80
03E00F80
03C007C0
07C007C0
07C007C0
0F8003E0
0FFFFFE0
0FFFFFF0
1FFFFFF0
1FFFFFF0
1E0001F8
3E0000F8
3E0000F8
7C0000FC
7C00007C
7C00007C
F800007E
F800003E
F800003F
ENDCHAR
STARTCHAR 00C3
ENCODING 195
SWIDTH 660 0
DWIDTH 33 0
BBX 32 45 1 0
BITMAP
00000400
003E0700
007FDE00
00FFFE00
00F3FC00
00C0F800
00000000
00000000
00000000
00000000
0007C000
0007C000
000FE000
000FE000
001FF000
001FF000
003EF800
003EF800
003C7800
007C7C00
00787C00
00F83E00
00F83E00
00F01F00
01F01F00
01E01F00
03E00F80
03E00F80
03C007C0
07C007C0
07C007C0
0F8003E0
0FFFFFE0
0FFFFFF0
1FFFFFF0
1FFFFFF0
1E0001F8
3E0000F8
3E0000F8
7C0000FC
7C00007C
7C00007C
F800007E
F800003E
F800003F
ENDCHAR
STARTCHAR 00C4
ENCODING 196
SWIDTH 660 0
DWIDTH 33 0
BBX 32 45 1 0
BITMAP
00000800
00783C00
00FC3E00
00FC7E00
00FC3E00
00783C00
00000000
00000000
00000000
00000000
0007C000
0007C000
000FE000
000FE000
001FF000
001FF000
003EF800
003EF800
003C7800
007C7C00
00787C00
00F83E00
00F83E00
00F01F00
01F01F00
01E01F00
03E00F80
03E00F80
03C007C0
07C007C0
07C007C0
0F8003E0
0FFFFFE0
0FFFFFF0
1FFFFFF0
1FFFFFF0
1E0001F8
3E0000F8
3E0000F8
7C0000FC
7C00007C
7C00007C
F800007E
F800003E
F800003F
ENDCHAR
STARTCHAR 00C5
ENCODING 197
SWIDTH 660 0
DWIDTH 33 0
BBX 32 42 1 0
BITMAP
0007C000
000FE000
001EF000
00183000
00383800
00383800
00383800
001C7000
001FE000
000FE000
000FE000
001FF000
001FF000
001EF800
003EF800
003C7800
007C7C00
00787C00
00F83E00
00F83E00
00F01F00
01F01F00
01E01F00
03E00F80
03E00F80
03C007C0
07C007C0
07C007C0
0F8003E0
0FFFFFE0
0FFFFFE0
1FFFFFF0
1FFFFFF0
3E0001F8
3E0000F8
3E0000F8
7C0000FC
7C00007C
7C00007C
F800007E
F800003E
F800003F
ENDCHAR
STARTCHAR 00C6
ENCODING 198
SWIDTH 920 0
DWIDTH 46 0
BBX 44 35 1 0
BITMAP
00000FFFFFE0
00000FFFFFE0
00001FFFFFE0
00003FFFFFE0
00007FF00000
00007DF00000
0000F9F00000
0001F1F00000
0001F1F00000
0003E1F00000
0007C1F00000
0007C1F00000
000F81F00000
000F81F00000
001F01F00000
003E01FFFF80
003E01FFFF80
007C01FFFF80
007C01FFFF80
00F801F00000
01F001F00000
01F001F00000
03FFFFF00000
03FFFFF00000
07FFFFF00000
0FFFFFF00000
0F8001F00000
1F0001F00000
1F0001F00000
3E0001F00000
3E0001F00000
7C0001FFFFF0
7C0001FFFFF0
F80001FFFFF0
F80001FFFFF0
ENDCHAR
STARTCHAR 00C7
ENCODING 199
SWIDTH 620 0
DWIDTH 31 0
BBX 27 44 3 -9
BITMAP
001FFE00
00FFFFC0
01FFFFC0
03FFFFC0
07F807C0
0FE00080
1F800000
3F000000
3F000000
7E000000
7C000000
7C000000
FC000000
F8000000
F8000000
F8000000
F8000000
F8000000
F8000000
F8000000
F8000000
F8000000
FC000000
7C000000
7C000000
7E000000
3E000000
3F000000
1F800000
1FC00000
0FF001C0
07FFFFC0
03FFFFC0
01FFFFE0
007FFF80
0007F000
00070000
00078000
000FC000
0003E000
0001E000
003FE000
003FC000
003F8000
ENDCHAR
STARTCHAR 00C8
ENCODING 200
SWIDTH 560 0
DWIDTH 28 0
BBX 23 46 4 1
BITMAP
00C000
01E000
03F000
01F000
00F800
007C00
003E00
001E00
000C00
000000
000000
FFFFF8
FFFFF8
FFFFF8
FFFFF8
FFFFF8
F80000
F80000
F80000
F80000
F80000
F80000
F80000
F80000
F80000
F80000
FFFFF0
FFFFF0
FFFFF0
FFFFF0
F80000
F80000
F80000
F80000
F80000
F80000
F80000
F80000
F80000
F80000
F80000
F80000
FFFFFE
FFFFFE
FFFFFE
FFFFFE
ENDCHAR
STARTCHAR 00C9
ENCODING 201
SWIDTH 560 0
DWIDTH 28 0
BBX 23 46 4 1
BITMAP
000300
000780
000FC0
000F80
001F00
003E00
007C00
007800
003000
000000
000000
FFFFF8
FFFFF8
FFFFF8
FFFFF8
FFFFF8
F80000
F80000
F80000
F80000
F80000
F80000
F80000
F80000
F80000
F80000
FFFFF0
FFFFF0
FFFFF0
FFFFF0
F80000
F80000
F80000
F80000
F80000
F80000
F80000
F80000
F80000
F80000
F80000
F80000
FFFFFE
FFFFFE
FFFFFE
FFFFFE
ENDCHAR
STARTCHAR 00CA
ENCODING 202
SWIDTH 560 0
DWIDTH 28 0
BBX 23 46 4 0
BITMAP
003000
007800
00F800
01FC00
03FE00
07CF00
0F8780
070380
060100
000000
000000
FFFFF8
FFFFF8
FFFFF8
FFFFF8
FFFFF8
F80000
F80000
F80000
F80000
F80000
F80000
F80000
F80000
F80000
F80000
FFFFF0
FFFFF0
FFFFF0
FFFFF0
F80000
F80000
F80000
F80000
F80000
F80000
F80000
F80000
F80000
F80000
F80000
F80000
FFFFFE
FFFFFE
FFFFFE
FFFFFE
ENDCHAR
STARTCHAR 00CB
ENCODING 203
SWIDTH 560 0
DWIDTH 28 0
BBX 23 44 4 1
BITMAP
0F07C0
1F87C0
1F87E0
1F87C0
0F07C0
000000
000000
000000
000000
FFFFF8
FFFFF8
FFFFF8
FFFFF8
FFFFF8
F80000
F80000
F80000
F80000
F80000
F80000
F80000
F80000
F80000
F80000
FFFFF0
FFFFF0
FFFFF0
FFFFF0
F80000
F80000
F80000
F80000
F80000
F80000
F80000
F80000
F80000
F80000
F80000
F80000
FFFFFE
FFFFFE
FFFFFE
FFFFFE
ENDCHAR
STARTCHAR 00CC
ENCODING 204
SWIDTH 260 0
DWIDTH 13 0
BBX 9 46 1 1
BITMAP
3000
7800
F800
7C00
3E00
1F00
0F80
0780
0300
0000
0000
1F00
1F00
1F00
1F00
1F00
1F00
1F00
1F00
1F00
1F00
1F00
1F00
1F00
1F00
1F00
1F00
1F00
1F00
1F00
1F00
1F00
1F00
1F00
1F00
1F00
1F00
1F00
1F00
1F00
1F00
1F00
1F00
1F00
1F00
1F00
ENDCHAR
STARTCHAR 00CD
ENCODING 205
SWIDTH 260 0
DWIDTH 13 0
BBX 9 46 4 1
BITMAP
0600
0F00
1F80
3F00
3E00
7C00
F800
F000
4000
0000
0000
F800
F800
F800
F800
F800
F800
F800
F800
F800
F800
F800
F800
F800
F800
F800
F800
F800
F800
F800
F800
F800
F800
F800
F800
F800
F800
F800
F800
F800
F800
F800
F800
F800
F800
F800
ENDCHAR
STARTCHAR 00CE
ENCODING 206
SWIDTH 260 0
DWIDTH 13 0
BBX 13 46 0 0
BITMAP
0200
0700
0F80
1FC0
3FE0
7CF0
F878
F038
6010
0000
0000
0F80
0F80
0F80
0F80
0F80
0F80
0F80
0F80
0F80
0F80
0F80
0F80
0F80
0F80
0F80
0F80
0F80
0F80
0F80
0F80
0F80
0F80
0F80
0F80
0F80
0F80
0F80
0F80
0F80
0F80
0F80
0F80
0F80
0F80
0F80
ENDCHAR
STARTCHAR 00CF
ENCODING 207
SWIDTH 260 0
DWIDTH 13 0
BBX 15 45 -1 0
BITMAP
0008
783E
FC3E
FC3E
FC3E
783E
0000
0000
0000
0000
07C0
07C0
07C0
07C0
07C0
07C0
07C0
07C0
07C0
07C0
07C0
07C0
07C0
07C0
07C0
07C0
07C0
07C0
07C0
07C0
07C0
07C0
07C0
07C0
07C0
07C0
07C0
07C0
07C0
07C0
07C0
07C0
07C0
07C0
07C0
ENDCHAR
STARTCHAR 00D0
ENCODING 208
SWIDTH 720 0
DWIDTH 36 0
BBX 32 35 1 0
BITMAP
03FFE000
0FFFFC00
0FFFFF00
0FFFFFC0
0F807FE0
0F800FF0
0F8003F8
0F8000FC
0F8000FC
0F80007E
0F80003E
0F80003F
0F80001F
0F80001F
0F80001F
FFFE001F
FFFE001F
FFFE001F
FFFE001F
0F80001F
0F80001F
0F80001F
0F80001F
0F80003F
0F80003E
0F80007E
0F80007E
0F8000FC
0F8001F8
0F8007F8
0F803FF0
0FFFFFC0
0FFFFF80
0FFFFE00
0FFFF000
ENDCHAR
STARTCHAR 00D1
ENCODING 209
SWIDTH 720 0
DWIDTH 36 0
BBX 28 44 4 1
BITMAP
007C1C00
00FF3C00
01FFFC00
03CFF800
0381F000
00000000
00000000
00000000
00000000
F00001F0
F80001F0
FC0001F0
FE0001F0
FF0001F0
FF8001F0
FF8001F0
FFC001F0
FFE001F0
FBF001F0
F9F801F0
F8F801F0
F87C01F0
F83E01F0
F83F01F0
F81F01F0
F80F81F0
F80FC1F0
F807C1F0
F803E1F0
F801F1F0
F801F1F0
F800F9F0
F8007DF0
F8007DF0
F8003FF0
F8001FF0
F8001FF0
F8000FF0
F80007F0
F80007F0
F80003F0
F80001F0
F80001F0
F80000F0
ENDCHAR
STARTCHAR 00D2
ENCODING 210
SWIDTH 760 0
DWIDTH 38 0
BBX 33 48 3 -1
BITMAP
0004000000
000C000000
001E000000
001F000000
000F800000
0007C00000
0003E00000
0001E00000
0000E00000
0000400000
0000000000
0000000000
001FFC0000
00FFFF8000
01FFFFC000
07FFFFE000
0FF00FF000
0FC003F800
1F8000FC00
3F00007E00
3E00007E00
7E00003F00
7C00001F00
7C00001F00
FC00001F00
F800001F80
F800000F80
F800000F80
F800000F80
F800000F80
F800000F80
F800000F80
F800000F80
F800001F80
FC00001F80
7C00001F00
7C00001F00
7E00003F00
3E00003E00
3F00007E00
1F8000FC00
1FC001FC00
0FF007F800
07FFFFF000
03FFFFE000
00FFFF8000
003FFE0000
0003E00000
ENDCHAR
STARTCHAR 00D3
ENCODING 211
SWIDTH 760 0
DWIDTH 38 0
BBX 33 48 3 -1
BITMAP
0000100000
0000180000
00003C0000
00007C0000
0000F80000
0001F00000
0003E00000
0003C00000
0003800000
0001000000
0000000000
0000000000
001FFC0000
00FFFF8000
01FFFFC000
07FFFFE000
0FF00FF000
0FC003F800
1F8000FC00
3F00007E00
3E00007E00
7E00003F00
7C00001F00
7C00001F00
FC00001F00
F800001F80
F800000F80
F800000F80
F800000F80
F800000F80
F800000F80
F800000F80
F800000F80
F800001F80
FC00001F80
7C00001F00
7C00001F00
7E00003F00
3E00003E00
3F00007E00
1F8000FC00
1FC001FC00
0FF007F800
07FFFFF000
03FFFFE000
00FFFF8000
003FFE0000
0003E00000
ENDCHAR
STARTCHAR 00D4
ENCODING 212
SWIDTH 760 0
DWIDTH 38 0
BBX 33 47 3 -1
BITMAP
0000800000
0001C00000
0003E00000
0007F00000
000FF80000
001F7C0000
003C3E0000
00380E0000
0010040000
0000000000
0000000000
001FFC0000
00FFFF8000
01FFFFC000
07FFFFE000
0FF00FF000
0FC003F800
1F8000FC00
3F00007E00
3E00007E00
7E00003F00
7C00001F00
7C00001F00
FC00001F00
F800001F80
F800000F80
F800000F80
F800000F80
F800000F80
F800000F80
F800000F80
F800000F80
F800001F80
FC00001F80
7C00001F00
7C00001F00
7E00003F00
3E00003E00
3F00007E00
1F8000FC00
1FC001FC00
0FF007F800
07FFFFF000
03FFFFE000
00FFFF8000
003FFE0000
0003E00000
ENDCHAR
STARTCHAR 00D5
ENCODING 213
SWIDTH 760 0
DWIDTH 38 0
BBX 33 45 3 0
BITMAP
001F030000
003FEF0000
007FFF0000
0071FE0000
00607C0000
0000000000
0000000000
0000000000
0000000000
001FFC0000
00FFFF8000
01FFFFC000
07FFFFE000
0FF00FF000
0FC003F800
1F8000FC00
3F00007E00
3E00007E00
7E00003F00
7C00001F00
7C00001F00
FC00001F00
F800001F80
F800000F80
F800000F80
F800000F80
F800000F80
F800000F80
F800000F80
F800000F80
F800001F80
FC00001F80
7C00001F00
7C00001F00
7E00003F00
3E00003E00
3F00007E00
1F8000FC00
1FC001FC00
0FF007F800
07FFFFF000
03FFFFE000
00FFFF8000
003FFE0000
0003E00000
ENDCHAR
STARTCHAR 00D6
ENCODING 214
SWIDTH 760 0
DWIDTH 38 0
BBX 33 45 3 0
BITMAP
003C1E0000
007C3F0000
007E3F0000
007C3F0000
003C1E0000
0000000000
0000000000
0000000000
0000000000
001FFC0000
00FFFF8000
01FFFFC000
07FFFFE000
0FF00FF000
0FC003F800
1F8000FC00
3F00007E00
3E00007E00
7E00003F00
7C00001F00
7C00001F00
FC00001F00
F800001F80
F800000F80
F800000F80
F800000F80
F800000F80
F800000F80
F800000F80
F800000F80
F800001F80
FC00001F80
7C00001F00
7C00001F00
7E00003F00
3E00003E00
3F00007E00
1F8000FC00
1FC001FC00
0FF007F800
07FFFFF000
03FFFFE000
00FFFF8000
003FFE0000
0003E00000
ENDCHAR
STARTCHAR 00D7
ENCODING 215
SWIDTH 560 0
DWIDTH 28 0
BBX 20 20 4 5
BITMAP
200040
7000E0
F801F0
7C03E0
3E07C0
1F0F80
0F9F00
07FE00
03FC00
01F800
01F800
03FC00
07FE00
0F9F00
1F0F80
3E07C0
7C03E0
F801F0
7000E0
200040
ENDCHAR
STARTCHAR 00D8
ENCODING 216
SWIDTH 760 0
DWIDTH 38 0
BBX 33 37 3 -1
BITMAP
0000000C00
001FFC1F00
00FFFF9E00
01FFFFFE00
07FFFFFC00
0FF00FF800
0FC003F800
1F8001FC00
3F0003FE00
3E0007FE00
7E000FBF00
7C000F9F00
7C001F1F00
FC003E1F00
F8007C1F80
F800780F80
F800F80F80
F801F00F80
F803E00F80
F807C00F80
F807C00F80
F80F800F80
F81F001F80
FC3E001F80
7C3C001F00
7C7C001F00
7EF8003F00
3FF0003E00
3FE0007E00
1FE000FC00
1FC001FC00
0FF007F800
1FFFFFF000
1FFFFFE000
3EFFFF8000
7C3FFE0000
3807E00000
ENDCHAR
STARTCHAR 00D9
ENCODING 217
SWIDTH 680 0
DWIDTH 34 0
BBX 26 47 4 0
BITMAP
00600000
00F00000
01F80000
00FC0000
007C0000
003E0000
001F0000
000F0000
00020000
00000000
00000000
F80007C0
F80007C0
F80007C0
F80007C0
F80007C0
F80007C0
F80007C0
F80007C0
F80007C0
F80007C0
F80007C0
F80007C0
F80007C0
F80007C0
F80007C0
F80007C0
F80007C0
F80007C0
F80007C0
F80007C0
F80007C0
F80007C0
F80007C0
F80007C0
F80007C0
F80007C0
7C0007C0
7C000FC0
7E000F80
3F001F80
3F807F00
1FFFFE00
0FFFFE00
07FFF800
01FFF000
003F0000
ENDCHAR
STARTCHAR 00DA
ENCODING 218
SWIDTH 680 0
DWIDTH 34 0
BBX 26 47 4 0
BITMAP
00018000
0003C000
0003E000
0007C000
000F8000
001F0000
003E0000
003C0000
00180000
00000000
00000000
F80007C0
F80007C0
F80007C0
F80007C0
F80007C0
F80007C0
F80007C0
F80007C0
F80007C0
F80007C0
F80007C0
F80007C0
F80007C0
F80007C0
F80007C0
F80007C0
F80007C0
F80007C0
F80007C0
F80007C0
F80007C0
F80007C0
F80007C0
F80007C0
F80007C0
F80007C0
7C0007C0
7C000FC0
7E000F80
3F001F80
3F807F00
1FFFFE00
0FFFFE00
07FFF800
01FFF000
003F0000
ENDCHAR
STARTCHAR 00DB
ENCODING 219
SWIDTH 680 0
DWIDTH 34 0
BBX 26 47 4 -1
BITMAP
000C0000
000E0000
001F0000
003F8000
007FC000
00F3E000
01E1F000
01C0E000
00806000
00000000
00000000
F80007C0
F80007C0
F80007C0
F80007C0
F80007C0
F80007C0
F80007C0
F80007C0
F80007C0
F80007C0
F80007C0
F80007C0
F80007C0
F80007C0
F80007C0
F80007C0
F80007C0
F80007C0
F80007C0
F80007C0
F80007C0
F80007C0
F80007C0
F80007C0
F80007C0
F80007C0
7C0007C0
7C000FC0
7E000F80
3F001F80
3F807F00
1FFFFE00
0FFFFE00
07FFF800
01FFF000
003F0000
ENDCHAR
STARTCHAR 00DC
ENCODING 220
SWIDTH 680 0
DWIDTH 34 0
BBX 26 46 4 -1
BITMAP
00800000
03E0F000
03E1F800
03E1F800
03E1F800
03E0F000
00000000
00000000
00000000
00000000
F80007C0
F80007C0
F80007C0
F80007C0
F80007C0
F80007C0
F80007C0
F80007C0
F80007C0
F80007C0
F80007C0
F80007C0
F80007C0
F80007C0
F80007C0
F80007C0
F80007C0
F80007C0
F80007C0
F80007C0
F80007C0
F80007C0
F80007C0
F80007C0
F80007C0
F80007C0
7C0007C0
7C000FC0
7E000F80
3F001F80
3F807F00
1FFFFE00
0FFFFE00
07FFF800
01FFF000
003F0000
ENDCHAR
STARTCHAR 00DD
ENCODING 221
SWIDTH 580 0
DWIDTH 29 0
BBX 30 46 0 1
BITMAP
00006000
0000F000
0001F800
0001F000
0003E000
0007C000
000F8000
000F0000
00060000
00000000
00000000
FC0000FC
7E0000F8
7E0001F0
3F0001F0
1F0003E0
1F8003E0
0F8007C0
0FC007C0
07C00F80
07E01F00
03E01F00
01F03E00
01F03E00
00F87C00
00FCF800
007CF800
003FF000
003FF000
001FE000
001FC000
000FC000
00078000
00078000
00078000
00078000
00078000
00078000
00078000
00078000
00078000
00078000
00078000
00078000
00078000
00078000
ENDCHAR
STARTCHAR 00DE
ENCODING 222
SWIDTH 600 0
DWIDTH 30 0
BBX 25 35 4 0
BITMAP
F8000000
F8000000
F8000000
F8000000
F8000000
F8000000
FFFF0000
FFFFE000
FFFFF800
FFFFFC00
F803FE00
F8007E00
F8003F00
F8001F00
F8001F00
F8001F80
F8000F80
F8000F80
F8001F80
F8001F00
F8001F00
F8003F00
F8007E00
F803FE00
FFFFFC00
FFFFF000
FFFFC000
FFFC0000
F8000000
F8000000
F8000000
F8000000
F8000000
F8000000
F8000000
ENDCHAR
STARTCHAR 00DF
ENCODING 223
SWIDTH 620 0
DWIDTH 31 0
BBX 25 40 4 -1
BITMAP
00FC0000
07FF8000
0FFFE000
1FFFE000
3FC7F000
7E01F000
7C00F800
F800F800
F800F800
F800F800
F800F800
F801F000
F803F000
F803E000
F807C000
F80F8000
F81F0000
F83E0000
F83E0000
F83E0000
F83E0000
F83F0000
F83FC000
F81FF000
F807FC00
F801FE00
F8007F00
F8003F00
F8001F80
F8000F80
F8000F80
F8000F80
F8000F80
F8000F80
F8401F80
F87C7F00
F87FFF00
F87FFE00
F87FF800
00038000
ENDCHAR
STARTCHAR 00E0
ENCODING 224
SWIDTH 520 0
DWIDTH 26 0
BBX 20 39 2 0
BITMAP
018000
03C000
07E000
01F000
00F800
007800
003C00
001C00
000800
000000
000000
01F800
1FFF00
1FFFC0
1FFFE0
1F0FE0
0003F0
0001F0
0001F0
0000F0
0000F0
0000F0
00FCF0
0FFFF0
1FFFF0
3FFFF0
7F00F0
7C00F0
F800F0
F800F0
F800F0
F800F0
F800F0
7C00F0
7F83F0
3FFFF0
1FFFF0
0FFFF0
002000
ENDCHAR
STARTCHAR 00E1
ENCODING 225
SWIDTH 520 0
DWIDTH 26 0
BBX 20 40 2 -1
BITMAP
000200
000700
000F80
001F80
001F00
003E00
007C00
00F800
00F000
002000
000000
000000
01F800
1FFF00
1FFFC0
1FFFE0
1F0FE0
0003F0
0001F0
0001F0
0000F0
0000F0
0000F0
00FCF0
0FFFF0
1FFFF0
3FFFF0
7F00F0
7C00F0
F800F0
F800F0
F800F0
F800F0
F800F0
7C00F0
7F83F0
3FFFF0
1FFFF0
0FFFF0
002000
ENDCHAR
STARTCHAR 00E2
ENCODING 226
SWIDTH 520 0
DWIDTH 26 0
BBX 20 39 2 -1
BITMAP
003000
007800
00FC00
01FE00
03FF00
07CF80
0787C0
070380
020000
000000
000000
01F800
1FFF00
1FFFC0
1FFFE0
1F0FE0
0003F0
0001F0
0001F0
0000F0
0000F0
0000F0
00FCF0
0FFFF0
1FFFF0
3FFFF0
7F00F0
7C00F0
F800F0
F800F0
F800F0
F800F0
F800F0
7C00F0
7F83F0
3FFFF0
1FFFF0
0FFFF0
002000
ENDCHAR
STARTCHAR 00E3
ENCODING 227
SWIDTH 520 0
DWIDTH 26 0
BBX 20 38 2 -1
BITMAP
000040
07E0E0
0FFFE0
0FFFC0
1E3F80
0C0F00
000000
000000
000000
000000
01F800
1FFF00
1FFFC0
1FFFE0
1F0FE0
0003F0
0001F0
0001F0
0000F0
0000F0
0000F0
00FCF0
0FFFF0
1FFFF0
3FFFF0
7F00F0
7C00F0
F800F0
F800F0
F800F0
F800F0
F800F0
7C00F0
7F83F0
3FFFF0
1FFFF0
0FFFF0
002000
ENDCHAR
STARTCHAR 00E4
ENCODING 228
SWIDTH 520 0
DWIDTH 26 0
BBX 20 38 2 -1
BITMAP
060180
0F83C0
0F87E0
1F87E0
0F87E0
0703C0
000000
000000
000000
000000
01F800
1FFF00
1FFFC0
1FFFE0
1F0FE0
0003F0
0001F0
0001F0
0000F0
0000F0
0000F0
00FCF0
0FFFF0
1FFFF0
3FFFF0
7F00F0
7C00F0
F800F0
F800F0
F800F0
F800F0
F800F0
7C00F0
7F83F0
3FFFF0
1FFFF0
0FFFF0
002000
ENDCHAR
STARTCHAR 00E5
ENCODING 229
SWIDTH 520 0
DWIDTH 26 0
BBX 20 40 2 -1
BITMAP
007800
01FE00
01EF00
038700
038300
038300
038700
01C700
01FE00
00FC00
000000
000000
01F800
1FFF00
1FFFC0
1FFFE0
1F0FE0
0003F0
0001F0
0001F0
0000F0
0000F0
0000F0
00FCF0
0FFFF0
1FFFF0
3FFFF0
7F00F0
7C00F0
F800F0
F800F0
F800F0
F800F0
F800F0
7C00F0
7F83F0
3FFFF0
1FFFF0
0FFFF0
002000
ENDCHAR
STARTCHAR 00E6
ENCODING 230
SWIDTH 840 0
DWIDTH 42 0
BBX 38 28 2 -1
BITMAP
01F0003C00
1FFF01FF80
1FFF87FFC0
1FFFCFFFE0
1F0FFFC7F0
0003FF01F8
0001FE00F8
0001FC0078
0000F8007C
0000F8007C
0000F8007C
00FCFFFFFC
0FFFFFFFFC
1FFFFFFFFC
3FFFFFFFFC
7F00F00000
7C00F80000
F800F80000
F800F80000
F800F80000
F8007C0000
F8007E0000
7C00FF0010
7F87FFFFF0
3FFFFFFFF0
1FFFE7FFF0
0FFF83FFF0
0030001E00
ENDCHAR
STARTCHAR 00E7
ENCODING 231
SWIDTH 460 0
DWIDTH 23 0
BBX 19 36 3 -9
BITMAP
003C00
01FFE0
07FFE0
0FFFC0
1FF7C0
3F0000
7E0000
7C0000
F80000
F80000
F80000
F80000
F00000
F00000
F00000
F00000
F80000
F80000
F80000
F80000
7C0000
7E0000
3F0020
3FFFE0
1FFFE0
07FFE0
03FFE0
003C00
007800
007800
007E00
001E00
001E00
03FE00
03FE00
03FC00
ENDCHAR
STARTCHAR 00E8
ENCODING 232
SWIDTH 540 0
DWIDTH 27 0
BBX 22 40 3 -1
BITMAP
008000
018000
03C000
03E000
01F000
00F800
007C00
003C00
001C00
000800
000000
000000
003C00
03FF80
07FFC0
1FFFE0
1FC7F0
3F01F8
7C00F8
7C0078
F8007C
F8007C
F8007C
FFFFFC
FFFFFC
FFFFFC
FFFFFC
F00000
F80000
F80000
F80000
F80000
7C0000
7E0000
3F0010
3FFFF0
1FFFF0
07FFF0
01FFF0
003E00
ENDCHAR
STARTCHAR 00E9
ENCODING 233
SWIDTH 540 0
DWIDTH 27 0
BBX 22 40 3 -1
BITMAP
000200
000700
000F80
000F80
001F00
003E00
007C00
00F800
007000
002000
000000
000000
003C00
03FF80
07FFC0
1FFFE0
1FC7F0
3F01F8
7C00F8
7C0078
F8007C
F8007C
F8007C
FFFFFC
FFFFFC
FFFFFC
FFFFFC
F00000
F80000
F80000
F80000
F80000
7C0000
7E0000
3F0010
3FFFF0
1FFFF0
07FFF0
01FFF0
003E00
ENDCHAR
STARTCHAR 00EA
ENCODING 234
SWIDTH 540 0
DWIDTH 27 0
BBX 22 39 3 -1
BITMAP
003000
007800
00FC00
00FE00
01FF00
03CF80
0787C0
070180
020080
000000
000000
003C00
03FF80
07FFC0
1FFFE0
1FC7F0
3F01F8
7C00F8
7C0078
F8007C
F8007C
F8007C
FFFFFC
FFFFFC
FFFFFC
FFFFFC
F00000
F80000
F80000
F80000
F80000
7C0000
7E0000
3F0010
3FFFF0
1FFFF0
07FFF0
01FFF0
003E00
ENDCHAR
STARTCHAR 00EB
ENCODING 235
SWIDTH 540 0
DWIDTH 27 0
BBX 22 38 3 -1
BITMAP
030180
0F83C0
0F87E0
0F87E0
0F87E0
0703C0
000000
000000
000000
000000
003C00
03FF80
07FFC0
1FFFE0
1FC7F0
3F01F8
7C00F8
7C0078
F8007C
F8007C
F8007C
FFFFFC
FFFFFC
FFFFFC
FFFFFC
F00000
F80000
F80000
F80000
F80000
7C0000
7E0000
3F0010
3FFFF0
1FFFF0
07FFF0
01FFF0
003E00
ENDCHAR
STARTCHAR 00EC
ENCODING 236
SWIDTH 240 0
DWIDTH 12 0
BBX 8 39 1 0
BITMAP
20
60
F0
F8
7C
3E
1F
0F
07
02
00
00
00
1F
1F
1F
1F
1F
1F
1F
1F
1F
1F
1F
1F
1F
1F
1F
1F
1F
1F
1F
1F
1F
1F
1F
1F
1F
1F
ENDCHAR
STARTCHAR 00ED
ENCODING 237
SWIDTH 240 0
DWIDTH 12 0
BBX 9 39 3 0
BITMAP
0200
0700
0F80
0F80
1F00
3E00
7C00
F800
7000
2000
0000
0000
0000
7C00
7C00
7C00
7C00
7C00
7C00
7C00
7C00
7C00
7C00
7C00
7C00
7C00
7C00
7C00
7C00
7C00
7C00
7C00
7C00
7C00
7C00
7C00
7C00
7C00
7C00
ENDCHAR
STARTCHAR 00EE
ENCODING 238
SWIDTH 240 0
DWIDTH 12 0
BBX 13 38 0 0
BITMAP
0600
0F00
0F80
1FC0
3FE0
79F0
F078
E030
4010
0000
0000
0000
0F80
0F80
0F80
0F80
0F80
0F80
0F80
0F80
0F80
0F80
0F80
0F80
0F80
0F80
0F80
0F80
0F80
0F80
0F80
0F80
0F80
0F80
0F80
0F80
0F80
0F80
ENDCHAR
STARTCHAR 00EF
ENCODING 239
SWIDTH 240 0
DWIDTH 12 0
BBX 15 37 -1 0
BITMAP
3018
F83C
F87E
FC7E
F87E
703C
0000
0000
0000
0000
0000
07C0
07C0
07C0
07C0
07C0
07C0
07C0
07C0
07C0
07C0
07C0
07C0
07C0
07C0
07C0
07C0
07C0
07C0
07C0
07C0
07C0
07C0
07C0
07C0
07C0
07C0
ENDCHAR
STARTCHAR 00F0
ENCODING 240
SWIDTH 580 0
DWIDTH 29 0
BBX 25 40 3 -1
BITMAP
00080000
001C0000
003E0000
003F0100
000F8F80
0007FF80
0003FF00
001FF800
007FF000
007EF800
0078F800
00007C00
00007C00
00003C00
00103E00
03FF3E00
0FFFFE00
1FFFFE00
3FFFFE00
7F00FF00
7C003F00
FC001F00
F8001F00
F8001F00
F0001F00
F0001F00
F0001E00
F0001E00
F0003E00
F8003E00
F8003E00
F8007C00
7C007C00
7E00FC00
3F01F800
3FEFF000
1FFFF000
0FFFC000
03FF8000
00380000
ENDCHAR
STARTCHAR 00F1
ENCODING 241
SWIDTH 560 0
DWIDTH 28 0
BBX 21 37 4 0
BITMAP
000080
07E1E0
0FFFC0
1FFFC0
1C7F80
181E00
000000
000000
000000
000000
00B000
7FFF00
FFFF80
FFFFE0
FFFFE0
F803F0
F801F0
F801F0
F800F8
F800F8
F800F8
F800F8
F800F8
F800F8
F800F8
F800F8
F800F8
F800F8
F800F8
F800F8
F800F8
F800F8
F800F8
F800F8
F800F8
F800F8
F800F8
ENDCHAR
STARTCHAR 00F2
ENCODING 242
SWIDTH 580 0
DWIDTH 29 0
BBX 24 40 3 -1
BITMAP
008000
01C000
03E000
03F000
01F000
00F800
007C00
003E00
001C00
000800
000000
000000
003800
03FF80
07FFE0
0FFFF0
1FEFF8
3F01FC
7E007C
7C007E
F8003E
F8003E
F8001F
F8001F
F0001F
F0001F
F0001F
F0001F
F8001F
F8001F
F8003E
F8003E
7C007E
7E007C
3F00FC
1FEFF8
0FFFF0
07FFE0
03FF80
003800
ENDCHAR
STARTCHAR 00F3
ENCODING 243
SWIDTH 580 0
DWIDTH 29 0
BBX 24 39 3 0
BITMAP
000300
000780
000F80
001F00
003E00
003C00
007800
007000
002000
000000
000000
003800
03FF80
07FFE0
0FFFF0
1FEFF8
3F01FC
7E007C
7C007E
F8003E
F8003E
F8001F
F8001F
F0001F
F0001F
F0001F
F0001F
F8001F
F8001F
F8003E
F8003E
7C007E
7E007C
3F00FC
1FEFF8
0FFFF0
07FFE0
03FF80
003800
ENDCHAR
STARTCHAR 00F4
ENCODING 244
SWIDTH 580 0
DWIDTH 29 0
BBX 24 39 3 -1
BITMAP
001800
003C00
007E00
00FF00
01FF00
03E780
07C3C0
0301C0
000080
000000
000000
003800
03FF80
07FFE0
0FFFF0
1FEFF8
3F01FC
7E007C
7C007E
F8003E
F8003E
F8001F
F8001F
F0001F
F0001F
F0001F
F0001F
F8001F
F8001F
F8003E
F8003E
7C007E
7E007C
3F00FC
1FEFF8
0FFFF0
07FFE0
03FF80
003800
ENDCHAR
STARTCHAR 00F5
ENCODING 245
SWIDTH 580 0
DWIDTH 29 0
BBX 24 38 3 -1
BITMAP
000040
03F070
07FFF0
0FFFE0
0E3FC0
0C0780
000000
000000
000000
000000
003800
03FF80
07FFE0
0FFFF0
1FEFF8
3F01FC
7E007C
7C007E
F8003E
F8003E
F8001F
F8001F
F0001F
F0001F
F0001F
F0001F
F8001F
F8001F
F8003E
F8003E
7C007E
7E007C
3F00FC
1FEFF8
0FFFF0
07FFE0
03FF80
003800
ENDCHAR
STARTCHAR 00F6
ENCODING 246
SWIDTH 580 0
DWIDTH 29 0
BBX 24 38 3 -1
BITMAP
0301C0
0783E0
0FC3E0
0FC3E0
0FC3E0
0781C0
000000
000000
000000
000000
003800
03FF80
07FFE0
0FFFF0
1FEFF8
3F01FC
7E007C
7C007E
F8003E
F8003E
F8001F
F8001F
F0001F
F0001F
F0001F
F0001F
F8001F
F8001F
F8003E
F8003E
7C007E
7E007C
3F00FC
1FEFF8
0FFFF0
07FFE0
03FF80
003800
ENDCHAR
STARTCHAR 00F7
ENCODING 247
SWIDTH 560 0
DWIDTH 28 0
BBX 23 26 3 2
BITMAP
003000
007C00
00FC00
00FC00
00FC00
007800
000000
000000
000000
000000
000000
FFFFFE
FFFFFE
FFFFFE
FFFFFE
000000
000000
000000
000000
000000
007800
00FC00
00FC00
00FC00
007C00
003000
ENDCHAR
STARTCHAR 00F8
ENCODING 248
SWIDTH 580 0
DWIDTH 29 0
BBX 24 29 3 -1
BITMAP
003C0E
03FF9F
07FFFE
0FFFFC
1FEFF8
3F00FC
7E01FC
7C01FE
F803FE
F807BE
F80F9F
F80F1F
F01E1F
F03C1F
F0781F
F0F81F
F8F01F
F9E01F
FBC03E
FFC03E
7F803E
7F007C
3F00FC
3FE7F8
3FFFF0
7FFFE0
F3FF80
603800
200000
ENDCHAR
STARTCHAR 00F9
ENCODING 249
SWIDTH 560 0
DWIDTH 28 0
BBX 21 39 4 0
BITMAP
030000
078000
07C000
03E000
01F000
00F000
007800
003800
001000
000000
000000
000000
F000F8
F000F8
F000F8
F000F8
F000F8
F000F8
F000F8
F000F8
F000F8
F000F8
F000F8
F000F8
F000F8
F000F8
F000F8
F000F8
F800F8
F800F8
F800F8
F800F8
7C00F8
7E00F8
3FFFF8
3FFFF8
1FFFF8
07FFF0
002800
ENDCHAR
STARTCHAR 00FA
ENCODING 250
SWIDTH 560 0
DWIDTH 28 0
BBX 21 40 4 -1
BITMAP
000400
000E00
001F00
003F00
003E00
007C00
00F800
01F000
01E000
004000
000000
000000
000000
F000F8
F000F8
F000F8
F000F8
F000F8
F000F8
F000F8
F000F8
F000F8
F000F8
F000F8
F000F8
F000F8
F000F8
F000F8
F000F8
F800F8
F800F8
F800F8
F800F8
7C00F8
7E00F8
3FFFF8
3FFFF8
1FFFF8
07FFF0
002800
ENDCHAR
STARTCHAR 00FB
ENCODING 251
SWIDTH 560 0
DWIDTH 28 0
BBX 21 39 4 -1
BITMAP
006000
00F000
01F800
03FC00
07FE00
079F00
0F0F80
0E0700
040000
000000
000000
000000
F000F8
F000F8
F000F8
F000F8
F000F8
F000F8
F000F8
F000F8
F000F8
F000F8
F000F8
F000F8
F000F8
F000F8
F000F8
F000F8
F800F8
F800F8
F800F8
F800F8
7C00F8
7E00F8
3FFFF8
3FFFF8
1FFFF8
07FFF0
002800
ENDCHAR
STARTCHAR 00FC
ENCODING 252
SWIDTH 560 0
DWIDTH 28 0
BBX 21 38 4 -1
BITMAP
0E0300
1F0780
1F0FC0
1F0FC0
1F0FC0
0E0780
000000
000000
000000
000000
000000
F000F8
F000F8
F000F8
F000F8
F000F8
F000F8
F000F8
F000F8
F000F8
F000F8
F000F8
F000F8
F000F8
F000F8
F000F8
F000F8
F800F8
F800F8
F800F8
F800F8
7C00F8
7E00F8
3FFFF8
3FFFF8
1FFFF8
07FFF0
002800
ENDCHAR
STARTCHAR 00FD
ENCODING 253
SWIDTH 480 0
DWIDTH 24 0
BBX 24 47 0 -8
BITMAP
000180
0003C0
0007E0
0007C0
000F80
001F00
003E00
003C00
001800
000000
000000
000000
7C001F
7C001F
7C001E
3E003E
3E003E
3E003E
1F003C
1F007C
1F007C
0F8078
0F8078
0F80F8
07C0F0
07C0F0
03C1F0
03E1E0
03E1E0
01F3E0
01F3C0
00F3C0
00FFC0
007F80
007F80
003F80
003F00
001F00
001E00
001E00
003C00
007C00
00F800
7FF800
7FF000
FFE000
FF8000
ENDCHAR
STARTCHAR 00FE
ENCODING 254
SWIDTH 580 0
DWIDTH 29 0
BBX 23 48 4 -9
BITMAP
180000
F80000
F80000
F80000
F80000
F80000
F80000
F80000
F80000
F80000
F80000
F80000
F82000
FFFF00
FFFF80
FFFFE0
FFFFF0
F803F8
F801F8
F800FC
F8007C
F8007C
F8003E
F8003E
F8003E
F8003E
F8003E
F8003E
F8003E
F8003E
F8007C
F8007C
F8007C
F800F8
FC03F8
FFFFF0
FFFFE0
FFFFC0
FBFF00
F83000
F80000
F80000
F80000
F80000
F80000
F80000
F80000
F80000
ENDCHAR
STARTCHAR 00FF
ENCODING 255
SWIDTH 480 0
DWIDTH 24 0
BBX 24 46 0 -9
BITMAP
018060
03E1F0
07E1F8
07E1F8
03E1F0
03C0F0
000000
000000
000000
000000
000000
7C001F
7C001F
7C001E
3E003E
3E003E
3E003E
1F003C
1F007C
1F007C
0F8078
0F8078
0F80F8
07C0F0
07C0F0
03C1F0
03E1E0
03E1E0
01F3E0
01F3C0
00F3C0
00FFC0
007F80
007F80
003F80
003F00
001F00
001E00
001E00
003C00
007C00
00F800
7FF800
7FF000
FFE000
FF8000
ENDCHAR
STARTCHAR 0100
ENCODING 256
SWIDTH 660 0
DWIDTH 33 0
BBX 32 43 1 0
BITMAP
00FFFE00
00FFFE00
00FFFE00
00000000
00000000
00000000
00000000
00000000
0007C000
0007C000
000FE000
000FE000
001FF000
001FF000
003EF800
003EF800
003C7800
007C7C00
00787C00
00F83E00
00F83E00
00F01F00
01F01F00
01E01F00
03E00F80
03E00F80
03C007C0
07C007C0
07C007C0
0F8003E0
0FFFFFE0
0FFFFFF0
1FFFFFF0
1FFFFFF0
1E0001F8
3E0000F8
3E0000F8
7C0000FC
7C00007C
7C00007C
F800007E
F800003E
F800003F
ENDCHAR
STARTCHAR 0101
ENCODING 257
SWIDTH 520 0
DWIDTH 26 0
BBX 20 37 2 -1
BITMAP
0FFFC0
0FFFC0
0FFFC0
0FFFC0
000000
000000
000000
000000
000000
01F800
1FFF00
1FFFC0
1FFFE0
1F0FE0
0003F0
0001F0
0001F0
0000F0
0000F0
0000F0
00FCF0
0FFFF0
1FFFF0
3FFFF0
7F00F0
7C00F0
F800F0
F800F0
F800F0
F800F0
F800F0
7C00F0
7F83F0
3FFFF0
1FFFF0
0FFFF0
002000
ENDCHAR
STARTCHAR 0102
ENCODING 258
SWIDTH 660 0
DWIDTH 33 0
BBX 32 45 1 0
BITMAP
00701C00
00701C00
00783C00
003FF800
003FF800
000FF000
00038000
00000000
00000000
00000000
0007C000
0007C000
000FE000
000FE000
001FF000
001FF000
003EF800
003EF800
003C7800
007C7C00
00787C00
00F83E00
00F83E00
00F01F00
01F01F00
01E01F00
03E00F80
03E00F80
03C007C0
07C007C0
07C007C0
0F8003E0
0FFFFFE0
0FFFFFF0
1FFFFFF0
1FFFFFF0
1E0001F8
3E0000F8
3E0000F8
7C0000FC
7C00007C
7C00007C
F800007E
F800003E
F800003F
ENDCHAR
STARTCHAR 0103
ENCODING 259
SWIDTH 520 0
DWIDTH 26 0
BBX 20 38 2 -1
BITMAP
0701C0
0703C0
078780
07FF80
03FF00
01FE00
003000
000000
000000
000000
01F800
1FFF00
1FFFC0
1FFFE0
1F0FE0
0003F0
0001F0
0001F0
0000F0
0000F0
0000F0
00FCF0
0FFFF0
1FFFF0
3FFFF0
7F00F0
7C00F0
F800F0
F800F0
F800F0
F800F0
F800F0
7C00F0
7F83F0
3FFFF0
1FFFF0
0FFFF0
002000
ENDCHAR
STARTCHAR 0104
ENCODING 260
SWIDTH 660 0
DWIDTH 33 0
BBX 32 44 1 -9
BITMAP
0007C000
0007C000
000FE000
000FE000
001FF000
001FF000
003EF800
003EF800
003C7800
007C7C00
00787C00
00F83E00
00F83E00
00F01F00
01F01F00
01E01F00
03E00F80
03E00F80
03C007C0
07C007C0
07C007C0
0F8003E0
0FFFFFE0
0FFFFFE0
1FFFFFF0
1FFFFFF0
1E0001F8
3E0000F8
3E0000F8
7C0000FC
7C00007C
7C00007C
F800003E
F800003E
F800003F
0000003E
00000078
000000F8
000000F0
000001F0
000001F0
000001FF
000000FF
0000007F
ENDCHAR
STARTCHAR 0105
ENCODING 261
SWIDTH 520 0
DWIDTH 26 0
BBX 20 36 2 -9
BITMAP
01F800
1FFF00
1FFFC0
1FFFE0
1F0FE0
0003F0
0001F0
0001F0
0000F0
0000F0
0000F0
00FCF0
0FFFF0
1FFFF0
3FFFF0
7F00F0
7C00F0
F800F0
F800F0
F800F0
F800F0
F800F0
7C00F0
7F83F0
3FFFF0
1FFFF0
0FFFF0
0021E0
0003C0
000780
000F00
000F00
000F00
000FF0
000FF0
0007F0
ENDCHAR
STARTCHAR 0106
ENCODING 262
SWIDTH 620 0
DWIDTH 31 0
BBX 27 48 3 -1
BITMAP
00002000
00007000
00007800
0000F800
0001F000
0003E000
0007C000
000F8000
000F0000
00020000
00000000
00000000
001FFE00
00FFFFC0
01FFFFC0
03FFFFC0
07F807C0
0FE00080
1F800000
3F000000
3F000000
7E000000
7C000000
7C000000
FC000000
F8000000
F8000000
F8000000
F8000000
F8000000
F8000000
F8000000
F8000000
F8000000
FC000000
7C000000
7C000000
7E000000
7E000000
3F000000
3F800000
1FC00000
0FF001C0
07FFFFC0
03FFFFC0
01FFFFE0
007FFF80
0007F000
ENDCHAR
STARTCHAR 0107
ENCODING 263
SWIDTH 460 0
DWIDTH 23 0
BBX 19 40 3 -1
BITMAP
000200
000700
000F80
000F80
001F00
003E00
007C00
00F800
007000
002000
000000
000000
003C00
01FFE0
07FFE0
0FFFC0
1FF7C0
3F0000
7E0000
7C0000
F80000
F80000
F80000
F80000
F00000
F00000
F00000
F00000
F80000
F80000
F80000
F80000
7C0000
7E0000
3F0020
1FFFE0
1FFFE0
07FFE0
01FFE0
001C00
ENDCHAR
STARTCHAR 0108
ENCODING 264
SWIDTH 620 0
DWIDTH 31 0
BBX 27 47 3 -1
BITMAP
00010000
00038000
0007C000
000FE000
001FF000
003CF800
00787C00
00703C00
00200800
00000000
00000000
001FFE00
00FFFFC0
01FFFFC0
03FFFFC0
07F807C0
0FE00080
1F800000
3F000000
3F000000
7E000000
7C000000
7C000000
FC000000
F8000000
F8000000
F8000000
F8000000
F8000000
F8000000
F8000000
F8000000
F8000000
FC000000
7C000000
7C000000
7E000000
7E000000
3F000000
3F800000
1FC00000
0FF001C0
07FFFFC0
03FFFFC0
01FFFFE0
007FFF80
0007F000
ENDCHAR
STARTCHAR 0109
ENCODING 265
SWIDTH 460 0
DWIDTH 23 0
BBX 19 39 3 -1
BITMAP
003000
007800
007C00
00FE00
01FF00
03CF80
0783C0
070180
020080
000000
000000
003C00
01FFE0
07FFE0
0FFFC0
1FF7C0
3F0000
7E0000
7C0000
F80000
F80000
F80000
F80000
F00000
F00000
F00000
F00000
F80000
F80000
F80000
F80000
7C0000
7E0000
3F0020
1FFFE0
1FFFE0
07FFE0
01FFE0
001C00
ENDCHAR
STARTCHAR 010A
ENCODING 266
SWIDTH 620 0
DWIDTH 31 0
BBX 27 46 3 -1
BITMAP
00010000
0007C000
000FC000
000FC000
000FC000
0007C000
00010000
00000000
00000000
00000000
001FFE00
00FFFFC0
01FFFFC0
03FFFFC0
07F807C0
0FE00080
1F800000
3F000000
3F000000
7E000000
7C000000
7C000000
FC000000
F8000000
F8000000
F8000000
F8000000
F8000000
F8000000
F8000000
F8000000
F8000000
FC000000
7C000000
7C000000
7E000000
7E000000
3F000000
3F800000
1FC00000
0FF001C0
07FFFFC0
03FFFFC0
01FFFFE0
007FFF80
0007F000
ENDCHAR
STARTCHAR 010B
ENCODING 267
SWIDTH 460 0
DWIDTH 23 0
BBX 19 38 3 -1
BITMAP
003800
007C00
00FC00
00FC00
007C00
007800
000000
000000
000000
000000
003C00
01FFE0
07FFE0
0FFFC0
1FF7C0
3F0000
7E0000
7C0000
F80000
F80000
F80000
F80000
F00000
F00000
F00000
F00000
F80000
F80000
F80000
F80000
7C0000
7E0000
3F0020
1FFFE0
1FFFE0
07FFE0
01FFE0
001C00
ENDCHAR
STARTCHAR 010C
ENCODING 268
SWIDTH 620 0
DWIDTH 31 0
BBX 27 47 3 -1
BITMAP
00301800
00783C00
007C7800
003EF800
001FF000
000FE000
0007C000
00038000
00010000
00000000
00000000
001FFE00
00FFFFC0
01FFFFC0
03FFFFC0
07F807C0
0FE00080
1F800000
3F000000
3F000000
7E000000
7C000000
7C000000
FC000000
F8000000
F8000000
F8000000
F8000000
F8000000
F8000000
F8000000
F8000000
F8000000
FC000000
7C000000
7C000000
7E000000
7E000000
3F000000
3F800000
1FC00000
0FF001C0
07FFFFC0
03FFFFC0
01FFFFE0
007FFF80
0007F000
ENDCHAR
STARTCHAR 010D
ENCODING 269
SWIDTH 460 0
DWIDTH 23 0
BBX 19 40 3 -1
BITMAP
020000
070180
0783C0
07C780
03EF00
01FE00
00FC00
007800
003800
001000
000000
000000
003C00
01FFE0
07FFE0
0FFFC0
1FF7C0
3F0000
7E0000
7C0000
F80000
F80000
F80000
F80000
F00000
F00000
F00000
F00000
F80000
F80000
F80000
F80000
7C0000
7E0000
3F0020
1FFFE0
1FFFE0
07FFE0
01FFE0
001C00
ENDCHAR
STARTCHAR 010E
ENCODING 270
SWIDTH 700 0
DWIDTH 35 0
BBX 29 46 4 0
BITMAP
0180C000
03C1E000
03E3E000
01F7C000
00FF8000
007F0000
003E0000
001C0000
00080000
00000000
00000000
3FFE0000
FFFFE000
FFFFF800
FFFFFC00
F807FF00
F8007F80
F8001F80
F8000FC0
F80007E0
F80003E0
F80003F0
F80001F0
F80001F0
F80001F0
F80001F8
F80001F8
F80000F8
F80000F8
F80000F8
F80001F8
F80001F8
F80001F0
F80001F0
F80001F0
F80003F0
F80003E0
F80007E0
F8000FC0
F8001FC0
F8003F80
F801FF00
FFFFFE00
FFFFF800
FFFFE000
7FFF0000
ENDCHAR
STARTCHAR 010F
ENCODING 271
SWIDTH 620 0
DWIDTH 31 0
BBX 30 40 3 -1
BITMAP
0000043C
00003C3C
00003C3C
00003C3C
00003C3C
00003C3C
00003C3C
00003C3C
00003C38
00003C38
00003C38
00003C00
00383C00
03FFBC00
0FFFFC00
1FFFFC00
3FFFFC00
3F00FC00
7E003C00
7C003C00
F8003C00
F8003C00
F8003C00
F8003C00
F0003C00
F0003C00
F0003C00
F0003C00
F8003C00
F8003C00
F8003C00
FC003C00
7C003C00
7E003C00
3F803C00
1FFFFC00
0FFFFC00
07FFFC00
01FFFC00
001C0000
ENDCHAR
STARTCHAR 0110
ENCODING 272
SWIDTH 720 0
DWIDTH 36 0
BBX 32 35 1 0
BITMAP
03FFE000
0FFFFC00
0FFFFF00
0FFFFFC0
0F807FE0
0F800FF0
0F8003F8
0F8000FC
0F8000FC
0F80007E
0F80003E
0F80003F
0F80001F
0F80001F
0F80001F
FFFE001F
FFFE001F
FFFE001F
FFFE001F
0F80001F
0F80001F
0F80001F
0F80001F
0F80003F
0F80003E
0F80007E
0F80007E
0F8000FC
0F8001F8
0F8007F8
0F803FF0
0FFFFFC0
0FFFFF80
0FFFFE00
0FFFF000
ENDCHAR
STARTCHAR 0111
ENCODING 273
SWIDTH 580 0
DWIDTH 29 0
BBX 26 40 3 -1
BITMAP
00000400
00003C00
00003C00
00003C00
00003C00
007FFFC0
007FFFC0
007FFFC0
00003C00
00003C00
00003C00
00003C00
00003C00
03FF3C00
07FFFC00
1FFFFC00
3FFFFC00
3F00FC00
7E007C00
7C003C00
F8003C00
F8003C00
F8003C00
F8003C00
F0003C00
F0003C00
F0003C00
F0003C00
F8003C00
F8003C00
F8003C00
FC003C00
7C003C00
7E003C00
3F803C00
1FFFFC00
0FFFFC00
07FFFC00
01FFFC00
003C0000
ENDCHAR
STARTCHAR 0112
ENCODING 274
SWIDTH 560 0
DWIDTH 28 0
BBX 23 43 4 0
BITMAP
0FFFC0
0FFFC0
0FFFC0
000000
000000
000000
000000
000000
FFFFF8
FFFFF8
FFFFF8
FFFFF8
FFFFF8
F80000
F80000
F80000
F80000
F80000
F80000
F80000
F80000
F80000
F80000
FFFFF0
FFFFF0
FFFFF0
FFFFF0
F80000
F80000
F80000
F80000
F80000
F80000
F80000
F80000
F80000
F80000
F80000
F80000
FFFFFE
FFFFFE
FFFFFE
FFFFFE
ENDCHAR
STARTCHAR 0113
ENCODING 275
SWIDTH 540 0
DWIDTH 27 0
BBX 22 37 3 -1
BITMAP
0FFFC0
0FFFC0
0FFFC0
0FFFC0
000000
000000
000000
000000
000000
003C00
03FF80
07FFC0
1FFFE0
1FC7F0
3F01F8
7C00F8
7C0078
F8007C
F8007C
F8007C
FFFFFC
FFFFFC
FFFFFC
FFFFFC
F00000
F80000
F80000
F80000
F80000
7C0000
7E0000
3F0010
3FFFF0
1FFFF0
07FFF0
01FFF0
003E00
ENDCHAR
STARTCHAR 0114
ENCODING 276
SWIDTH 560 0
DWIDTH 28 0
BBX 23 45 4 0
BITMAP
0E0380
0E0380
0F0780
07FF00
07FF00
03FC00
007000
000000
000000
000000
FFFFF8
FFFFF8
FFFFF8
FFFFF8
FFFFF8
F80000
F80000
F80000
F80000
F80000
F80000
F80000
F80000
F80000
F80000
FFFFF0
FFFFF0
FFFFF0
FFFFF0
F80000
F80000
F80000
F80000
F80000
F80000
F80000
F80000
F80000
F80000
F80000
F80000
FFFFFE
FFFFFE
FFFFFE
FFFFFE
ENDCHAR
STARTCHAR 0115
ENCODING 277
SWIDTH 540 0
DWIDTH 27 0
BBX 22 38 3 -1
BITMAP
0F01C0
0703C0
078780
07FF80
03FF00
01FE00
002000
000000
000000
000000
003C00
03FF80
07FFC0
1FFFE0
1FC7F0
3F01F8
7C00F8
7C0078
F8007C
F8007C
F8007C
FFFFFC
FFFFFC
FFFFFC
FFFFFC
F00000
F80000
F80000
F80000
F80000
7C0000
7E0000
3F0010
3FFFF0
1FFFF0
07FFF0
01FFF0
003E00
ENDCHAR
STARTCHAR 0116
ENCODING 278
SWIDTH 560 0
DWIDTH 28 0
BBX 23 45 4 0
BITMAP
002000
00F800
00FC00
00FC00
00FC00
007800
002000
000000
000000
000000
FFFFF8
FFFFF8
FFFFF8
FFFFF8
FFFFF8
F80000
F80000
F80000
F80000
F80000
F80000
F80000
F80000
F80000
F80000
FFFFF0
FFFFF0
FFFFF0
FFFFF0
F80000
F80000
F80000
F80000
F80000
F80000
F80000
F80000
F80000
F80000
F80000
F80000
FFFFFE
FFFFFE
FFFFFE
FFFFFE
ENDCHAR
STARTCHAR 0117
ENCODING 279
SWIDTH 540 0
DWIDTH 27 0
BBX 22 38 3 -1
BITMAP
003800
007C00
00FC00
00FC00
007C00
007800
000000
000000
000000
000000
003C00
03FF80
07FFC0
1FFFE0
1FC7F0
3F01F8
7C00F8
7C0078
F8007C
F8007C
F8007C
FFFFFC
FFFFFC
FFFFFC
FFFFFC
F00000
F80000
F80000
F80000
F80000
7C0000
7E0000
3F0010
3FFFF0
1FFFF0
07FFF0
01FFF0
003E00
ENDCHAR
STARTCHAR 0118
ENCODING 280
SWIDTH 560 0
DWIDTH 28 0
BBX 23 44 4 -9
BITMAP
FFFFF8
FFFFF8
FFFFF8
FFFFF8
FFFFF8
F80000
F80000
F80000
F80000
F80000
F80000
F80000
F80000
F80000
F80000
FFFFF0
FFFFF0
FFFFF0
FFFFF0
F80000
F80000
F80000
F80000
F80000
F80000
F80000
F80000
F80000
F80000
F80000
F80000
FFFFFE
FFFFFE
FFFFFE
FFFFFE
00007C
0000F0
0001F0
0001E0
0003E0
0003E0
0003FE
0001FE
0000FE
ENDCHAR
STARTCHAR 0119
ENCODING 281
SWIDTH 540 0
DWIDTH 27 0
BBX 22 36 3 -9
BITMAP
003C00
03FF80
07FFC0
1FFFE0
1FC7F0
3F01F8
7C00F8
7C0078
F8007C
F8007C
F8007C
FFFFFC
FFFFFC
FFFFFC
FFFFFC
F00000
F80000
F80000
F80000
F80000
7C0000
7E0000
3F0010
3FFFF0
1FFFF0
07FFF0
01FFF0
003FE0
0007C0
000F80
000F00
001F00
001F00
001FF0
000FF0
0007F0
ENDCHAR
STARTCHAR 011A
ENCODING 282
SWIDTH 560 0
DWIDTH 28 0
BBX 23 46 4 0
BITMAP
060300
0F0780
0F8F00
07DF00
03FE00
01FC00
00F800
007000
002000
000000
000000
FFFFF8
FFFFF8
FFFFF8
FFFFF8
FFFFF8
F80000
F80000
F80000
F80000
F80000
F80000
F80000
F80000
F80000
F80000
FFFFF0
FFFFF0
FFFFF0
FFFFF0
F80000
F80000
F80000
F80000
F80000
F80000
F80000
F80000
F80000
F80000
F80000
F80000
FFFFFE
FFFFFE
FFFFFE
FFFFFE
ENDCHAR
STARTCHAR 011B
ENCODING 283
SWIDTH 540 0
DWIDTH 27 0
BBX 22 40 3 -1
BITMAP
020000
070180
0783C0
07C780
03EF00
01FE00
00FC00
007800
003000
001000
000000
000000
003C00
03FF80
07FFC0
1FFFE0
1FC7F0
3F01F8
7C00F8
7C0078
F8007C
F8007C
F8007C
FFFFFC
FFFFFC
FFFFFC
FFFFFC
F00000
F80000
F80000
F80000
F80000
7C0000
7E0000
3F0010
3FFFF0
1FFFF0
07FFF0
01FFF0
003E00
ENDCHAR
STARTCHAR 011C
ENCODING 284
SWIDTH 660 0
DWIDTH 33 0
BBX 27 47 3 -1
BITMAP
00010000
00038000
0007C000
000FE000
001FF000
003E7800
007C3C00
00781C00
00300800
00000000
00000000
001FFF00
00FFFFC0
01FFFFE0
03FFFFE0
07F803C0
0FE00040
1F800000
3F000000
3F000000
7E000000
7C000000
7C000000
FC000000
F8000000
F8000000
F8000000
F8000000
F8000000
F80003E0
F80003E0
F80003E0
F80003E0
FC0003E0
7C0003E0
7C0003E0
7E0003E0
7E0003E0
3F0003E0
1F8003E0
1FC003E0
0FF003E0
07FFFFE0
03FFFFE0
01FFFFE0
003FFFC0
0003F000
ENDCHAR
STARTCHAR 011D
ENCODING 285
SWIDTH 560 0
DWIDTH 28 0
BBX 22 47 3 -9
BITMAP
001800
003C00
007E00
00FF00
01FF80
03E7C0
03C3E0
0381C0
010000
000000
000000
000800
01FFF8
07FFFC
0FFFFC
1FFFFC
3F007C
7E007C
7C007C
F8007C
F8007C
F8007C
F8007C
F0007C
F0007C
F0007C
F8007C
F8007C
F8007C
F8007C
7C007C
7E007C
3F81FC
3FFFFC
1FFFFC
07FFFC
01FE7C
00007C
00007C
00007C
0000F8
0000F8
2003F8
3FFFF0
7FFFE0
7FFFC0
3FFF00
ENDCHAR
STARTCHAR 011E
ENCODING 286
SWIDTH 660 0
DWIDTH 33 0
BBX 27 46 3 -1
BITMAP
00701C00
00781C00
00783C00
003FFC00
001FF800
000FF000
00018000
00000000
00000000
00000000
001FFF00
00FFFFC0
01FFFFE0
03FFFFE0
07F803C0
0FE00040
1F800000
3F000000
3F000000
7E000000
7C000000
7C000000
FC000000
F8000000
F8000000
F8000000
F8000000
F8000000
F80003E0
F80003E0
F80003E0
F80003E0
FC0003E0
7C0003E0
7C0003E0
7E0003E0
7E0003E0
3F0003E0
1F8003E0
1FC003E0
0FF003E0
07FFFFE0
03FFFFE0
01FFFFE0
003FFFC0
0003F000
ENDCHAR
STARTCHAR 011F
ENCODING 287
SWIDTH 560 0
DWIDTH 28 0
BBX 22 46 3 -9
BITMAP
0380E0
0381E0
03C3C0
03FFC0
01FF80
00FF00
001800
000000
000000
000000
000800
01FFF8
07FFFC
0FFFFC
1FFFFC
3F007C
7E007C
7C007C
F8007C
F8007C
F8007C
F8007C
F0007C
F0007C
F0007C
F8007C
F8007C
F8007C
F8007C
7C007C
7E007C
3F81FC
3FFFFC
1FFFFC
07FFFC
01FE7C
00007C
00007C
00007C
0000F8
0000F8
2003F8
3FFFF0
7FFFE0
7FFFC0
3FFF00
ENDCHAR
STARTCHAR 0120
ENCODING 288
SWIDTH 660 0
DWIDTH 33 0
BBX 27 46 3 -1
BITMAP
00018000
0007C000
0007E000
0007E000
0007E000
0007C000
00010000
00000000
00000000
00000000
001FFF00
00FFFFC0
01FFFFE0
03FFFFE0
07F803C0
0FE00040
1F800000
3F000000
3F000000
7E000000
7C000000
7C000000
FC000000
F8000000
F8000000
F8000000
F8000000
F8000000
F80003E0
F80003E0
F80003E0
F80003E0
FC0003E0
7C0003E0
7C0003E0
7E0003E0
7E0003E0
3F0003E0
1F8003E0
1FC003E0
0FF003E0
07FFFFE0
03FFFFE0
01FFFFE0
003FFFC0
0003F000
ENDCHAR
STARTCHAR 0121
ENCODING 289
SWIDTH 560 0
DWIDTH 28 0
BBX 22 46 3 -9
BITMAP
001C00
003E00
007E00
007E00
007E00
003C00
000000
000000
000000
000000
000800
01FFF8
07FFFC
0FFFFC
1FFFFC
3F007C
7E007C
7C007C
F8007C
F8007C
F8007C
F8007C
F0007C
F0007C
F0007C
F8007C
F8007C
F8007C
F8007C
7C007C
7E007C
3F81FC
3FFFFC
1FFFFC
07FFFC
01FE7C
00007C
00007C
00007C
0000F8
0000F8
2003F8
3FFFF0
7FFFE0
7FFFC0
3FFF00
ENDCHAR
STARTCHAR 0122
ENCODING 290
SWIDTH 660 0
DWIDTH 33 0
BBX 27 44 3 -9
BITMAP
001FFF00
00FFFFC0
01FFFFE0
03FFFFE0
07F803C0
0FE00040
1F800000
3F000000
3F000000
7E000000
7C000000
7C000000
FC000000
F8000000
F8000000
F8000000
F8000000
F8000000
F80003E0
F80003E0
F80003E0
F80003E0
FC0003E0
7C0003E0
7C0003E0
7E0003E0
7E0003E0
3F0003E0
1F8003E0
1FC003E0
0FF003E0
07FFFFE0
03FFFFE0
01FFFFE0
003FFFC0
0003F000
00000000
0003C000
0003C000
0003C000
0007C000
003FC000
003F8000
003F0000
ENDCHAR
STARTCHAR 0123
ENCODING 291
SWIDTH 560 0
DWIDTH 28 0
BBX 22 48 3 -9
BITMAP
000300
000F80
001F80
001F00
003E00
003E00
003C00
003C00
003C00
000000
000000
000000
000800
01FFF8
07FFFC
0FFFFC
1FFFFC
3F007C
7E007C
7C007C
F8007C
F8007C
F8007C
F8007C
F0007C
F0007C
F0007C
F8007C
F8007C
F8007C
F8007C
7C007C
7E007C
3F81FC
3FFFFC
1FFFFC
07FFFC
01FE7C
00007C
00007C
00007C
0000F8
0000F8
2003F8
3FFFF0
7FFFE0
7FFFC0
3FFF00
ENDCHAR
STARTCHAR 0124
ENCODING 292
SWIDTH 700 0
DWIDTH 35 0
BBX 27 46 4 0
BITMAP
00040000
000E0000
001F0000
003F8000
007FC000
00FBE000
01F0F000
01E07000
00802000
00000000
00000000
F80003E0
F80003E0
F80003E0
F80003E0
F80003E0
F80003E0
F80003E0
F80003E0
F80003E0
F80003E0
F80003E0
F80003E0
F80003E0
F80003E0
F80003E0
FFFFFFE0
FFFFFFE0
FFFFFFE0
FFFFFFE0
F80003E0
F80003E0
F80003E0
F80003E0
F80003E0
F80003E0
F80003E0
F80003E0
F80003E0
F80003E0
F80003E0
F80003E0
F80003E0
F80003E0
F80003E0
F80003E0
ENDCHAR
STARTCHAR 0125
ENCODING 293
SWIDTH 560 0
DWIDTH 28 0
BBX 22 48 3 0
BITMAP
060000
0F0000
3F8000
7FC000
F9F000
E0E000
402000
000000
000000
0C0000
7C0000
7C0000
7C0000
7C0000
7C0000
7C0000
7C0000
7C0000
7C0000
7C0000
7C0000
7C3800
7FFF80
7FFFC0
7FFFF0
7FFFF0
7C01F8
7C00F8
7C00F8
7C007C
7C007C
7C007C
7C007C
7C007C
7C007C
7C007C
7C007C
7C007C
7C007C
7C007C
7C007C
7C007C
7C007C
7C007C
7C007C
7C007C
7C007C
7C007C
ENDCHAR
STARTCHAR 0126
ENCODING 294
SWIDTH 720 0
DWIDTH 36 0
BBX 35 35 1 0
BITMAP
0F80003E00
0F80003E00
0F80003E00
0F80003E00
0F80003E00
FFFFFFFFE0
FFFFFFFFE0
FFFFFFFFE0
FFFFFFFFE0
0F80003E00
0F80003E00
0F80003E00
0F80003E00
0F80003E00
0F80003E00
0FFFFFFE00
0FFFFFFE00
0FFFFFFE00
0FFFFFFE00
0F80003E00
0F80003E00
0F80003E00
0F80003E00
0F80003E00
0F80003E00
0F80003E00
0F80003E00
0F80003E00
0F80003E00
0F80003E00
0F80003E00
0F80003E00
0F80003E00
0F80003E00
0F80003E00
ENDCHAR
STARTCHAR 0127
ENCODING 295
SWIDTH 560 0
DWIDTH 28 0
BBX 25 39 0 0
BITMAP
01800000
0F800000
0F800000
0F800000
0F800000
FFFFC000
FFFFC000
FFFFC000
0F800000
0F800000
0F800000
0F800000
0F800000
0FFFE000
0FFFF800
0FFFFC00
0FFFFE00
0F807F00
0F801F00
0F801F00
0F800F80
0F800F80
0F800F80
0F800F80
0F800F80
0F800F80
0F800F80
0F800F80
0F800F80
0F800F80
0F800F80
0F800F80
0F800F80
0F800F80
0F800F80
0F800F80
0F800F80
0F800F80
0F800F80
ENDCHAR
STARTCHAR 0128
ENCODING 296
SWIDTH 260 0
DWIDTH 13 0
BBX 16 44 -1 1
BITMAP
3F07
7FCF
FFFE
F3FC
E0F8
0000
0000
0000
0000
07C0
07C0
07C0
07C0
07C0
07C0
07C0
07C0
07C0
07C0
07C0
07C0
07C0
07C0
07C0
07C0
07C0
07C0
07C0
07C0
07C0
07C0
07C0
07C0
07C0
07C0
07C0
07C0
07C0
07C0
07C0
07C0
07C0
07C0
07C0
ENDCHAR
STARTCHAR 0129
ENCODING 297
SWIDTH 240 0
DWIDTH 12 0
BBX 17 37 -2 0
BITMAP
000200
1F8780
3FFF00
7FFF00
F1FE00
607800
000000
000000
000000
000000
000000
03E000
03E000
03E000
03E000
03E000
03E000
03E000
03E000
03E000
03E000
03E000
03E000
03E000
03E000
03E000
03E000
03E000
03E000
03E000
03E000
03E000
03E000
03E000
03E000
03E000
03E000
ENDCHAR
STARTCHAR 012A
ENCODING 298
SWIDTH 260 0
DWIDTH 13 0
BBX 14 43 0 0
BITMAP
FFFC
FFFC
FFFC
0000
0000
0000
0000
0000
0F80
0F80
0F80
0F80
0F80
0F80
0F80
0F80
0F80
0F80
0F80
0F80
0F80
0F80
0F80
0F80
0F80
0F80
0F80
0F80
0F80
0F80
0F80
0F80
0F80
0F80
0F80
0F80
0F80
0F80
0F80
0F80
0F80
0F80
0F80
ENDCHAR
STARTCHAR 012B
ENCODING 299
SWIDTH 240 0
DWIDTH 12 0
BBX 14 36 -1 0
BITMAP
FFFC
FFFC
FFFC
FFFC
0000
0000
0000
0000
0000
0000
07C0
07C0
07C0
07C0
07C0
07C0
07C0
07C0
07C0
07C0
07C0
07C0
07C0
07C0
07C0
07C0
07C0
07C0
07C0
07C0
07C0
07C0
07C0
07C0
07C0
07C0
ENDCHAR
STARTCHAR 012C
ENCODING 300
SWIDTH 260 0
DWIDTH 13 0
BBX 13 45 0 0
BITMAP
E038
F038
F078
7FF8
3FF0
1FE0
0300
0000
0000
0000
0F80
0F80
0F80
0F80
0F80
0F80
0F80
0F80
0F80
0F80
0F80
0F80
0F80
0F80
0F80
0F80
0F80
0F80
0F80
0F80
0F80
0F80
0F80
0F80
0F80
0F80
0F80
0F80
0F80
0F80
0F80
0F80
0F80
0F80
0F80
ENDCHAR
STARTCHAR 012D
ENCODING 301
SWIDTH 240 0
DWIDTH 12 0
BBX 13 37 0 0
BITMAP
E038
E078
F078
7FF0
7FE0
1FC0
0200
0000
0000
0000
0000
0F80
0F80
0F80
0F80
0F80
0F80
0F80
0F80
0F80
0F80
0F80
0F80
0F80
0F80
0F80
0F80
0F80
0F80
0F80
0F80
0F80
0F80
0F80
0F80
0F80
0F80
ENDCHAR
STARTCHAR 012E
ENCODING 302
SWIDTH 260 0
DWIDTH 13 0
BBX 9 44 1 -9
BITMAP
1F00
1F00
1F00
1F00
1F00
1F00
1F00
1F00
1F00
1F00
1F00
1F00
1F00
1F00
1F00
1F00
1F00
1F00
1F00
1F00
1F00
1F00
1F00
1F00
1F00
1F00
1F00
1F00
1F00
1F00
1F00
1F00
1F00
1F00
1F00
1E00
3C00
7800
F800
F000
F800
FF00
FF80
7F80
ENDCHAR
STARTCHAR 012F
ENCODING 303
SWIDTH 240 0
DWIDTH 12 0
BBX 9 46 0 -9
BITMAP
0700
0F80
1F80
1F80
0F80
0F00
0000
0000
0000
0000
0000
0F80
0F80
0F80
0F80
0F80
0F80
0F80
0F80
0F80
0F80
0F80
0F80
0F80
0F80
0F80
0F80
0F80
0F80
0F80
0F80
0F80
0F80
0F80
0F80
0F80
0F80
1F00
3E00
3C00
7800
7800
F800
7F80
7F80
3F80
ENDCHAR
STARTCHAR 0130
ENCODING 304
SWIDTH 260 0
DWIDTH 13 0
BBX 6 45 4 0
BITMAP
30
F8
FC
FC
FC
F8
20
00
00
00
F8
F8
F8
F8
F8
F8
F8
F8
F8
F8
F8
F8
F8
F8
F8
F8
F8
F8
F8
F8
F8
F8
F8
F8
F8
F8
F8
F8
F8
F8
F8
F8
F8
F8
F8
ENDCHAR
STARTCHAR 0131
ENCODING 305
SWIDTH 240 0
DWIDTH 12 0
BBX 5 26 4 0
BITMAP
F8
F8
F8
F8
F8
F8
F8
F8
F8
F8
F8
F8
F8
F8
F8
F8
F8
F8
F8
F8
F8
F8
F8
F8
F8
F8
ENDCHAR
STARTCHAR 0132
ENCODING 306
SWIDTH 760 0
DWIDTH 38 0
BBX 31 36 4 -1
BITMAP
F800003E
F800003E
F800003E
F800003E
F800003E
F800003E
F800003E
F800003E
F800003E
F800003E
F800003E
F800003E
F800003E
F800003E
F800003E
F800003E
F800003E
F800003E
F800003E
F800003E
F800003E
F800003E
F800003E
F800003E
F800003E
F800003E
F800007C
F800007C
F800007C
F80800FC
F81C01F8
F81FFFF8
F83FFFF0
F81FFFE0
F807FF80
0000FC00
ENDCHAR
STARTCHAR 0133
ENCODING 307
SWIDTH 500 0
DWIDTH 25 0
BBX 19 46 3 -9
BITMAP
380180
7C03E0
FC07E0
FC07E0
7C07E0
7803C0
000000
000000
000000
000000
000000
7C03E0
7C03E0
7C03E0
7C03E0
7C03E0
7C03E0
7C03E0
7C03E0
7C03E0
7C03E0
7C03E0
7C03E0
7C03E0
7C03E0
7C03E0
7C03E0
7C03E0
7C03E0
7C03E0
7C03E0
7C03E0
7C03E0
7C03E0
7C03E0
7C03E0
7C03E0
0003C0
0003C0
0007C0
0007C0
000FC0
01FF80
01FF80
01FF00
03FC00
ENDCHAR
STARTCHAR 0134
ENCODING 308
SWIDTH 500 0
DWIDTH 25 0
BBX 24 47 1 -1
BITMAP
000040
0000E0
0001F0
0003F8
0007FC
000FBE
001F1F
001C07
000802
000000
000000
0001F0
0001F0
0001F0
0001F0
0001F0
0001F0
0001F0
0001F0
0001F0
0001F0
0001F0
0001F0
0001F0
0001F0
0001F0
0001F0
0001F0
0001F0
0001F0
0001F0
0001F0
0001F0
0001F0
0001F0
0001F0
0001F0
0001F0
0001F0
0003E0
4003E0
700FE0
FFFFC0
FFFF80
FFFF00
3FFE00
03F000
ENDCHAR
STARTCHAR 0135
ENCODING 309
SWIDTH 240 0
DWIDTH 12 0
BBX 16 47 -3 -9
BITMAP
00C0
01E0
01F0
03F8
07FC
0F3E
1E0F
1C06
0802
0000
0000
0000
01F0
01F0
01F0
01F0
01F0
01F0
01F0
01F0
01F0
01F0
01F0
01F0
01F0
01F0
01F0
01F0
01F0
01F0
01F0
01F0
01F0
01F0
01F0
01F0
01F0
01F0
01F0
01F0
01E0
03E0
07E0
FFC0
FFC0
FF80
FE00
ENDCHAR
STARTCHAR 0136
ENCODING 310
SWIDTH 620 0
DWIDTH 31 0
BBX 27 44 4 -9
BITMAP
F8000FC0
F8001F80
F8003F00
F8007E00
F800FC00
F801F800
F803F000
F807E000
F80FC000
F81F8000
F83F0000
F87E0000
F8FC0000
F9F80000
FBF00000
FFE00000
FFC00000
FFF00000
FFF80000
F9FC0000
F8FE0000
F87F0000
F83F8000
F80FC000
F807E000
F803F000
F801F800
F800FC00
F800FE00
F8007E00
F8003F00
F8001F80
F8000FC0
F8000FC0
F80007E0
00000000
00000000
003E0000
003E0000
003E0000
003E0000
01FC0000
01FC0000
01F80000
ENDCHAR
STARTCHAR 0137
ENCODING 311
SWIDTH 520 0
DWIDTH 26 0
BBX 21 48 4 -9
BITMAP
180000
F80000
F80000
F80000
F80000
F80000
F80000
F80000
F80000
F80000
F80000
F80000
F80000
F801F0
F803E0
F807C0
F80F80
F81F00
F83E00
F87C00
F8F800
F9F800
FBF000
FFE000
FFC000
FFC000
FFF000
FBF800
F9F800
F8FC00
F87E00
F83F00
F81F80
F80FC0
F807C0
F803E0
F803F0
F801F0
F800F8
000000
000000
00F000
00F000
00F000
01F000
0FF000
0FE000
0FC000
ENDCHAR
STARTCHAR 0138
ENCODING 312
SWIDTH 520 0
DWIDTH 26 0
BBX 22 26 4 0
BITMAP
F801F8
F803F0
F807E0
F80FC0
F81F80
F83F00
F87E00
F8FC00
F9F800
FBF000
FFE000
FFC000
FFC000
FFF000
FBF800
F9FC00
F8FE00
F87F00
F83F80
F81F80
F80FC0
F807E0
F803F0
F801F8
F800F8
F800FC
ENDCHAR
STARTCHAR 0139
ENCODING 313
SWIDTH 500 0
DWIDTH 25 0
BBX 21 46 4 1
BITMAP
030000
078000
0FC000
0F8000
1F0000
3E0000
7C0000
780000
300000
000000
000000
F80000
F80000
F80000
F80000
F80000
F80000
F80000
F80000
F80000
F80000
F80000
F80000
F80000
F80000
F80000
F80000
F80000
F80000
F80000
F80000
F80000
F80000
F80000
F80000
F80000
F80000
F80000
F80000
F80000
F80000
F80000
FFFFF8
FFFFF8
FFFFF8
FFFFF8
ENDCHAR
STARTCHAR 013A
ENCODING 314
SWIDTH 260 0
DWIDTH 13 0
BBX 9 48 3 0
BITMAP
0300
0F80
3F80
FF00
F800
6000
0000
0000
0C00
7C00
7C00
7C00
7C00
7C00
7C00
7C00
7C00
7C00
7C00
7C00
7C00
7C00
7C00
7C00
7C00
7C00
7C00
7C00
7C00
7C00
7C00
7C00
7C00
7C00
7C00
7C00
7C00
7C00
7C00
7C00
7C00
7C00
7C00
7F80
3F80
1F80
0F80
0080
ENDCHAR
STARTCHAR 013B
ENCODING 315
SWIDTH 500 0
DWIDTH 25 0
BBX 21 44 4 -9
BITMAP
F80000
F80000
F80000
F80000
F80000
F80000
F80000
F80000
F80000
F80000
F80000
F80000
F80000
F80000
F80000
F80000
F80000
F80000
F80000
F80000
F80000
F80000
F80000
F80000
F80000
F80000
F80000
F80000
F80000
F80000
F80000
FFFFF8
FFFFF8
FFFFF8
FFFFF8
000000
000000
007800
007800
007800
00F800
07F800
07F000
07E000
ENDCHAR
STARTCHAR 013C
ENCODING 316
SWIDTH 260 0
DWIDTH 13 0
BBX 10 48 2 -9
BITMAP
0600
3E00
3E00
3E00
3E00
3E00
3E00
3E00
3E00
3E00
3E00
3E00
3E00
3E00
3E00
3E00
3E00
3E00
3E00
3E00
3E00
3E00
3E00
3E00
3E00
3E00
3E00
3E00
3E00
3E00
3E00
3E00
3E00
3E00
3E00
3FC0
1FC0
0FC0
07C0
0040
0000
1F00
1F00
1F00
1E00
FE00
FC00
F800
ENDCHAR
STARTCHAR 013D
ENCODING 317
SWIDTH 500 0
DWIDTH 25 0
BBX 21 35 4 0
BITMAP
F83C00
F83C00
F83C00
F83C00
F83C00
F83800
F83800
F83800
F83800
F83800
F83800
F80000
F80000
F80000
F80000
F80000
F80000
F80000
F80000
F80000
F80000
F80000
F80000
F80000
F80000
F80000
F80000
F80000
F80000
F80000
F80000
FFFFF8
FFFFF8
FFFFF8
FFFFF8
ENDCHAR
STARTCHAR 013E
ENCODING 318
SWIDTH 280 0
DWIDTH 14 0
BBX 12 40 4 -1
BITMAP
18F0
F8F0
F8F0
F8F0
F8F0
F8F0
F8F0
F8F0
F8F0
F8E0
F8E0
F800
F800
F800
F800
F800
F800
F800
F800
F800
F800
F800
F800
F800
F800
F800
F800
F800
F800
F800
F800
F800
F800
F800
F800
FF00
7F00
3F00
1F00
0100
ENDCHAR
STARTCHAR 013F
ENCODING 319
SWIDTH 500 0
DWIDTH 25 0
BBX 21 35 4 0
BITMAP
F80000
F80000
F80000
F80000
F80000
F80000
F80000
F80000
F80000
F80000
F80000
F80000
F80000
F80000
F803C0
F807C0
F807E0
F807E0
F807C0
F80380
F80000
F80000
F80000
F80000
F80000
F80000
F80000
F80000
F80000
F80000
F80000
FFFFF8
FFFFF8
FFFFF8
FFFFF8
ENDCHAR
STARTCHAR 0140
ENCODING 320
SWIDTH 360 0
DWIDTH 18 0
BBX 15 40 4 -1
BITMAP
1800
F800
F800
F800
F800
F800
F800
F800
F800
F800
F800
F800
F800
F800
F800
F800
F800
F800
F83C
F87C
F87E
F87E
F87C
F838
F800
F800
F800
F800
F800
F800
F800
F800
F800
F800
F800
FF00
7F00
3F00
1F00
0100
ENDCHAR
STARTCHAR 0141
ENCODING 321
SWIDTH 520 0
DWIDTH 26 0
BBX 26 35 0 0
BITMAP
07C00000
07C00000
07C00000
07C00000
07C00000
07C00000
07C00000
07C00000
07C00000
07C00000
07C00000
07C10000
07C78000
07DF8000
07FF8000
07FE0000
07F80000
1FE00000
7FC00000
FFC00000
7FC00000
77C00000
07C00000
07C00000
07C00000
07C00000
07C00000
07C00000
07C00000
07C00000
07C00000
07FFFFC0
07FFFFC0
07FFFFC0
07FFFFC0
ENDCHAR
STARTCHAR 0142
ENCODING 322
SWIDTH 280 0
DWIDTH 14 0
BBX 14 40 0 -1
BITMAP
0080
0780
0780
0780
0780
0780
0780
0780
0780
0780
0780
0780
0780
0780
0788
07BC
07FC
07F8
0FE0
3F80
FF80
7F80
7780
0780
0780
0780
0780
0780
0780
0780
0780
0780
0780
07C0
07C0
07F8
07F8
03F8
00F8
0008
ENDCHAR
STARTCHAR 0143
ENCODING 323
SWIDTH 720 0
DWIDTH 36 0
BBX 28 46 4 1
BITMAP
0000C000
0001E000
0001F000
0003E000
0007C000
000F8000
001F0000
001E0000
000C0000
00000000
00000000
F00001F0
F80001F0
FC0001F0
FE0001F0
FF0001F0
FF8001F0
FF8001F0
FFC001F0
FFE001F0
FBF001F0
F9F801F0
F8F801F0
F87C01F0
F83E01F0
F83F01F0
F81F01F0
F80F81F0
F80FC1F0
F807C1F0
F803E1F0
F801F1F0
F801F1F0
F800F9F0
F8007DF0
F8007DF0
F8003FF0
F8001FF0
F8001FF0
F8000FF0
F80007F0
F80007F0
F80003F0
F80001F0
F80001F0
F80000F0
ENDCHAR
STARTCHAR 0144
ENCODING 324
SWIDTH 560 0
DWIDTH 28 0
BBX 21 39 4 0
BITMAP
000400
000E00
000F00
001F00
003E00
007C00
00F800
01F000
00E000
004000
000000
000000
00B000
7FFF00
FFFF80
FFFFE0
FFFFE0
F803F0
F801F0
F801F0
F800F8
F800F8
F800F8
F800F8
F800F8
F800F8
F800F8
F800F8
F800F8
F800F8
F800F8
F800F8
F800F8
F800F8
F800F8
F800F8
F800F8
F800F8
F800F8
ENDCHAR
STARTCHAR 0145
ENCODING 325
SWIDTH 720 0
DWIDTH 36 0
BBX 28 44 4 -9
BITMAP
F00001F0
F80001F0
FC0001F0
FE0001F0
FF0001F0
FF8001F0
FF8001F0
FFC001F0
FFE001F0
FBF001F0
F9F801F0
F8F801F0
F87C01F0
F83E01F0
F83F01F0
F81F01F0
F80F81F0
F80FC1F0
F807C1F0
F803E1F0
F801F1F0
F801F1F0
F800F9F0
F8007DF0
F8007DF0
F8003FF0
F8001FF0
F8001FF0
F8000FF0
F80007F0
F80007F0
F80003F0
F80001F0
F80001F0
F80000F0
00000000
00000000
000F8000
000F8000
000F8000
000F0000
007F0000
007E0000
007C0000
ENDCHAR
STARTCHAR 0146
ENCODING 326
SWIDTH 560 0
DWIDTH 28 0
BBX 21 36 4 -9
BITMAP
00B000
7FFF00
FFFF80
FFFFE0
FFFFE0
F803F0
F801F0
F801F0
F800F8
F800F8
F800F8
F800F8
F800F8
F800F8
F800F8
F800F8
F800F8
F800F8
F800F8
F800F8
F800F8
F800F8
F800F8
F800F8
F800F8
F800F8
F800F8
000000
000000
00F800
00F800
00F800
00F800
07F000
07F000
07E000
ENDCHAR
STARTCHAR 0147
ENCODING 327
SWIDTH 720 0
DWIDTH 36 0
BBX 28 46 4 0
BITMAP
00C03000
00F07800
00F8F000
007DE000
003FC000
001F8000
000F0000
00070000
00020000
00000000
00000000
F00001F0
F80001F0
FC0001F0
FE0001F0
FF0001F0
FF8001F0
FF8001F0
FFC001F0
FFE001F0
FBF001F0
F9F801F0
F8F801F0
F87C01F0
F83E01F0
F83F01F0
F81F01F0
F80F81F0
F80FC1F0
F807C1F0
F803E1F0
F801F1F0
F801F1F0
F800F9F0
F8007DF0
F8007DF0
F8003FF0
F8001FF0
F8001FF0
F8000FF0
F80007F0
F80007F0
F80003F0
F80001F0
F80001F0
F80000F0
ENDCHAR
STARTCHAR 0148
ENCODING 328
SWIDTH 560 0
DWIDTH 28 0
BBX 21 39 4 0
BITMAP
040000
060300
0F0780
078F00
03DE00
01FE00
01FC00
00F800
007000
002000
000000
000000
00B000
7FFF00
FFFF80
FFFFE0
FFFFE0
F803F0
F801F0
F801F0
F800F8
F800F8
F800F8
F800F8
F800F8
F800F8
F800F8
F800F8
F800F8
F800F8
F800F8
F800F8
F800F8
F800F8
F800F8
F800F8
F800F8
F800F8
F800F8
ENDCHAR
STARTCHAR 0149
ENCODING 329
SWIDTH 560 0
DWIDTH 28 0
BBX 25 39 0 0
BITMAP
3E000000
3E000000
3E000000
3E000000
3C000000
3C000000
3C000000
78000000
78000000
F0000000
10000000
00000000
000B0000
07FFF000
0FFFF800
0FFFFE00
0FFFFE00
0F803F00
0F801F00
0F801F00
0F800F80
0F800F80
0F800F80
0F800F80
0F800F80
0F800F80
0F800F80
0F800F80
0F800F80
0F800F80
0F800F80
0F800F80
0F800F80
0F800F80
0F800F80
0F800F80
0F800F80
0F800F80
0F800F80
ENDCHAR
STARTCHAR 014A
ENCODING 330
SWIDTH 720 0
DWIDTH 36 0
BBX 28 44 4 -9
BITMAP
F00001F0
F80001F0
FC0001F0
FE0001F0
FF0001F0
FF8001F0
FF8001F0
FFC001F0
FBE001F0
FBF001F0
F9F801F0
F8F801F0
F87C01F0
F83E01F0
F83F01F0
F81F01F0
F80F81F0
F80FC1F0
F807C1F0
F803E1F0
F801F1F0
F801F1F0
F800F9F0
F8007DF0
F8007DF0
F8003FF0
F8001FF0
F8001FF0
F8000FF0
F80007F0
F80007F0
F80003F0
F80001F0
F80001F0
F80001F0
000001F0
000001F0
000001F0
000001F0
000001F0
00002FE0
00003FE0
00003FC0
00003F80
ENDCHAR
STARTCHAR 014B
ENCODING 331
SWIDTH 560 0
DWIDTH 28 0
BBX 21 36 4 -9
BITMAP
00B000
7FFF00
FFFF80
FFFFE0
FFFFE0
F803F0
F801F0
F801F0
F800F8
F800F8
F800F8
F800F8
F800F8
F800F8
F800F8
F800F8
F800F8
F800F8
F800F8
F800F8
F800F8
F800F8
F800F8
F800F8
F800F8
F800F8
F800F8
0000F8
0000F8
0000F8
0000F8
0001F8
0017F0
001FF0
001FE0
001FC0
ENDCHAR
STARTCHAR 014C
ENCODING 332
SWIDTH 760 0
DWIDTH 38 0
BBX 33 44 3 -1
BITMAP
007FFF0000
007FFF0000
007FFF0000
0000000000
0000000000
0000000000
0000000000
0000000000
001FFC0000
00FFFF8000
01FFFFC000
07FFFFE000
0FF00FF000
0FC003F800
1F8000FC00
3F00007E00
3E00007E00
7E00003F00
7C00001F00
7C00001F00
FC00001F00
F800001F80
F800000F80
F800000F80
F800000F80
F800000F80
F800000F80
F800000F80
F800000F80
F800001F80
FC00001F80
7C00001F00
7C00001F00
7E00003F00
3E00003E00
3F00007E00
1F8000FC00
1FC001FC00
0FF007F800
07FFFFF000
03FFFFE000
00FFFF8000
003FFE0000
0003E00000
ENDCHAR
STARTCHAR 014D
ENCODING 333
SWIDTH 580 0
DWIDTH 29 0
BBX 24 37 3 -1
BITMAP
07FFE0
07FFE0
07FFE0
07FFE0
000000
000000
000000
000000
000000
003800
03FF80
07FFE0
0FFFF0
1FEFF8
3F01FC
7E007C
7C007E
F8003E
F8003E
F8001F
F8001F
F0001F
F0001F
F0001F
F0001F
F8001F
F8001F
F8003E
F8003E
7C007E
7E007C
3F00FC
1FEFF8
0FFFF0
07FFE0
03FF80
003800
ENDCHAR
STARTCHAR 014E
ENCODING 334
SWIDTH 760 0
DWIDTH 38 0
BBX 33 46 3 -1
BITMAP
00380E0000
00380E0000
003C1E0000
001FFC0000
001FFC0000
000FF00000
0001C00000
0000000000
0000000000
0000000000
001FFC0000
00FFFF8000
01FFFFC000
07FFFFE000
0FF00FF000
0FC003F800
1F8000FC00
3F00007E00
3E00007E00
7E00003F00
7C00001F00
7C00001F00
FC00001F00
F800001F80
F800000F80
F800000F80
F800000F80
F800000F80
F800000F80
F800000F80
F800000F80
F800001F80
FC00001F80
7C00001F00
7C00001F00
7E00003F00
3E00003E00
3F00007E00
1F8000FC00
1FC001FC00
0FF007F800
07FFFFF000
03FFFFE000
00FFFF8000
003FFE0000
0003E00000
ENDCHAR
STARTCHAR 014F
ENCODING 335
SWIDTH 580 0
DWIDTH 29 0
BBX 24 38 3 -1
BITMAP
0701C0
0781C0
03C3C0
03FF80
01FF80
00FE00
001000
000000
000000
000000
003800
03FF80
07FFE0
0FFFF0
1FEFF8
3F01FC
7E007C
7C007E
F8003E
F8003E
F8001F
F8001F
F0001F
F0001F
F0001F
F0001F
F8001F
F8001F
F8003E
F8003E
7C007E
7E007C
3F00FC
1FEFF8
0FFFF0
07FFE0
03FF80
003800
ENDCHAR
STARTCHAR 0150
ENCODING 336
SWIDTH 760 0
DWIDTH 38 0
BBX 33 47 3 0
BITMAP
0001818000
0003C1C000
0003C3E000
0007C7C000
000F8F8000
000F0F0000
001E1E0000
003C3C0000
0008080000
0000000000
0000000000
001FFC0000
00FFFF8000
01FFFFC000
07FFFFE000
0FF00FF000
0FC003F800
1F8000FC00
3F00007E00
3E00007E00
7E00003F00
7C00001F00
7C00001F00
FC00001F00
F800001F80
F800000F80
F800000F80
F800000F80
F800000F80
F800000F80
F800000F80
F800000F80
F800001F80
FC00001F80
7C00001F00
7C00001F00
7E00003F00
3E00003E00
3F00007E00
1F8000FC00
1FC001FC00
0FF007F800
07FFFFF000
03FFFFE000
00FFFF8000
003FFE0000
0003E00000
ENDCHAR
STARTCHAR 0151
ENCODING 337
SWIDTH 580 0
DWIDTH 29 0
BBX 24 40 3 -1
BITMAP
001010
003818
003C3C
007C7C
00F8F8
01F0F0
01E1E0
03C3C0
038380
010180
000000
000000
003800
03FF80
07FFE0
0FFFF0
1FEFF8
3F01FC
7E007C
7C007E
F8003E
F8003E
F8001F
F8001F
F0001F
F0001F
F0001F
F0001F
F8001F
F8001F
F8003E
F8003E
7C007E
7E007C
3F00FC
1FEFF8
0FFFF0
07FFE0
03FF80
003800
ENDCHAR
STARTCHAR 0152
ENCODING 338
SWIDTH 980 0
DWIDTH 49 0
BBX 45 35 3 0
BITMAP
0003FFFFFFF0
003FFFFFFFF0
00FFFFFFFFF0
03FFFFFFFFF0
07FE01F00000
0FF001F00000
1FC001F00000
1F8001F00000
3F0001F00000
3E0001F00000
7E0001F00000
7C0001F00000
FC0001F00000
FC0001F00000
F80001F00000
F80001FFFFC0
F80001FFFFC0
F80001FFFFC0
F80001FFFFC0
F80001F00000
F80001F00000
F80001F00000
FC0001F00000
7C0001F00000
7E0001F00000
7E0001F00000
3F0001F00000
3F8001F00000
1FC001F00000
0FE001F00000
07FC01F00000
03FFFFFFFFF8
01FFFFFFFFF8
007FFFFFFFF8
000FFFFFFFF8
ENDCHAR
STARTCHAR 0153
ENCODING 339
SWIDTH 940 0
DWIDTH 47 0
BBX 42 28 3 -1
BITMAP
003800038000
03FF803FF000
07FFC0FFFC00
0FFFF1FFFE00
1FEFF3F8FE00
3F01FBE03F00
7E007FC01F00
7C007F800F80
F8003F800F80
F8003F000780
F8001F000780
F8001FFFFFC0
F0001FFFFFC0
F0001FFFFFC0
F0001FFFFFC0
F0001F000000
F8001F000000
F8001F000000
F8003F000000
F8003F800000
7C007F800000
7E007FC00000
3F00FBF00000
1FEFF3FFFE00
0FFFF1FFFF00
07FFC0FFFF00
03FF803FFE00
00380001C000
ENDCHAR
STARTCHAR 0154
ENCODING 340
SWIDTH 620 0
DWIDTH 31 0
BBX 26 46 4 1
BITMAP
00060000
000F0000
001F8000
003F0000
007E0000
007C0000
00F80000
00E00000
00400000
00000000
00000000
3FFE0000
FFFFC000
FFFFF000
FFFFFC00
F807FC00
F800FE00
F8003F00
F8003F00
F8001F00
F8001F00
F8001F00
F8001F00
F8001F00
F8001F00
F8003F00
F8003E00
F800FE00
FFFFFC00
FFFFF800
FFFFE000
FFFF8000
F80FC000
F807E000
F803F000
F801F000
F801F800
F800FC00
F8007C00
F8007E00
F8003F00
F8001F00
F8001F80
F8000F80
F8000FC0
F80007C0
ENDCHAR
STARTCHAR 0155
ENCODING 341
SWIDTH 380 0
DWIDTH 19 0
BBX 15 39 4 0
BITMAP
0020
0070
0078
00F8
01F0
03E0
07C0
0F80
0700
0200
0000
0000
0060
3FFE
FFFE
FFFC
FFFC
F800
F800
F800
F800
F800
F800
F800
F800
F800
F800
F800
F800
F800
F800
F800
F800
F800
F800
F800
F800
F800
F800
ENDCHAR
STARTCHAR 0156
ENCODING 342
SWIDTH 620 0
DWIDTH 31 0
BBX 26 44 4 -9
BITMAP
3FFE0000
FFFFC000
FFFFF000
FFFFFC00
F807FC00
F800FE00
F8003F00
F8003F00
F8001F00
F8001F00
F8001F00
F8001F00
F8001F00
F8001F00
F8003F00
F8003E00
F800FE00
FFFFFC00
FFFFF800
FFFFE000
FFFF8000
F80FC000
F807E000
F803F000
F801F000
F801F800
F800FC00
F8007C00
F8007E00
F8003F00
F8001F00
F8001F80
F8000F80
F8000FC0
F80007C0
00000000
00000000
003E0000
003E0000
003E0000
003E0000
01FC0000
01FC0000
01F00000
ENDCHAR
STARTCHAR 0157
ENCODING 343
SWIDTH 380 0
DWIDTH 19 0
BBX 18 36 1 -9
BITMAP
000C00
07FFC0
1FFFC0
1FFF80
1FFF80
1F0000
1F0000
1F0000
1F0000
1F0000
1F0000
1F0000
1F0000
1F0000
1F0000
1F0000
1F0000
1F0000
1F0000
1F0000
1F0000
1F0000
1F0000
1F0000
1F0000
1F0000
1F0000
000000
000000
1F0000
1F0000
1F0000
1E0000
FE0000
FC0000
F80000
ENDCHAR
STARTCHAR 0158
ENCODING 344
SWIDTH 620 0
DWIDTH 31 0
BBX 26 46 4 0
BITMAP
06030000
0F078000
078F8000
03DF0000
03FE0000
01FC0000
00F80000
00700000
00200000
00000000
00000000
3FFE0000
FFFFC000
FFFFF000
FFFFFC00
F807FC00
F800FE00
F8003F00
F8003F00
F8001F00
F8001F00
F8001F00
F8001F00
F8001F00
F8001F00
F8003F00
F8003E00
F800FE00
FFFFFC00
FFFFF800
FFFFE000
FFFF8000
F80FC000
F807E000
F803F000
F801F000
F801F800
F800FC00
F8007C00
F8007E00
F8003F00
F8001F00
F8001F80
F8000F80
F8000FC0
F80007C0
ENDCHAR
STARTCHAR 0159
ENCODING 345
SWIDTH 380 0
DWIDTH 19 0
BBX 15 39 4 0
BITMAP
2000
3018
783C
3C78
1EF0
1FE0
0FE0
07C0
0380
0100
0000
0000
0060
3FFE
FFFE
FFFC
FFFC
F800
F800
F800
F800
F800
F800
F800
F800
F800
F800
F800
F800
F800
F800
F800
F800
F800
F800
F800
F800
F800
F800
ENDCHAR
STARTCHAR 015A
ENCODING 346
SWIDTH 520 0
DWIDTH 26 0
BBX 23 47 2 0
BITMAP
000300
000780
000FC0
001F80
001F00
003E00
007C00
007800
003000
000000
000000
03FFE0
0FFFF8
1FFFF8
3FFFF8
3F0078
7E0000
7C0000
7C0000
F80000
FC0000
FC0000
7C0000
7E0000
7F8000
3FE000
1FFC00
0FFF00
03FFC0
00FFE0
001FF8
0007F8
0001FC
0000FC
00007E
00003E
00003E
00003E
00003E
00003E
00007E
7000FC
FFDFF8
FFFFF8
FFFFE0
3FFFC0
01FC00
ENDCHAR
STARTCHAR 015B
ENCODING 347
SWIDTH 440 0
DWIDTH 22 0
BBX 18 40 2 -1
BITMAP
000800
001C00
003E00
003E00
007C00
00F800
01F000
03E000
01C000
008000
000000
000000
00F000
0FFF80
1FFF80
3FFF80
7F0F00
7C0000
F80000
F80000
F80000
7C0000
7E0000
7F8000
3FF000
1FFC00
07FF00
00FF80
003F80
000FC0
0007C0
0003C0
0003C0
0007C0
4007C0
783FC0
FFFF80
FFFF00
7FFC00
038000
ENDCHAR
STARTCHAR 015C
ENCODING 348
SWIDTH 520 0
DWIDTH 26 0
BBX 23 47 2 -1
BITMAP
001800
003800
007C00
00FE00
01FF00
03E780
07C3C0
0381C0
030080
000000
000000
03FFE0
0FFFF8
1FFFF8
3FFFF8
3F0078
7E0000
7C0000
7C0000
F80000
FC0000
FC0000
7C0000
7E0000
7F8000
3FE000
1FFC00
0FFF00
03FFC0
00FFE0
001FF8
0007F8
0001FC
0000FC
00007E
00003E
00003E
00003E
00003E
00003E
00007E
7000FC
FFDFF8
FFFFF8
FFFFE0
3FFFC0
01FC00
ENDCHAR
STARTCHAR 015D
ENCODING 349
SWIDTH 440 0
DWIDTH 22 0
BBX 18 39 2 -1
BITMAP
00C000
01E000
01F000
03F800
07FC00
0F3E00
1E0F00
1C0600
080200
000000
000000
00F000
0FFF80
1FFF80
3FFF80
7F0F00
7C0000
F80000
F80000
F80000
7C0000
7E0000
7F8000
3FF000
1FFC00
07FF00
00FF80
003F80
000FC0
0007C0
0003C0
0003C0
0007C0
4007C0
783FC0
FFFF80
FFFF00
7FFC00
038000
ENDCHAR
STARTCHAR 015E
ENCODING 350
SWIDTH 520 0
DWIDTH 26 0
BBX 23 44 2 -9
BITMAP
03FFE0
0FFFF8
1FFFF8
3FFFF8
3F0078
7E0000
7C0000
7C0000
F80000
FC0000
FC0000
7C0000
7E0000
7F8000
3FE000
1FFC00
0FFF00
03FFC0
00FFE0
001FF8
0007F8
0001FC
0000FC
00007E
00003E
00003E
00003E
00003E
00003E
00007E
7000FC
FFDFF8
FFFFF8
FFFFE0
3FFFC0
01FC00
007000
007800
00FC00
003E00
001E00
03FE00
03FC00
03F800
ENDCHAR
STARTCHAR 015F
ENCODING 351
SWIDTH 440 0
DWIDTH 22 0
BBX 18 36 2 -9
BITMAP
00F000
0FFF80
1FFF80
3FFF80
7F0F00
7C0000
F80000
F80000
F80000
7C0000
7E0000
7F8000
3FF000
1FFC00
07FF00
00FF80
003F80
000FC0
0007C0
0003C0
0003C0
0007C0
4007C0
783FC0
FFFF80
FFFF00
7FFC00
03E000
01C000
03E000
03F000
00F800
007800
0FF800
0FF000
0FE000
ENDCHAR
STARTCHAR 0160
ENCODING 352
SWIDTH 520 0
DWIDTH 26 0
BBX 23 47 2 -1
BITMAP
0300C0
0783C0
03C7C0
01EF80
00FF00
007E00
003C00
003800
001000
000000
000000
03FFE0
0FFFF8
1FFFF8
3FFFF8
3F0078
7E0000
7C0000
7C0000
F80000
FC0000
FC0000
7C0000
7E0000
7F8000
3FE000
1FFC00
0FFF00
03FFC0
00FFE0
001FF8
0007F8
0001FC
0000FC
00007E
00003E
00003E
00003E
00003E
00003E
00007E
7000FC
FFDFF8
FFFFF8
FFFFE0
3FFFC0
01FC00
ENDCHAR
STARTCHAR 0161
ENCODING 353
SWIDTH 440 0
DWIDTH 22 0
BBX 18 39 2 0
BITMAP
1C0600
3E0F00
1F1E00
0FFC00
07F800
03F000
01E000
00C000
000000
000000
000000
00F000
0FFF80
1FFF80
3FFF80
7F0F00
7C0000
F80000
F80000
F80000
7C0000
7E0000
7F8000
3FF000
1FFC00
07FF00
00FF80
003F80
000FC0
0007C0
0003C0
0003C0
0007C0
4007C0
783FC0
FFFF80
FFFF00
7FFC00
038000
ENDCHAR
STARTCHAR 0162
ENCODING 354
SWIDTH 560 0
DWIDTH 28 0
BBX 26 44 1 -9
BITMAP
FFFFFFC0
FFFFFFC0
FFFFFFC0
FFFFFFC0
FFFFFFC0
001F0000
001F0000
001F0000
001F0000
001F0000
001F0000
001F0000
001F0000
001F0000
001F0000
001F0000
001F0000
001F0000
001F0000
001F0000
001F0000
001F0000
001F0000
001F0000
001F0000
001F0000
001F0000
001F0000
001F0000
001F0000
001F0000
001F0000
001F0000
001F0000
001F0000
001C0000
001C0000
003E0000
003F0000
000F0000
000F0000
00FF0000
01FF0000
01FE0000
ENDCHAR
STARTCHAR 0163
ENCODING 355
SWIDTH 400 0
DWIDTH 20 0
BBX 15 43 4 -9
BITMAP
7000
F000
F000
F000
F000
F000
F000
F000
FFFC
FFFC
FFFC
FFFC
F000
F000
F000
F000
F000
F000
F000
F000
F000
F000
F000
F000
F000
F000
F800
F800
F800
FC00
7FFE
7FFE
3FFE
1FFC
01C0
0380
03C0
07E0
01F0
00F0
1FF0
1FE0
1FC0
ENDCHAR
STARTCHAR 0164
ENCODING 356
SWIDTH 560 0
DWIDTH 28 0
BBX 26 46 1 0
BITMAP
01806000
01C0F000
01F1E000
00FBC000
007F8000
003F0000
001E0000
000C0000
00040000
00000000
00000000
FFFFFFC0
FFFFFFC0
FFFFFFC0
FFFFFFC0
FFFFFFC0
001F0000
001F0000
001F0000
001F0000
001F0000
001F0000
001F0000
001F0000
001F0000
001F0000
001F0000
001F0000
001F0000
001F0000
001F0000
001F0000
001F0000
001F0000
001F0000
001F0000
001F0000
001F0000
001F0000
001F0000
001F0000
001F0000
001F0000
001F0000
001F0000
001F0000
ENDCHAR
STARTCHAR 0165
ENCODING 357
SWIDTH 400 0
DWIDTH 20 0
BBX 15 40 4 -1
BITMAP
00F0
00F0
00F0
00F0
00F0
70F0
F0E0
F0E0
F0E0
F0E0
F000
F000
F000
FFFC
FFFC
FFFC
FFFC
F000
F000
F000
F000
F000
F000
F000
F000
F000
F000
F000
F000
F000
F000
F800
F800
F800
FC00
7FFE
7FFE
3FFE
0FFC
0080
ENDCHAR
STARTCHAR 0166
ENCODING 358
SWIDTH 560 0
DWIDTH 28 0
BBX 26 35 1 0
BITMAP
FFFFFFC0
FFFFFFC0
FFFFFFC0
FFFFFFC0
FFFFFFC0
001F0000
001F0000
001F0000
001F0000
001F0000
001F0000
001F0000
001F0000
001F0000
001F0000
0FFFFC00
0FFFFC00
0FFFFC00
0FFFFC00
001F0000
001F0000
001F0000
001F0000
001F0000
001F0000
001F0000
001F0000
001F0000
001F0000
001F0000
001F0000
001F0000
001F0000
001F0000
001F0000
ENDCHAR
STARTCHAR 0167
ENCODING 359
SWIDTH 400 0
DWIDTH 20 0
BBX 15 35 4 -1
BITMAP
7000
F000
F000
F000
F000
F000
F000
F000
FFFC
FFFC
FFFC
FFFC
F000
F000
F000
F000
F000
F000
F000
FFFC
FFFC
FFFC
F000
F000
F000
F000
F800
F800
F800
FC00
7FFE
7FFE
3FFE
0FFC
0080
ENDCHAR
STARTCHAR 0168
ENCODING 360
SWIDTH 680 0
DWIDTH 34 0
BBX 26 45 4 0
BITMAP
00F83800
01FE7800
03FFF800
079FF000
0703E000
00000000
00000000
00000000
00000000
F80007C0
F80007C0
F80007C0
F80007C0
F80007C0
F80007C0
F80007C0
F80007C0
F80007C0
F80007C0
F80007C0
F80007C0
F80007C0
F80007C0
F80007C0
F80007C0
F80007C0
F80007C0
F80007C0
F80007C0
F80007C0
F80007C0
F80007C0
F80007C0
F80007C0
F80007C0
7C0007C0
7C000FC0
7E000F80
3F001F80
3F807F00
1FFFFE00
0FFFFE00
07FFF800
01FFF000
003F0000
ENDCHAR
STARTCHAR 0169
ENCODING 361
SWIDTH 560 0
DWIDTH 28 0
BBX 21 38 4 -1
BITMAP
000080
07E1E0
0FFFC0
1FFF80
3C7F80
181E00
000000
000000
000000
000000
000000
F000F8
F000F8
F000F8
F000F8
F000F8
F000F8
F000F8
F000F8
F000F8
F000F8
F000F8
F000F8
F000F8
F000F8
F000F8
F000F8
F800F8
F800F8
F800F8
F800F8
7C00F8
7E00F8
3FFFF8
3FFFF8
1FFFF8
07FFF0
002800
ENDCHAR
STARTCHAR 016A
ENCODING 362
SWIDTH 680 0
DWIDTH 34 0
BBX 26 44 4 -1
BITMAP
03FFF000
03FFF000
03FFF000
00000000
00000000
00000000
00000000
00000000
F80007C0
F80007C0
F80007C0
F80007C0
F80007C0
F80007C0
F80007C0
F80007C0
F80007C0
F80007C0
F80007C0
F80007C0
F80007C0
F80007C0
F80007C0
F80007C0
F80007C0
F80007C0
F80007C0
F80007C0
F80007C0
F80007C0
F80007C0
F80007C0
F80007C0
F80007C0
7C0007C0
7C000FC0
7E000F80
3F001F80
3F807F00
1FFFFE00
0FFFFE00
07FFF800
01FFF000
003F0000
ENDCHAR
STARTCHAR 016B
ENCODING 363
SWIDTH 560 0
DWIDTH 28 0
BBX 21 37 4 -1
BITMAP
1FFF80
1FFF80
1FFF80
1FFF80
000000
000000
000000
000000
000000
000000
F000F8
F000F8
F000F8
F000F8
F000F8
F000F8
F000F8
F000F8
F000F8
F000F8
F000F8
F000F8
F000F8
F000F8
F000F8
F000F8
F800F8
F800F8
F800F8
F800F8
7C00F8
7E00F8
3FFFF8
3FFFF8
1FFFF8
07FFF0
002800
ENDCHAR
STARTCHAR 016C
ENCODING 364
SWIDTH 680 0
DWIDTH 34 0
BBX 26 46 4 -1
BITMAP
01C07000
01C0F000
01E0E000
01FFE000
00FFC000
007F8000
000C0000
00000000
00000000
00000000
F80007C0
F80007C0
F80007C0
F80007C0
F80007C0
F80007C0
F80007C0
F80007C0
F80007C0
F80007C0
F80007C0
F80007C0
F80007C0
F80007C0
F80007C0
F80007C0
F80007C0
F80007C0
F80007C0
F80007C0
F80007C0
F80007C0
F80007C0
F80007C0
F80007C0
F80007C0
7C0007C0
7C000FC0
7E000F80
3F001F80
3F807F00
1FFFFE00
0FFFFE00
07FFF800
01FFF000
003F0000
ENDCHAR
STARTCHAR 016D
ENCODING 365
SWIDTH 560 0
DWIDTH 28 0
BBX 21 38 4 -1
BITMAP
0E0380
0E0780
0F0F00
0FFF00
07FE00
03FC00
002000
000000
000000
000000
000000
F000F8
F000F8
F000F8
F000F8
F000F8
F000F8
F000F8
F000F8
F000F8
F000F8
F000F8
F000F8
F000F8
F000F8
F000F8
F000F8
F800F8
F800F8
F800F8
F800F8
7C00F8
7E00F8
3FFFF8
3FFFF8
1FFFF8
07FFF0
002800
ENDCHAR
STARTCHAR 016E
ENCODING 366
SWIDTH 680 0
DWIDTH 34 0
BBX 26 48 4 -1
BITMAP
000E0000
003F8000
007FC000
00E1C000
00E0C000
00E0C000
00E0C000
00E1C000
007F8000
003F0000
00000000
00000000
F80007C0
F80007C0
F80007C0
F80007C0
F80007C0
F80007C0
F80007C0
F80007C0
F80007C0
F80007C0
F80007C0
F80007C0
F80007C0
F80007C0
F80007C0
F80007C0
F80007C0
F80007C0
F80007C0
F80007C0
F80007C0
F80007C0
F80007C0
F80007C0
F80007C0
F80007C0
7C0007C0
7C000FC0
7E000F80
3F001F80
3F807F00
1FFFFE00
0FFFFE00
07FFF800
01FFF000
003F0000
ENDCHAR
STARTCHAR 016F
ENCODING 367
SWIDTH 560 0
DWIDTH 28 0
BBX 21 40 4 -1
BITMAP
00F000
01FC00
03DE00
070E00
070600
070600
070600
038E00
03FC00
01F800
000000
000000
000000
F000F8
F000F8
F000F8
F000F8
F000F8
F000F8
F000F8
F000F8
F000F8
F000F8
F000F8
F000F8
F000F8
F000F8
F000F8
F000F8
F800F8
F800F8
F800F8
F800F8
7C00F8
7E00F8
3FFFF8
3FFFF8
1FFFF8
07FFF0
002800
ENDCHAR
STARTCHAR 0170
ENCODING 368
SWIDTH 680 0
DWIDTH 34 0
BBX 26 47 4 0
BITMAP
000C0C00
001E1E00
003E1E00
003C3E00
00787C00
00F87800
00F0F000
01E1E000
00C04000
00000000
00000000
F80007C0
F80007C0
F80007C0
F80007C0
F80007C0
F80007C0
F80007C0
F80007C0
F80007C0
F80007C0
F80007C0
F80007C0
F80007C0
F80007C0
F80007C0
F80007C0
F80007C0
F80007C0
F80007C0
F80007C0
F80007C0
F80007C0
F80007C0
F80007C0
F80007C0
F80007C0
7C0007C0
7C000FC0
7E000F80
3F001F80
3F807F00
1FFFFE00
0FFFFE00
07FFF800
01FFF000
003F0000
ENDCHAR
STARTCHAR 0171
ENCODING 369
SWIDTH 560 0
DWIDTH 28 0
BBX 21 40 4 -1
BITMAP
004000
006060
00F0F0
01F0F0
01E1E0
03C3E0
0787C0
0F8780
0F0700
020200
000000
000000
000000
F000F8
F000F8
F000F8
F000F8
F000F8
F000F8
F000F8
F000F8
F000F8
F000F8
F000F8
F000F8
F000F8
F000F8
F000F8
F000F8
F800F8
F800F8
F800F8
F800F8
7C00F8
7E00F8
3FFFF8
3FFFF8
1FFFF8
07FFF0
002800
ENDCHAR
STARTCHAR 0172
ENCODING 370
SWIDTH 680 0
DWIDTH 34 0
BBX 26 44 4 -9
BITMAP
F80007C0
F80007C0
F80007C0
F80007C0
F80007C0
F80007C0
F80007C0
F80007C0
F80007C0
F80007C0
F80007C0
F80007C0
F80007C0
F80007C0
F80007C0
F80007C0
F80007C0
F80007C0
F80007C0
F80007C0
F80007C0
F80007C0
F80007C0
F80007C0
F80007C0
F80007C0
7C0007C0
7C000FC0
7E000F80
3F001F80
3F807F00
1FFFFF00
0FFFFE00
07FFF800
01FFF000
003FC000
00078000
000F0000
001E0000
001E0000
001E0000
001FE000
001FE000
000FE000
ENDCHAR
STARTCHAR 0173
ENCODING 371
SWIDTH 560 0
DWIDTH 28 0
BBX 21 35 4 -9
BITMAP
F000F8
F000F8
F000F8
F000F8
F000F8
F000F8
F000F8
F000F8
F000F8
F000F8
F000F8
F000F8
F000F8
F000F8
F000F8
F000F8
F800F8
F800F8
F800F8
F800F8
7C00F8
7E00F8
3FFFF8
3FFFF8
1FFFF8
07FFF8
0031E0
0003C0
000780
000F80
000F00
000F80
000FF0
000FF8
0007F8
ENDCHAR
STARTCHAR 0174
ENCODING 372
SWIDTH 920 0
DWIDTH 46 0
BBX 44 46 1 0
BITMAP
000006000000
000007000000
00000F800000
00001FC00000
00003FE00000
000079F00000
0000F0F80000
0000E0700000
000040300000
000000000000
000000000000
FC00000001F0
7C00000001F0
7C00000001F0
7C00000001E0
7C000F0003E0
7C000F8003E0
3E000F8003E0
3E001F8003E0
3E001FC003C0
3E001FC007C0
3E003FC007C0
1F003FE007C0
1F003DE007C0
1F007DE00780
1F0079F00F80
1F0078F00F80
0F80F8F00F80
0F80F0F80F80
0F80F0780F00
0F81F0781F00
07C1E07C1F00
07C1E03C1F00
07C3E03E1E00
07C3C03E3E00
03E7C01E3E00
03E7801F3E00
03E7801F3C00
03EF800F7C00
01FF000FFC00
01FF0007F800
01FE0007F800
00FE0007F800
00FE0003F000
00FC0003F000
007C0001F000
ENDCHAR
STARTCHAR 0175
ENCODING 373
SWIDTH 760 0
DWIDTH 38 0
BBX 37 38 1 0
BITMAP
0000600000
0000700000
0000F80000
0001FC0000
0003FE0000
00079F0000
000F078000
000E038000
0004010000
0000000000
0000000000
0000000000
F8007800F8
F800F800F8
7800F800F0
7C00F801F0
7C00FC01F0
7C01FC01E0
3C01FC01E0
3E01FC03E0
3E03FE03E0
1E03DE03C0
1F03DE07C0
1F039E07C0
1F078F0780
0F078F0780
0F878F0F80
0F8F078F00
078F078F00
07CF079F00
03DE07DE00
03DE03DE00
03FE03FE00
01FC01FC00
01FC01FC00
01FC01F800
00F800F800
00F800F800
ENDCHAR
STARTCHAR 0176
ENCODING 374
SWIDTH 580 0
DWIDTH 29 0
BBX 30 46 0 0
BITMAP
00030000
00078000
000FC000
001FE000
003FE000
007CF000
00787800
00703800
00201000
00000000
00000000
FC0000FC
7E0000F8
7E0001F0
3F0001F0
1F0003E0
1F8003E0
0F8007C0
0FC007C0
07C00F80
07E01F00
03E01F00
01F03E00
01F03E00
00F87C00
00FCF800
007CF800
003FF000
003FF000
001FE000
001FC000
000FC000
00078000
00078000
00078000
00078000
00078000
00078000
00078000
00078000
00078000
00078000
00078000
00078000
00078000
00078000
ENDCHAR
STARTCHAR 0177
ENCODING 375
SWIDTH 480 0
DWIDTH 24 0
BBX 24 47 0 -9
BITMAP
000C00
001E00
003F00
007F80
00FFC0
01F3E0
03E1F0
01C0E0
008040
000000
000000
000000
7C001F
7C001F
7C001E
3E003E
3E003E
3E003E
1F003C
1F007C
1F007C
0F8078
0F8078
0F80F8
07C0F0
07C0F0
03C1F0
03E1E0
03E1E0
01F3E0
01F3C0
00F3C0
00FFC0
007F80
007F80
003F80
003F00
001F00
001E00
001E00
003C00
007C00
00F800
7FF800
7FF000
FFE000
FF8000
ENDCHAR
STARTCHAR 0178
ENCODING 376
SWIDTH 580 0
DWIDTH 29 0
BBX 30 44 0 1
BITMAP
00F03C00
01F87C00
01F87E00
01F87C00
00F03C00
00000000
00000000
00000000
00000000
FC0000FC
7E0000F8
7E0001F0
3F0001F0
1F0003E0
1F8003E0
0F8007C0
0FC007C0
07C00F80
07E01F00
03E01F00
01F03E00
01F03E00
00F87C00
00FCF800
007CF800
003FF000
003FF000
001FE000
001FC000
000FC000
00078000
00078000
00078000
00078000
00078000
00078000
00078000
00078000
00078000
00078000
00078000
00078000
00078000
00078000
ENDCHAR
STARTCHAR 0179
ENCODING 377
SWIDTH 560 0
DWIDTH 28 0
BBX 25 46 2 1
BITMAP
00018000
0003C000
0007E000
000FC000
001F0000
001E0000
003C0000
00380000
00100000
00000000
00000000
7FFFFF00
7FFFFF00
7FFFFF00
7FFFFF00
7FFFFF00
00007E00
00007C00
0000F800
0001F800
0003F000
0007E000
0007C000
000FC000
001F8000
001F0000
003E0000
007E0000
00FC0000
00F80000
01F00000
03F00000
03E00000
07C00000
0FC00000
0F800000
1F000000
1F000000
3E000000
7E000000
7C000000
F8000000
FFFFFF80
FFFFFF80
FFFFFF80
FFFFFF80
ENDCHAR
STARTCHAR 017A
ENCODING 378
SWIDTH 460 0
DWIDTH 23 0
BBX 20 39 2 0
BITMAP
000800
000C00
001E00
003E00
007C00
00F800
01F000
01E000
01C000
008000
000000
000000
000000
FFFFE0
FFFFE0
FFFFE0
FFFFE0
0007C0
000FC0
001F80
003F00
003E00
007C00
00F800
01F800
01F000
03E000
07C000
0FC000
0F8000
1F0000
3F0000
3E0000
7C0000
7C0000
FFFFF0
FFFFF0
FFFFF0
FFFFF0
ENDCHAR
STARTCHAR 017B
ENCODING 379
SWIDTH 560 0
DWIDTH 28 0
BBX 25 45 2 0
BITMAP
00080000
003E0000
003E0000
003F0000
003E0000
003E0000
00080000
00000000
00000000
00000000
7FFFFF00
7FFFFF00
7FFFFF00
7FFFFF00
7FFFFF00
00007E00
00007C00
0000F800
0001F800
0003F000
0007E000
0007C000
000FC000
001F8000
001F0000
003E0000
007E0000
00FC0000
00F80000
01F00000
03F00000
03E00000
07C00000
0FC00000
0F800000
1F000000
1F000000
3E000000
7E000000
7C000000
F8000000
FFFFFF80
FFFFFF80
FFFFFF80
FFFFFF80
ENDCHAR
STARTCHAR 017C
ENCODING 380
SWIDTH 460 0
DWIDTH 23 0
BBX 20 37 2 0
BITMAP
00E000
01F000
01F000
01F800
01F000
01F000
000000
000000
000000
000000
000000
FFFFE0
FFFFE0
FFFFE0
FFFFE0
0007C0
000FC0
001F80
003F00
003E00
007C00
00F800
01F800
01F000
03E000
07C000
0FC000
0F8000
1F0000
3F0000
3E0000
7C0000
7C0000
FFFFF0
FFFFF0
FFFFF0
FFFFF0
ENDCHAR
STARTCHAR 017D
ENCODING 381
SWIDTH 560 0
DWIDTH 28 0
BBX 25 46 2 0
BITMAP
0180C000
03C1E000
03E3E000
01F7C000
00FF8000
007F0000
003E0000
001C0000
00080000
00000000
00000000
7FFFFF00
7FFFFF00
7FFFFF00
7FFFFF00
7FFFFF00
00007E00
00007C00
0000F800
0001F800
0003F000
0007E000
0007C000
000FC000
001F8000
001F0000
003E0000
007E0000
00FC0000
00F80000
01F00000
03F00000
03E00000
07C00000
0FC00000
0F800000
1F000000
1F000000
3E000000
7E000000
7C000000
F8000000
FFFFFF80
FFFFFF80
FFFFFF80
FFFFFF80
ENDCHAR
STARTCHAR 017E
ENCODING 382
SWIDTH 460 0
DWIDTH 23 0
BBX 20 39 2 0
BITMAP
000200
0C0600
1E0F00
0F1E00
07BE00
03FC00
03F800
01F000
00E000
004000
000000
000000
000000
FFFFE0
FFFFE0
FFFFE0
FFFFE0
0007C0
000FC0
001F80
003F00
003E00
007C00
00F800
01F800
01F000
03E000
07C000
0FC000
0F8000
1F0000
3F0000
3E0000
7C0000
7C0000
FFFFF0
FFFFF0
FFFFF0
FFFFF0
ENDCHAR
STARTCHAR 017F
ENCODING 383
SWIDTH 260 0
DWIDTH 13 0
BBX 16 39 4 0
BITMAP
01FC
0FFF
1FFE
3FFE
7F86
7C00
7C00
F800
F800
F800
F800
F800
F800
F800
F800
F800
F800
F800
F800
F800
F800
F800
F800
F800
F800
F800
F800
F800
F800
F800
F800
F800
F800
F800
F800
F800
F800
F800
F800
ENDCHAR
STARTCHAR 0180
ENCODING 384
SWIDTH 580 0
DWIDTH 29 0
BBX 27 40 0 -1
BITMAP
01800000
0F800000
0F800000
0F800000
0F800000
FFFFC000
FFFFC000
FFFFC000
0F800000
0F800000
0F800000
0F800000
0F800000
0FBFF000
0FFFFC00
0FFFFE00
0FFFFF00
0FE03F80
0F800F80
0F800FC0
0F8007C0
0F8007C0
0F8003E0
0F8003E0
0F8003E0
0F8003E0
0F8003E0
0F8003E0
0F8003E0
0F8003E0
0F8007C0
0F8007C0
0F800FC0
0F801F80
0F803F80
0FFFFF00
0FFFFE00
0FFFFC00
07FFF000
00060000
ENDCHAR
STARTCHAR 0181
ENCODING 385
SWIDTH 740 0
DWIDTH 37 0
BBX 34 35 1 0
BITMAP
00FFFF0000
0FFFFFE000
3FFFFFF800
7FFFFFFC00
FFF803FE00
F8F8007E00
F0F8003F00
F0F8001F00
F0F8001F00
F0F8001F00
00F8001F00
00F8001F00
00F8003E00
00F8007E00
00F801FC00
00FFFFF800
00FFFFE000
00FFFFF800
00FFFFFE00
00F8007F00
00F8001F80
00F8000F80
00F8000F80
00F80007C0
00F80007C0
00F80007C0
00F8000FC0
00F8000F80
00F8001F80
00F8003F80
00F800FF00
00FFFFFE00
00FFFFFC00
00FFFFF000
00FFFFC000
ENDCHAR
STARTCHAR 0182
ENCODING 386
SWIDTH 600 0
DWIDTH 30 0
BBX 25 35 4 0
BITMAP
FFFFFC00
FFFFFC00
FFFFFC00
FFFFFC00
FFFFFC00
F8000000
F8000000
F8000000
F8000000
F8000000
F8000000
F8000000
F8000000
FFF80000
FFFFC000
FFFFF000
FFFFFC00
F80FFE00
F8007E00
F8003F00
F8001F00
F8001F80
F8000F80
F8000F80
F8000F80
F8000F80
F8000F80
F8001F80
F8003F00
F8007F00
F801FE00
FFFFFC00
FFFFF800
FFFFE000
FFFF8000
ENDCHAR
STARTCHAR 0183
ENCODING 387
SWIDTH 580 0
DWIDTH 29 0
BBX 23 40 4 -1
BITMAP
FFFFF0
FFFFF0
FFFFF0
FFFFF0
F80000
F80000
F80000
F80000
F80000
F80000
F80000
F80000
F80000
FBFF00
FFFFC0
FFFFE0
FFFFF0
FE03F8
F800F8
F800FC
F8007C
F8007C
F8003E
F8003E
F8003E
F8003E
F8003E
F8003E
F8003E
F8003E
F8007C
F8007C
F800FC
F801F8
F803F8
FFFFF0
FFFFE0
FFFFC0
7FFF00
006000
ENDCHAR
STARTCHAR 0184
ENCODING 388
SWIDTH 580 0
DWIDTH 29 0
BBX 26 40 1 -1
BITMAP
01000000
0F000000
3F000000
FF000000
FF000000
7F000000
3F000000
1F000000
1F000000
1F000000
1F000000
1F000000
1F060000
1F7FE000
1FFFF800
1FFFFC00
1FFFFE00
1F807F00
1F001F00
1F000F80
1F000F80
1F000F80
1F0007C0
1F0007C0
1F0007C0
1F0007C0
1F0007C0
1F0007C0
1F0007C0
1F0007C0
1F000F80
1F000F80
1F001F80
1F003F00
1F007F00
1FFFFE00
1FFFFC00
1FFFF800
0FFFE000
000C0000
ENDCHAR
STARTCHAR 0185
ENCODING 389
SWIDTH 620 0
DWIDTH 31 0
BBX 28 35 1 0
BITMAP
01000000
0F000000
3F000000
FF000000
7F000000
3F000000
1F000000
1F000000
1F000000
1F000000
1F000000
1F000000
1F000000
1FFFE000
1FFFFC00
1FFFFF00
1FFFFF80
1F007FC0
1F000FE0
1F0007E0
1F0003F0
1F0001F0
1F0001F0
1F0001F0
1F0001F0
1F0001F0
1F0001F0
1F0003F0
1F0003E0
1F000FE0
1F003FC0
1FFFFF80
1FFFFF00
1FFFFC00
1FFFF000
ENDCHAR
STARTCHAR 0186
ENCODING 390
SWIDTH 620 0
DWIDTH 31 0
BBX 27 36 1 -1
BITMAP
0FFF8000
7FFFE000
7FFFF800
7FFFFC00
7801FE00
00007F00
00003F00
00001F80
00000F80
00000FC0
000007C0
000007C0
000007E0
000003E0
000003E0
000003E0
000003E0
000003E0
000003E0
000003E0
000003E0
000003E0
000007E0
000007C0
000007C0
00000FC0
00000F80
00001F80
00003F00
00007F00
7001FE00
7FFFFC00
7FFFF800
FFFFE000
3FFFC000
01FC0000
ENDCHAR
STARTCHAR 0187
ENCODING 391
SWIDTH 660 0
DWIDTH 33 0
BBX 33 40 3 -1
BITMAP
0000007F80
000000FF00
000001FF00
000001FF00
001FFDE000
00FFFFC000
01FFFFC000
03FFFFC000
07F8038000
0FE0008000
1F80000000
3F00000000
3F00000000
7E00000000
7C00000000
7C00000000
FC00000000
F800000000
F800000000
F800000000
F800000000
F800000000
F800000000
F800000000
F800000000
F800000000
FC00000000
7C00000000
7C00000000
7E00000000
7E00000000
3F00000000
3F80000000
1FC0000000
0FF001C000
07FFFFC000
03FFFFC000
01FFFFE000
007FFF8000
0007F00000
ENDCHAR
STARTCHAR 0188
ENCODING 392
SWIDTH 500 0
DWIDTH 25 0
BBX 25 32 3 -1
BITMAP
00003F80
00007F80
0000FF00
0001F800
003DE000
01FFE000
07FFC000
0FFFC000
1FF7C000
3F000000
7E000000
7C000000
F8000000
F8000000
F8000000
F8000000
F0000000
F0000000
F0000000
F0000000
F8000000
F8000000
F8000000
F8000000
7C000000
7E000000
3F002000
1FFFE000
1FFFE000
07FFE000
01FFE000
001C0000
ENDCHAR
STARTCHAR 0189
ENCODING 393
SWIDTH 720 0
DWIDTH 36 0
BBX 32 35 1 0
BITMAP
03FFE000
0FFFFC00
0FFFFF00
0FFFFFC0
0F807FE0
0F800FF0
0F8003F8
0F8000FC
0F8000FC
0F80007E
0F80003E
0F80003F
0F80001F
0F80001F
0F80001F
FFFE001F
FFFE001F
FFFE001F
FFFE001F
0F80001F
0F80001F
0F80001F
0F80001F
0F80003F
0F80003E
0F80007E
0F80007E
0F8000FC
0F8001F8
0F8007F8
0F803FF0
0FFFFFC0
0FFFFF80
0FFFFE00
0FFFF000
ENDCHAR
STARTCHAR 018A
ENCODING 394
SWIDTH 800 0
DWIDTH 40 0
BBX 37 35 1 0
BITMAP
01FFFE0000
0FFFFFE000
3FFFFFF800
7FFFFFFC00
FFF807FF00
F8F8007F80
F0F8001F80
F0F8000FC0
F0F80007E0
F0F80003E0
00F80003F0
00F80001F0
00F80001F0
00F80001F0
00F80001F8
00F80000F8
00F80000F8
00F80000F8
00F80000F8
00F80000F8
00F80001F8
00F80001F0
00F80001F0
00F80001F0
00F80003F0
00F80003E0
00F80007E0
00F8000FC0
00F8001FC0
00F8003F80
00F801FF00
00FFFFFE00
00FFFFF800
00FFFFE000
00FFFF0000
ENDCHAR
STARTCHAR 018B
ENCODING 395
SWIDTH 620 0
DWIDTH 31 0
BBX 25 35 2 0
BITMAP
0FFFFF80
0FFFFF80
0FFFFF80
0FFFFF80
00000F80
00000F80
00000F80
00000F80
00000F80
00000F80
00000F80
00000F80
00000F80
000FFF80
01FFFF80
07FFFF80
1FFFFF80
3FF80F80
3F800F80
7E000F80
7C000F80
7C000F80
FC000F80
F8000F80
F8000F80
F8000F80
FC000F80
7C000F80
7E000F80
7F000F80
3FC00F80
1FFFFF80
0FFFFF80
03FFFF80
007FFF80
ENDCHAR
STARTCHAR 018C
ENCODING 396
SWIDTH 580 0
DWIDTH 29 0
BBX 22 40 3 -1
BITMAP
3FFFFC
3FFFFC
3FFFFC
3FFFFC
00003C
00003C
00003C
00003C
00003C
00003C
00003C
00003C
00003C
03FF3C
07FFFC
1FFFFC
3FFFFC
3F00FC
7E007C
7C003C
F8003C
F8003C
F8003C
F8003C
F0003C
F0003C
F0003C
F0003C
F8003C
F8003C
F8003C
FC003C
7C003C
7E003C
3F803C
1FFFFC
0FFFFC
07FFFC
01FFFC
003C00
ENDCHAR
STARTCHAR 018D
ENCODING 397
SWIDTH 580 0
DWIDTH 29 0
BBX 24 36 3 -9
BITMAP
007800
03FF80
0FFFE0
1FFFF0
3FC7F8
7E00FC
7C007C
FC003E
F8003E
F8003E
F0001E
F0001F
F0001F
F0001F
F0001E
F8003E
F8003E
FC007C
7C007C
7E00F8
3F81F0
1FC7E0
0FFFC0
03FF80
01FF00
007F80
001FC0
0007E0
0003E0
0001E0
0001E0
1003E0
3F9FE0
3FFFC0
3FFF80
0FFE00
ENDCHAR
STARTCHAR 018E
ENCODING 398
SWIDTH 560 0
DWIDTH 28 0
BBX 22 35 2 0
BITMAP
7FFFFC
7FFFFC
7FFFFC
7FFFFC
7FFFFC
00007C
00007C
00007C
00007C
00007C
00007C
00007C
00007C
00007C
00007C
1FFFFC
1FFFFC
1FFFFC
1FFFFC
00007C
00007C
00007C
00007C
00007C
00007C
00007C
00007C
00007C
00007C
00007C
00007C
FFFFFC
FFFFFC
FFFFFC
FFFFFC
ENDCHAR
STARTCHAR 018F
ENCODING 399
SWIDTH 700 0
DWIDTH 35 0
BBX 29 36 3 -1
BITMAP
07FFE000
1FFFF800
3FFFFE00
1FFFFF00
1E007F80
10001FC0
00000FE0
000007E0
000003F0
000001F0
000001F0
000001F8
000000F8
000000F8
000000F8
000000F8
FFFFFFF8
FFFFFFF8
FFFFFFF8
FFFFFFF8
F80000F8
F80000F8
F80000F8
F80000F8
F80001F0
7C0001F0
7C0003F0
7E0003E0
3E0007E0
3F000FC0
1FC03F80
0FF9FF80
07FFFE00
03FFFC00
00FFF000
001F8000
ENDCHAR
STARTCHAR 0190
ENCODING 400
SWIDTH 560 0
DWIDTH 28 0
BBX 24 36 3 -1
BITMAP
01FFF0
07FFFE
0FFFFE
1FFFFC
3F803C
3F0000
7E0000
7C0000
7C0000
7C0000
7C0000
3E0000
3F0000
1F8000
0FF000
07FFC0
03FFC0
0FFFC0
1FFFC0
3F8000
7E0000
FC0000
F80000
F80000
F80000
F80000
F80000
F80000
F80000
FC0002
7F000E
7FFBFF
3FFFFF
0FFFFF
03FFF8
007F80
ENDCHAR
STARTCHAR 0191
ENCODING 401
SWIDTH 520 0
DWIDTH 26 0
BBX 26 44 -1 -9
BITMAP
07FFFFC0
07FFFFC0
07FFFFC0
07FFFFC0
07C00000
07C00000
07C00000
07C00000
07C00000
07C00000
07C00000
07C00000
07C00000
07C00000
07C00000
07FFFF00
07FFFF00
07FFFF00
07FFFF00
07C00000
07C00000
07C00000
07C00000
07C00000
07C00000
07C00000
07C00000
07C00000
07C00000
07C00000
07C00000
07C00000
07C00000
07C00000
07C00000
07C00000
07C00000
07C00000
07C00000
07C00000
BF800000
FF800000
FF000000
FE000000
ENDCHAR
STARTCHAR 0192
ENCODING 402
SWIDTH 380 0
DWIDTH 19 0
BBX 23 48 -3 -9
BITMAP
0003F8
001FFE
003FFC
007FFC
00FF0C
00F800
01F800
01F000
01F000
01F000
01F000
01F000
01F000
01FFFC
01FFFC
01FFFC
01FFFC
01F000
01F000
01F000
01F000
01F000
01F000
01F000
01F000
01F000
01F000
01F000
01F000
01F000
01F000
01F000
01F000
01F000
01F000
01F000
01F000
01F000
01F000
01F000
01F000
01E000
03E000
07E000
FFC000
FFC000
FF8000
FE0000
ENDCHAR
STARTCHAR 0193
ENCODING 403
SWIDTH 660 0
DWIDTH 33 0
BBX 33 40 3 -1
BITMAP
0000003F80
000000FF80
000000FF80
000001FF00
001FFDE000
00FFFFE000
01FFFFC000
07FFFFC000
0FF803C000
0FC0000000
1F80000000
3F00000000
3E00000000
7E00000000
7C00000000
7C00000000
FC00000000
F800000000
F800000000
F800000000
F800000000
F800000000
F80003E000
F80003E000
F80003E000
F80003E000
FC0003E000
7C0003E000
7C0003E000
7E0003E000
7E0003E000
3F0003E000
1F8003E000
1FC003E000
0FF003E000
07FFFFE000
03FFFFE000
01FFFFE000
003FFFC000
0003F00000
ENDCHAR
STARTCHAR 0194
ENCODING 404
SWIDTH 640 0
DWIDTH 32 0
BBX 32 44 0 -9
BITMAP
FC00001F
7C00001F
7C00003E
3E00003E
3E00007C
1F00007C
1F0000F8
0F8000F8
0F8001F0
07C001F0
07C003E0
03E003E0
03E007C0
03F007C0
01F00F80
01F80F80
00F81F00
00FC1F00
007C3E00
007E3E00
003E7C00
001F7C00
001FF800
000FF800
000FF000
0007F000
0007E000
0007E000
0007F000
000FF000
000FF800
001F7C00
003E7C00
003E3E00
003C1E00
007C1E00
00781E00
00781F00
007C1E00
007C3E00
003FFE00
003FFC00
001FF800
0007F000
ENDCHAR
STARTCHAR 0195
ENCODING 405
SWIDTH 880 0
DWIDTH 44 0
BBX 37 40 4 -1
BITMAP
1800000000
F800000000
F800000000
F800000000
F800000000
F800000000
F800000000
F800000000
F800000000
F800000000
F800000000
F800000000
F830000000
FFFF0000F8
FFFF8000F8
FFFFC000F8
FFFFE000F8
F803E000F8
F801F000F8
F801F000F8
F801F000F8
F800F000F8
F800F000F8
F800F000F8
F800F800F8
F800F800F8
F800F800F8
F800F800F8
F800F800F8
F800F800F8
F800F800F8
F800F800F8
F800F801F0
F8007C01F0
F8007E03F0
F8003FFFE0
F8003FFFC0
F8001FFF80
F80007FF00
0000002000
ENDCHAR
STARTCHAR 0196
ENCODING 406
SWIDTH 360 0
DWIDTH 18 0
BBX 14 36 4 -1
BITMAP
F800
F800
F800
F800
F800
F800
F800
F800
F800
F800
F800
F800
F800
F800
F800
F800
F800
F800
F800
F800
F800
F800
F800
F800
F800
F800
F800
F800
F800
7C00
7E00
7FFC
3FFC
3FFC
0FFC
01F0
ENDCHAR
STARTCHAR 0197
ENCODING 407
SWIDTH 320 0
DWIDTH 16 0
BBX 15 35 1 0
BITMAP
07C0
07C0
07C0
07C0
07C0
07C0
07C0
07C0
07C0
07C0
07C0
07C0
07C0
07C0
07C0
FFFE
FFFE
FFFE
FFFE
07C0
07C0
07C0
07C0
07C0
07C0
07C0
07C0
07C0
07C0
07C0
07C0
07C0
07C0
07C0
07C0
ENDCHAR
STARTCHAR 0198
ENCODING 408
SWIDTH 660 0
DWIDTH 33 0
BBX 28 35 4 0
BITMAP
F8001FC0
F8003FF0
F8007FF0
F800FFE0
F801F860
F803F000
F807E000
F80FC000
F81F8000
F83F0000
F87E0000
F87C0000
F8F80000
F9F00000
FBF00000
FFE00000
FFC00000
FFF00000
FFF80000
F9FC0000
F8FE0000
F87F0000
F83F8000
F80FC000
F807E000
F803F000
F801F800
F800FC00
F8007E00
F8003F00
F8003F00
F8001F80
F8000FC0
F80007E0
F80007E0
ENDCHAR
STARTCHAR 0199
ENCODING 409
SWIDTH 520 0
DWIDTH 26 0
BBX 21 39 4 0
BITMAP
07C000
1FC000
3FC000
7FC000
7C0000
F80000
F80000
F80000
F80000
F80000
F80000
F80000
F80000
F801F0
F803E0
F807C0
F80F80
F81F00
F83E00
F87C00
F8F800
F9F800
FBF000
FFE000
FFC000
FFC000
FFF000
FBF800
F9F800
F8FC00
F87E00
F83F00
F81F80
F80FC0
F807C0
F803E0
F803F0
F801F0
F800F8
ENDCHAR
STARTCHAR 019A
ENCODING 410
SWIDTH 280 0
DWIDTH 14 0
BBX 13 40 1 -1
BITMAP
0100
0F00
0F00
0F00
0F00
0F00
0F00
0F00
0F00
0F00
0F00
0F00
0F00
0F00
0F00
0F00
0F00
FFF8
FFF8
FFF8
FFF8
0F00
0F00
0F00
0F00
0F00
0F00
0F00
0F00
0F00
0F00
0F00
0F00
0F80
0F80
0FF0
0FF0
07F0
01F0
0010
ENDCHAR
STARTCHAR 019B
ENCODING 411
SWIDTH 500 0
DWIDTH 25 0
BBX 23 39 1 0
BITMAP
7C0000
7F8000
7FC000
7FE000
07E1C0
03FFE0
01FFE0
03FF00
1FF800
1FFC00
1F7C00
083C00
003E00
003E00
007F00
007F00
00FF00
00FF80
01FF80
01E780
03E7C0
03C3C0
07C3C0
07C3E0
0781E0
0F81F0
0F01F0
1F01F0
1F00F8
1E00F8
3E00F8
3E0078
3C007C
7C007C
7C007C
78003E
F8003E
F8003E
F8001E
ENDCHAR
STARTCHAR 019C
ENCODING 412
SWIDTH 960 0
DWIDTH 48 0
BBX 40 36 4 -1
BITMAP
F8003E000F
F8003E000F
F8003E000F
F8003E000F
F8003E000F
F8003E000F
F8003E000F
F8003E000F
F8003E000F
F8003E000F
F8003E000F
F8003E000F
F8003E000F
F8003E000F
F8003E000F
F8003E000F
F8003E000F
F8003E000F
F8003E000F
F8003E000F
F8003E000F
F8003E000F
F8003E000F
F8003E000F
F8003E000F
F8003E000F
7C003E000F
7C003F000F
7C001F000F
7E001F800F
3F007FC00F
3FFFFFFFFF
1FFFFFFFFF
0FFFF3FFFF
07FFC1FFFF
00FC003F80
ENDCHAR
STARTCHAR 019D
ENCODING 413
SWIDTH 720 0
DWIDTH 36 0
BBX 33 44 -1 -9
BITMAP
0780000F80
07C0000F80
07E0000F80
07F0000F80
07F8000F80
07FC000F80
07FC000F80
07FE000F80
07FF000F80
07DF800F80
07CFC00F80
07C7C00F80
07C3E00F80
07C1F00F80
07C1F80F80
07C0F80F80
07C07C0F80
07C07E0F80
07C03E0F80
07C01F0F80
07C00F8F80
07C00F8F80
07C007CF80
07C003EF80
07C003EF80
07C001FF80
07C000FF80
07C000FF80
07C0007F80
07C0003F80
07C0003F80
07C0001F80
07C0000F80
07C0000F80
07C0000780
07C0000000
07C0000000
07C0000000
07C0000000
07C0000000
BF80000000
FF80000000
FF00000000
FE00000000
ENDCHAR
STARTCHAR 019E
ENCODING 414
SWIDTH 560 0
DWIDTH 28 0
BBX 21 36 4 -9
BITMAP
00B000
7FFF00
FFFF80
FFFFE0
FFFFE0
F803F0
F801F0
F801F0
F800F8
F800F8
F800F8
F800F8
F800F8
F800F8
F800F8
F800F8
F800F8
F800F8
F800F8
F800F8
F800F8
F800F8
F800F8
F800F8
F800F8
F800F8
F800F8
0000F8
0000F8
0000F8
0000F8
0000F8
0000F8
0000F8
0000F8
0000F8
ENDCHAR
STARTCHAR 019F
ENCODING 415
SWIDTH 760 0
DWIDTH 38 0
BBX 33 36 3 -1
BITMAP
001FFC0000
00FFFF8000
01FFFFC000
07FFFFE000
0FF00FF000
0FC003F800
1F8000FC00
3F00007E00
3E00007E00
7E00003F00
7C00001F00
7C00001F00
FC00001F00
F800001F80
F800000F80
F800000F80
FFFFFFFF80
FFFFFFFF80
FFFFFFFF80
F800000F80
F800000F80
F800001F80
FC00001F80
7C00001F00
7C00001F00
7E00003F00
3E00003E00
3F00007E00
1F8000FC00
1FC001FC00
0FF007F800
07FFFFF000
03FFFFE000
00FFFF8000
003FFE0000
0003E00000
ENDCHAR
STARTCHAR 01A0
ENCODING 416
SWIDTH 760 0
DWIDTH 38 0
BBX 33 41 3 -1
BITMAP
0000000F80
0000000F80
0000000F80
0000000F80
0000000F80
001FFC0F00
00FFFF9F00
01FFFFDE00
07FFFFFE00
0FF00FFC00
0FC003F800
1F8000FC00
3F00007E00
3E00007E00
7E00003F00
7C00001F00
7C00001F00
FC00001F00
F800001F80
F800000F80
F800000F80
F800000F80
F800000F80
F800000F80
F800000F80
F800000F80
F800001F80
FC00001F80
7C00001F00
7C00001F00
7E00003F00
3E00003E00
3F00007E00
1F8000FC00
1FC001FC00
0FF007F800
07FFFFF000
03FFFFE000
00FFFF8000
003FFE0000
0003E00000
ENDCHAR
STARTCHAR 01A1
ENCODING 417
SWIDTH 580 0
DWIDTH 29 0
BBX 26 32 3 -1
BITMAP
000007C0
000007C0
000007C0
000007C0
003C07C0
03FF8780
07FFEF80
0FFFFF00
1FEFFE00
3F01FE00
7E007C00
7C007E00
F8003E00
F8003E00
F8001F00
F8001F00
F0001F00
F0001F00
F0001F00
F0001F00
F8001F00
F8001F00
F8003E00
F8003E00
7C007E00
7E007C00
3F00FC00
1FEFF800
0FFFF000
07FFE000
03FF8000
00380000
ENDCHAR
STARTCHAR 01A2
ENCODING 418
SWIDTH 1020 0
DWIDTH 51 0
BBX 44 36 3 -1
BITMAP
003FF807FE00
00FFFE1FFF00
03FFFFFFFF80
07FFFFFFFFC0
0FF01FFC0FE0
1FC007F007E0
1F8001F803E0
3F0000F803F0
3E0000FC01F0
7E00007C01F0
7C00007E01F0
7C00003E01F0
FC00003E01F0
F800003E01F0
F800003E01F0
F800003F01F0
F800003F01F0
F800003F01F0
F800003F01F0
F800003F01F0
F800003E01F0
F800003E01F0
F800003E01F0
7C00003E01F0
7C00007E01F0
7C00007C01F0
3E0000FC01F0
3F0000F801F0
1F0001F801F0
1FC003F001F0
0FE00FF001F0
07FFFFE001F0
03FFFF8001F0
01FFFF0001F0
007FFC0001F0
0007E0000000
ENDCHAR
STARTCHAR 01A3
ENCODING 419
SWIDTH 820 0
DWIDTH 41 0
BBX 34 36 3 -9
BITMAP
0038006000
03FF0FFC00
07FFDFFF00
1FFFFFFF80
1FEFFFFF80
3F01F80FC0
7E00FC07C0
7C007C07C0
F8007C07C0
F8003E03C0
F8003E03C0
F8003E03C0
F0003E03C0
F0003E03C0
F0003E03C0
F0003E03C0
F8003E03C0
F8003E03C0
F8003E03C0
F8007C03C0
7C007C03C0
7E00FC03C0
3F01F803C0
1FEFF003C0
1FFFE003C0
07FFC003C0
03FF8003C0
003C0003C0
00000003C0
00000003C0
00000003C0
00000003C0
00000003C0
00000003C0
00000003C0
00000003C0
ENDCHAR
STARTCHAR 01A4
ENCODING 420
SWIDTH 700 0
DWIDTH 35 0
BBX 33 35 1 0
BITMAP
00FFFE0000
0FFFFFC000
3FFFFFF000
7FFFFFFC00
FFF807FE00
F8F800FE00
F0F8003F00
F0F8001F00
F0F8001F80
F0F8001F80
00F8000F80
00F8000F80
00F8000F80
00F8001F80
00F8001F00
00F8003F00
00F8007E00
00F803FE00
00FFFFFC00
00FFFFF800
00FFFFE000
00FFFE0000
00F8000000
00F8000000
00F8000000
00F8000000
00F8000000
00F8000000
00F8000000
00F8000000
00F8000000
00F8000000
00F8000000
00F8000000
00F8000000
ENDCHAR
STARTCHAR 01A5
ENCODING 421
SWIDTH 580 0
DWIDTH 29 0
BBX 23 48 4 -9
BITMAP
07C000
1FC000
3FC000
7FC000
7C0000
F80000
F80000
F80000
F80000
F80000
F80000
F80000
F82000
FFFF00
FFFF80
FFFFE0
FFFFF0
F803F8
F801F8
F800FC
F8007C
F8007C
F8003E
F8003E
F8003E
F8003E
F8003E
F8003E
F8003E
F8003E
F8007C
F8007C
F8007C
F800F8
FC03F8
FFFFF0
FFFFE0
FFFFC0
FBFF00
F83000
F80000
F80000
F80000
F80000
F80000
F80000
F80000
F80000
ENDCHAR
STARTCHAR 01A6
ENCODING 422
SWIDTH 620 0
DWIDTH 31 0
BBX 29 44 4 -5
BITMAP
F8000000
F8000000
F8000000
F8000000
FFFC0000
FFFFC000
FFFFF000
FFFFF800
F807FC00
F800FE00
F8003F00
F8003F00
F8001F00
F8001F00
F8001F00
F8001F00
F8001F00
F8001F00
F8003F00
F8003E00
F800FE00
FFFFFC00
FFFFF800
FFFFE000
FFFF8000
F80FC000
F807E000
F803E000
F801F000
F801F800
F800F800
F8007C00
F8007E00
F8003E00
F8003F00
F8001F80
F8000F80
F8000FC0
F80007C0
000007E0
000003E0
000003F0
000001F0
000001F8
ENDCHAR
STARTCHAR 01A7
ENCODING 423
SWIDTH 520 0
DWIDTH 26 0
BBX 23 36 2 -1
BITMAP
0FFF00
7FFFC0
7FFFE0
3FFFF0
3803F8
2000FC
00007C
00007C
00007C
00007C
00007C
0000FC
0001FC
0003F8
000FF8
007FF0
01FFC0
07FF80
1FFC00
3FF000
7F8000
7E0000
FC0000
F80000
F80000
F80000
F80000
F80000
F80000
FC0004
FE001C
7FF7FC
3FFFFE
1FFFFE
07FFF0
00FF00
ENDCHAR
STARTCHAR 01A8
ENCODING 424
SWIDTH 440 0
DWIDTH 22 0
BBX 18 28 2 -1
BITMAP
03E000
7FFC00
3FFE00
3FFF00
3C3F80
000FC0
0007C0
0007C0
0007C0
0007C0
001F80
007F80
01FF00
0FFE00
1FF800
3FE000
7F0000
FC0000
F80000
F80000
F80000
F80000
F800C0
7F07C0
7FFFC0
3FFFC0
0FFF80
007000
ENDCHAR
STARTCHAR 01A9
ENCODING 425
SWIDTH 560 0
DWIDTH 28 0
BBX 24 35 2 0
BITMAP
FFFFFF
FFFFFF
FFFFFF
FFFFFF
7FFFFF
3E0000
1F0000
1F8000
0FC000
07E000
03E000
01F000
01F800
00FC00
007E00
003E00
001F00
001F00
003E00
007E00
00FC00
01F800
03F000
03E000
07C000
0F8000
1F8000
3F0000
3E0000
7C0000
FC0000
FFFFFF
FFFFFF
FFFFFF
FFFFFF
ENDCHAR
STARTCHAR 01AA
ENCODING 426
SWIDTH 280 0
DWIDTH 14 0
BBX 19 48 -5 -9
BITMAP
07C000
1FF000
3FF800
7FFC00
787E00
703E00
F01E00
F01E00
701E00
783E00
7FFE00
3FFE00
1FFE00
071E00
001E00
001E00
001E00
001E00
001E00
001E00
001E00
001E00
001E00
001E00
001E00
001E00
001E00
001E00
001E00
001E00
001E00
001E00
001E00
001E00
001E00
001E00
001E00
001E00
001E00
001E00
001E00
001E00
001F00
001F00
001FE0
000FE0
000FE0
0003E0
ENDCHAR
STARTCHAR 01AB
ENCODING 427
SWIDTH 400 0
DWIDTH 20 0
BBX 15 43 4 -9
BITMAP
7000
F000
F000
F000
F000
F000
F000
F000
FFFC
FFFC
FFFC
FFFC
F000
F000
F000
F000
F000
F000
F000
F000
F000
F000
F000
F000
F000
F000
F800
F800
F800
FC00
7FFE
7FFE
3FFE
1FFE
001E
001E
001E
001E
003E
007C
07FC
07F8
07F0
ENDCHAR
STARTCHAR 01AC
ENCODING 428
SWIDTH 580 0
DWIDTH 29 0
BBX 28 35 1 0
BITMAP
03FFFFF0
1FFFFFF0
3FFFFFF0
7FFFFFF0
FF0F8000
F80F8000
F00F8000
F00F8000
F00F8000
F00F8000
000F8000
000F8000
000F8000
000F8000
000F8000
000F8000
000F8000
000F8000
000F8000
000F8000
000F8000
000F8000
000F8000
000F8000
000F8000
000F8000
000F8000
000F8000
000F8000
000F8000
000F8000
000F8000
000F8000
000F8000
000F8000
ENDCHAR
STARTCHAR 01AD
ENCODING 429
SWIDTH 400 0
DWIDTH 20 0
BBX 15 40 4 -1
BITMAP
01F8
0FFE
1FFE
3FFE
7F06
7C00
F800
F800
F800
F000
F000
F000
F000
FFFE
FFFE
FFFE
FFFE
F000
F000
F000
F000
F000
F000
F000
F000
F000
F000
F000
F000
F000
F000
F800
F800
F800
FC00
7FFE
7FFE
3FFE
0FFC
0080
ENDCHAR
STARTCHAR 01AE
ENCODING 430
SWIDTH 560 0
DWIDTH 28 0
BBX 26 44 1 -9
BITMAP
FFFFFFC0
FFFFFFC0
FFFFFFC0
FFFFFFC0
001F0000
001F0000
001F0000
001F0000
001F0000
001F0000
001F0000
001F0000
001F0000
001F0000
001F0000
001F0000
001F0000
001F0000
001F0000
001F0000
001F0000
001F0000
001F0000
001F0000
001F0000
001F0000
001F0000
001F0000
001F0000
001F0000
001F0000
001F0000
001F0000
001F0000
001F0000
001F0000
001F0000
001F0000
001F0000
001F0000
001FC800
000FF800
0007F800
0003F800
ENDCHAR
STARTCHAR 01AF
ENCODING 431
SWIDTH 700 0
DWIDTH 35 0
BBX 33 41 4 -1
BITMAP
0000000F80
0000000F80
0000000F80
0000000F80
0000001F00
F80007FF00
F80007FE00
F80007FC00
F80007E000
F80007C000
F80007C000
F80007C000
F80007C000
F80007C000
F80007C000
F80007C000
F80007C000
F80007C000
F80007C000
F80007C000
F80007C000
F80007C000
F80007C000
F80007C000
F80007C000
F80007C000
F80007C000
F80007C000
F80007C000
F80007C000
F80007C000
7C0007C000
7C000FC000
7E000F8000
3F001F8000
3F807F0000
1FFFFE0000
0FFFFE0000
07FFF80000
01FFF00000
003F000000
ENDCHAR
STARTCHAR 01B0
ENCODING 432
SWIDTH 580 0
DWIDTH 29 0
BBX 27 32 4 -1
BITMAP
000003E0
000003E0
000003E0
000003E0
000007C0
F000FFC0
F000FF80
F000FF00
F000F800
F000F800
F000F800
F000F800
F000F800
F000F800
F000F800
F000F800
F000F800
F000F800
F000F800
F000F800
F000F800
F800F800
F800F800
F800F800
F800F800
7C00F800
7E00F800
3FFFF800
3FFFF800
1FFFF800
07FFF000
00280000
ENDCHAR
STARTCHAR 01B1
ENCODING 433
SWIDTH 780 0
DWIDTH 39 0
BBX 34 36 3 -1
BITMAP
FFF80FFFC0
FFF80FFFC0
FFF80FFFC0
FFF80FFFC0
01F007E000
03E003E000
07C001F000
0F8000F800
1F80007C00
1F00007C00
3E00003E00
3E00003E00
3E00001F00
7C00001F00
7C00001F00
7C00001F00
7C00000F80
FC00000F80
FC00000F80
FC00000F80
FC00000F80
7C00000F80
7C00001F80
7C00001F00
7C00001F00
7E00003F00
3E00003E00
3F00007E00
1F8000FC00
1FC001FC00
0FF003F800
07FF7FF000
03FFFFE000
00FFFF8000
003FFE0000
0007F00000
ENDCHAR
STARTCHAR 01B2
ENCODING 434
SWIDTH 680 0
DWIDTH 34 0
BBX 27 36 4 -1
BITMAP
F807E000
F807FC00
F807FE00
F807FF00
F8007F80
F8001F80
F8000FC0
F80007C0
F80007C0
F80007E0
F80003E0
F80003E0
F80003E0
F80003E0
F80003E0
F80003E0
F80003E0
F80003E0
F80003E0
F80003E0
F80003E0
F80003E0
F80003E0
F80003E0
F80003E0
F80007C0
FC0007C0
7C000FC0
7E000F80
7F001F80
3F807F00
1FFFFE00
0FFFFC00
07FFF800
03FFE000
003E0000
ENDCHAR
STARTCHAR 01B3
ENCODING 435
SWIDTH 660 0
DWIDTH 33 0
BBX 34 35 0 0
BITMAP
FC00007E00
7E0000FF80
7E0001FFC0
3F0003FFC0
1F0003E380
1F8007C100
0F800F8000
0FC00F8000
07C01F0000
07E01F0000
03E03E0000
01F03C0000
01F07C0000
00F8780000
00FCF80000
007CF00000
003FF00000
003FE00000
001FE00000
000FC00000
000FC00000
0007800000
0007800000
0007800000
0007800000
0007800000
0007800000
0007800000
0007800000
0007800000
0007800000
0007800000
0007800000
0007800000
0007800000
ENDCHAR
STARTCHAR 01B4
ENCODING 436
SWIDTH 560 0
DWIDTH 28 0
BBX 28 36 0 -9
BITMAP
000001C0
7C000FF0
7C001FF0
7C001FF0
3E003F30
3E003E00
3E003C00
1F007C00
1F007C00
1F007800
0F807800
0F80F800
0F80F000
07C0F000
07C0F000
03C1F000
03E1E000
03E1E000
01F3E000
01F3C000
00FBC000
00FFC000
007F8000
007F8000
003F8000
003F0000
001F0000
001E0000
001E0000
003C0000
007C0000
00F80000
7FF80000
7FF00000
FFC00000
FF800000
ENDCHAR
STARTCHAR 01B5
ENCODING 437
SWIDTH 560 0
DWIDTH 28 0
BBX 25 35 2 0
BITMAP
7FFFFF00
7FFFFF00
7FFFFF00
7FFFFF00
00003F00
00007E00
00007C00
0000FC00
0001F800
0003F000
0003E000
0007C000
000FC000
001F8000
001F0000
3FFFFE00
3FFFFE00
3FFFFE00
3FFFFE00
01F80000
03F00000
03E00000
07E00000
0FC00000
0F800000
1F800000
1F000000
3E000000
7E000000
7C000000
FC000000
FFFFFF80
FFFFFF80
FFFFFF80
FFFFFF80
ENDCHAR
STARTCHAR 01B6
ENCODING 438
SWIDTH 460 0
DWIDTH 23 0
BBX 20 26 2 0
BITMAP
FFFFE0
FFFFE0
FFFFE0
FFFFE0
0007C0
000F80
001F80
001F00
003E00
007C00
00F800
7FFFE0
7FFFE0
7FFFE0
07C000
07C000
0F8000
1F0000
3E0000
3E0000
7C0000
7C0000
FFFFF0
FFFFF0
FFFFF0
FFFFF0
ENDCHAR
STARTCHAR 01B7
ENCODING 439
SWIDTH 560 0
DWIDTH 28 0
BBX 24 36 2 -1
BITMAP
7FFFFE
7FFFFE
7FFFFE
7FFFFE
00007C
0000F8
0001F8
0003F0
0003E0
0007C0
000F80
001F00
003E00
007C00
00F800
01FE00
01FFC0
01FFF0
003FF8
0001FC
00007E
00003E
00003E
00001F
00001F
00001F
00001F
00003F
00003E
00007E
F000FE
FFBFFC
FFFFF8
FFFFF0
3FFFC0
03F800
ENDCHAR
STARTCHAR 01B8
ENCODING 440
SWIDTH 560 0
DWIDTH 28 0
BBX 25 36 2 -1
BITMAP
7FFFFF00
7FFFFF00
7FFFFF00
7FFFFF00
3F000000
1F000000
0F800000
07C00000
07E00000
03F00000
01F80000
00F80000
007C0000
003E0000
001F0000
007F8000
03FF8000
0FFF8000
1FFC0000
3F800000
3F000000
7E000000
7C000000
7C000000
FC000000
FC000000
7C000000
7C000000
7C000000
7E000100
3F800700
3FFDFF00
1FFFFF80
07FFFF80
01FFFC00
001FC000
ENDCHAR
STARTCHAR 01B9
ENCODING 441
SWIDTH 460 0
DWIDTH 23 0
BBX 22 35 2 -9
BITMAP
7FFFF8
7FFFF8
7FFFF8
3FFFF8
3E0000
1F0000
0F8000
0F8000
07C000
03E000
01F000
01F800
00F800
007C00
003E00
01FF00
0FFF00
1FFF00
3FC000
7E0000
7C0000
F80000
F80000
F80000
F80000
F80000
F80000
F80000
7C0000
7E0000
3F8038
3FFFF8
1FFFF8
07FFFC
01FFF0
ENDCHAR
STARTCHAR 01BA
ENCODING 442
SWIDTH 460 0
DWIDTH 23 0
BBX 21 35 0 -9
BITMAP
7FFFF0
7FFFF0
7FFFF0
7FFFF0
0003E0
0007C0
000F80
001F00
003E00
007C00
00F800
01F000
01FE00
01FFC0
01FFE0
000FF0
0001F8
0000F8
0000F8
000078
0000F8
0000F8
0000F8
0003F8
000FF0
01FFE0
0FFFC0
3FFE00
7FF000
7F0000
F80000
F80000
F80000
780000
780000
ENDCHAR
STARTCHAR 01BB
ENCODING 443
SWIDTH 540 0
DWIDTH 27 0
BBX 22 35 2 0
BITMAP
07FF00
1FFFC0
7FFFE0
FFFFF0
7C07F0
7001F0
2001F8
0000F8
0000F8
0000F8
0000F8
0000F8
0001F0
0001F0
0003E0
0007C0
000FC0
3FFFFC
3FFFFC
3FFFFC
3FFFFC
01F800
03F000
07E000
0FC000
0F8000
1F0000
3F0000
3E0000
7C0000
7C0000
7FFFFC
7FFFFC
7FFFFC
7FFFFC
ENDCHAR
STARTCHAR 01BC
ENCODING 444
SWIDTH 520 0
DWIDTH 26 0
BBX 24 36 1 -1
BITMAP
FFFFFE
FFFFFE
FFFFFE
FFFFFE
07C000
07C000
078000
078000
078000
078000
078000
078000
078000
0F8000
0FFE00
0FFFC0
0FFFF0
0FFFF8
0007FC
0000FE
00007E
00003F
00001F
00001F
00001F
00001F
00001F
00001F
00003F
00003E
3000FE
3F8FFC
3FFFF8
3FFFF0
1FFFC0
01FE00
ENDCHAR
STARTCHAR 01BD
ENCODING 445
SWIDTH 480 0
DWIDTH 24 0
BBX 22 27 1 -1
BITMAP
FFFFF8
FFFFF8
FFFFF8
FFFFF8
0F0000
0F0000
0F0000
0F0000
0F0000
0F0000
0FFE00
0FFFC0
0FFFE0
00FFF0
0001F8
0000F8
000078
00007C
00007C
00007C
0000F8
2001F8
3E0FF0
3FFFF0
7FFFE0
3FFF80
007800
ENDCHAR
STARTCHAR 01BE
ENCODING 446
SWIDTH 460 0
DWIDTH 23 0
BBX 19 35 2 -1
BITMAP
1C0000
3C0000
3C0000
3C0000
3C0000
3C0000
3C0000
3C0000
3FFF00
3FFF00
3FFF00
3FFF00
3C0000
3C0000
3C0000
3E0000
3E0000
3F0000
1FC000
1FF000
07FE00
03FF00
007FC0
001FC0
0007E0
0003E0
0003E0
0003E0
0003E0
4003E0
7C1FC0
7FFFC0
FFFF80
7FFE00
01C000
ENDCHAR
STARTCHAR 01BF
ENCODING 447
SWIDTH 560 0
DWIDTH 28 0
BBX 22 36 4 -9
BITMAP
00E000
1FFF00
FFFF80
FFFFE0
FFFFF0
F803F0
F801F8
F800F8
F8007C
F8007C
F8007C
F8007C
F8007C
F8007C
F8007C
F8007C
F800FC
F800F8
F801F8
F801F0
F803F0
F807E0
F81FC0
F87F80
F9FF00
FFFC00
FFF800
FFE000
FF0000
FC0000
F80000
F80000
F80000
F80000
F80000
F80000
ENDCHAR
STARTCHAR 01C0
ENCODING 448
SWIDTH 260 0
DWIDTH 13 0
BBX 4 48 5 -9
BITMAP
F0
F0
F0
F0
F0
F0
F0
F0
F0
F0
F0
F0
F0
F0
F0
F0
F0
F0
F0
F0
F0
F0
F0
F0
F0
F0
F0
F0
F0
F0
F0
F0
F0
F0
F0
F0
F0
F0
F0
F0
F0
F0
F0
F0
F0
F0
F0
F0
ENDCHAR
STARTCHAR 01C1
ENCODING 449
SWIDTH 480 0
DWIDTH 24 0
BBX 14 48 5 -9
BITMAP
F03C
F03C
F03C
F03C
F03C
F03C
F03C
F03C
F03C
F03C
F03C
F03C
F03C
F03C
F03C
F03C
F03C
F03C
F03C
F03C
F03C
F03C
F03C
F03C
F03C
F03C
F03C
F03C
F03C
F03C
F03C
F03C
F03C
F03C
F03C
F03C
F03C
F03C
F03C
F03C
F03C
F03C
F03C
F03C
F03C
F03C
F03C
F03C
ENDCHAR
STARTCHAR 01C2
ENCODING 450
SWIDTH 560 0
DWIDTH 28 0
BBX 24 48 2 -9
BITMAP
003C00
003C00
003C00
003C00
003C00
003C00
003C00
003C00
003C00
003C00
003C00
003C00
003C00
003C00
003C00
003C00
003C00
FFFFFF
FFFFFF
FFFFFF
FFFFFF
003C00
003C00
003C00
003C00
003C00
003C00
FFFFFF
FFFFFF
FFFFFF
FFFFFF
003C00
003C00
003C00
003C00
003C00
003C00
003C00
003C00
003C00
003C00
003C00
003C00
003C00
003C00
003C00
003C00
003C00
ENDCHAR
STARTCHAR 01C3
ENCODING 451
SWIDTH 260 0
DWIDTH 13 0
BBX 6 36 4 -1
BITMAP
F8
F8
F8
F8
F8
F8
F8
F8
F8
F8
F8
F8
F8
F8
F8
78
78
78
78
78
78
78
78
70
00
00
00
00
00
78
FC
FC
FC
FC
F8
30
ENDCHAR
STARTCHAR 01C4
ENCODING 452
SWIDTH 1280 0
DWIDTH 64 0
BBX 59 46 4 0
BITMAP
0000000000603000
0000000000F07800
0000000000F8F800
00000000007DF000
00000000003FE000
00000000001FC000
00000000000F8000
0000000000070000
0000000000020000
0000000000000000
0000000000000000
3FFE00003FFFFFC0
FFFFE0003FFFFFC0
FFFFF8003FFFFFC0
FFFFFC003FFFFFC0
F807FF003FFFFFC0
F8007F8000001F80
F8001F8000003F00
F8000FC000003E00
F80007E000007C00
F80003E00000FC00
F80003F00001F800
F80001F00001F000
F80001F00003E000
F80001F00007E000
F80001F8000FC000
F80001F8000F8000
F80000F8001F0000
F80000F8003F0000
F80000F8003E0000
F80001F8007C0000
F80001F800FC0000
F80001F000F80000
F80001F001F00000
F80001F003F00000
F80003F003E00000
F80003E007C00000
F80007E00FC00000
F8000FC00F800000
F8001FC01F000000
F8003F801F000000
F801FF003E000000
FFFFFE003FFFFFE0
FFFFF8007FFFFFE0
FFFFE0007FFFFFE0
7FFF00007FFFFFE0
ENDCHAR
STARTCHAR 01C5
ENCODING 453
SWIDTH 1180 0
DWIDTH 59 0
BBX 54 39 4 0
BITMAP
00000000020000
00000000030180
000000000783C0
0000000007C780
3FFE000003EF00
FFFFE00001FE00
FFFFF80000FC00
FFFFFC00007C00
F807FF00003800
F8007F80001000
F8001F80000000
F8000FC0000000
F80007E0000000
F80003E03FFFF8
F80003F03FFFF8
F80001F03FFFF8
F80001F03FFFF8
F80001F00001F0
F80001F80003E0
F80001F80007E0
F80000F8000FC0
F80000F8001F80
F80000F8001F00
F80001F8003E00
F80001F8007E00
F80001F000FC00
F80001F000F800
F80001F001F000
F80003F003F000
F80003E003E000
F80007E007C000
F8000FC00F8000
F8001FC00F8000
F8003F801F0000
F801FF003F0000
FFFFFE003FFFFC
FFFFF8003FFFFC
FFFFE0003FFFFC
7FFF00003FFFFC
ENDCHAR
STARTCHAR 01C6
ENCODING 454
SWIDTH 1060 0
DWIDTH 53 0
BBX 48 40 3 -1
BITMAP
000004004000
00003C00E030
00003C01F078
00003C00F8F0
00003C007FE0
00003C003FC0
00003C001F80
00003C000F00
00003C000600
00003C000000
00003C000000
00003C000000
00383C000000
03FFBC07FFFF
0FFFFC07FFFF
1FFFFC07FFFF
3FFFFC07FFFF
3F00FC00007E
7E003C00007C
7C003C0000F8
F8003C0001F0
F8003C0003F0
F8003C0003E0
F8003C0007C0
F0003C000F80
F0003C001F80
F0003C001F00
F0003C003E00
F8003C007C00
F8003C00FC00
F8003C00F800
FC003C01F000
7C003C03F000
7E003C03E000
3F803C07C000
1FFFFC07FFFF
0FFFFC0FFFFF
07FFFC0FFFFF
01FFFC0FFFFF
001C00000000
ENDCHAR
STARTCHAR 01C7
ENCODING 455
SWIDTH 1000 0
DWIDTH 50 0
BBX 43 36 4 -1
BITMAP
F800000003E0
F800000003E0
F800000003E0
F800000003E0
F800000003E0
F800000003E0
F800000003E0
F800000003E0
F800000003E0
F800000003E0
F800000003E0
F800000003E0
F800000003E0
F800000003E0
F800000003E0
F800000003E0
F800000003E0
F800000003E0
F800000003E0
F800000003E0
F800000003E0
F800000003E0
F800000003E0
F800000003E0
F800000003E0
F800000003E0
F800000003E0
F800000003E0
F800000007E0
F800008007C0
F80000E00FC0
FFFFF9FFFF80
FFFFF9FFFF80
FFFFF9FFFF00
FFFFF87FFC00
0000000FE000
ENDCHAR
STARTCHAR 01C8
ENCODING 456
SWIDTH 760 0
DWIDTH 38 0
BBX 31 46 4 -9
BITMAP
0000001C
0000003E
F800003E
F800007E
F800003E
F800003E
F8000000
F8000000
F8000000
F8000000
F8000000
F800003E
F800003E
F800003E
F800003E
F800003E
F800003E
F800003E
F800003E
F800003E
F800003E
F800003E
F800003E
F800003E
F800003E
F800003E
F800003E
F800003E
F800003E
F800003E
F800003E
F800003E
F800003E
FFFFF83E
FFFFF83E
FFFFF83E
FFFFF83E
0000003E
0000003E
0000003E
0000007C
0000007C
00001FFC
00001FF8
00001FF0
00001FC0
ENDCHAR
STARTCHAR 01C9
ENCODING 457
SWIDTH 520 0
DWIDTH 26 0
BBX 19 48 4 -9
BITMAP
180000
F80000
F80180
F803E0
F807E0
F807E0
F807E0
F803C0
F80000
F80000
F80000
F80000
F80000
F803E0
F803E0
F803E0
F803E0
F803E0
F803E0
F803E0
F803E0
F803E0
F803E0
F803E0
F803E0
F803E0
F803E0
F803E0
F803E0
F803E0
F803E0
F803E0
F803E0
F803E0
F803E0
FF03E0
7F03E0
3F03E0
1F03E0
0103C0
0003C0
0007C0
0007C0
000FC0
01FF80
01FF80
01FF00
03FC00
ENDCHAR
STARTCHAR 01CA
ENCODING 458
SWIDTH 1220 0
DWIDTH 61 0
BBX 54 36 4 -1
BITMAP
F00001F000007C
F80001F000007C
FC0001F000007C
FE0001F000007C
FF0001F000007C
FF8001F000007C
FF8001F000007C
FFC001F000007C
FFE001F000007C
FBF001F000007C
F9F801F000007C
F8F801F000007C
F87C01F000007C
F83E01F000007C
F83F01F000007C
F81F01F000007C
F80F81F000007C
F80FC1F000007C
F807C1F000007C
F803E1F000007C
F801F1F000007C
F801F1F000007C
F800F9F000007C
F8007DF000007C
F8007DF000007C
F8003FF0000078
F8001FF00000F8
F8001FF00000F8
F8000FF00000F8
F80007F00001F8
F80007F03803F0
F80003F03FFFF0
F80001F07FFFE0
F80001F03FFFC0
F80000F00FFF00
0000000001F800
ENDCHAR
STARTCHAR 01CB
ENCODING 459
SWIDTH 980 0
DWIDTH 49 0
BBX 42 46 4 -9
BITMAP
000000000300
000000000F80
F00001F00FC0
F80001F00FC0
FC0001F00FC0
FE0001F00780
FF0001F00000
FF8001F00000
FF8001F00000
FFC001F00000
FFE001F00000
FBF001F00780
F9F801F00780
F8F801F00780
F87C01F00780
F83E01F00780
F83F01F00780
F81F01F00780
F80F81F00780
F80FC1F00780
F807C1F00780
F803E1F00780
F801F1F00780
F801F1F00780
F800F9F00780
F8007DF00780
F8007DF00780
F8003FF00780
F8001FF00780
F8001FF00780
F8000FF00780
F80007F00780
F80007F00780
F80003F00780
F80001F00780
F80001F00780
F80000F00780
000000000780
000000000F80
000000000F80
000000000F80
000000001F00
00000003FF00
00000003FE00
00000007FC00
00000007F800
ENDCHAR
STARTCHAR 01CC
ENCODING 460
SWIDTH 820 0
DWIDTH 41 0
BBX 34 46 4 -9
BITMAP
0000000380
00000007C0
0000000FC0
0000000FC0
0000000FC0
0000000780
0000000000
0000000000
0000000000
0000000000
00B0000000
7FFF0007C0
FFFF8007C0
FFFFE007C0
FFFFE007C0
F803F007C0
F801F007C0
F801F007C0
F800F807C0
F800F807C0
F800F807C0
F800F807C0
F800F807C0
F800F807C0
F800F807C0
F800F807C0
F800F807C0
F800F807C0
F800F807C0
F800F807C0
F800F807C0
F800F807C0
F800F807C0
F800F807C0
F800F807C0
F800F807C0
F800F807C0
00000007C0
0000000780
0000000F80
0000000F80
0000001F80
000003FF00
000003FF00
000003FE00
000003F800
ENDCHAR
STARTCHAR 01CD
ENCODING 461
SWIDTH 660 0
DWIDTH 33 0
BBX 32 46 1 0
BITMAP
00301800
00783C00
007C7C00
003EF800
001FF000
000FE000
0007C000
00038000
00010000
00000000
00000000
0007C000
0007C000
000FE000
000FE000
001FF000
001FF000
003EF800
003EF800
003C7800
007C7C00
00787C00
00F83E00
00F83E00
00F01F00
01F01F00
01E01F00
03E00F80
03E00F80
03C007C0
07C007C0
07C007C0
0F8003E0
0FFFFFE0
0FFFFFF0
1FFFFFF0
1FFFFFF0
1E0001F8
3E0000F8
3E0000F8
7C0000FC
7C00007C
7C00007C
F800007E
F800003E
F800003F
ENDCHAR
STARTCHAR 01CE
ENCODING 462
SWIDTH 520 0
DWIDTH 26 0
BBX 20 39 2 0
BITMAP
060180
0F83C0
07CF80
03FF00
01FE00
00FC00
007800
003000
000000
000000
000000
01F800
1FFF00
1FFFC0
1FFFE0
1F0FE0
0003F0
0001F0
0001F0
0000F0
0000F0
0000F0
00FCF0
0FFFF0
1FFFF0
3FFFF0
7F00F0
7C00F0
F800F0
F800F0
F800F0
F800F0
F800F0
7C00F0
7F83F0
3FFFF0
1FFFF0
0FFFF0
002000
ENDCHAR
STARTCHAR 01CF
ENCODING 463
SWIDTH 260 0
DWIDTH 13 0
BBX 13 46 0 0
BITMAP
6018
F078
78F8
3DF0
1FE0
0FC0
0780
0700
0200
0000
0000
0F80
0F80
0F80
0F80
0F80
0F80
0F80
0F80
0F80
0F80
0F80
0F80
0F80
0F80
0F80
0F80
0F80
0F80
0F80
0F80
0F80
0F80
0F80
0F80
0F80
0F80
0F80
0F80
0F80
0F80
0F80
0F80
0F80
0F80
0F80
ENDCHAR
STARTCHAR 01D0
ENCODING 464
SWIDTH 240 0
DWIDTH 12 0
BBX 13 39 0 0
BITMAP
4000
6030
F078
78F0
3DE0
3FC0
1FC0
0F80
0700
0200
0000
0000
0000
0F80
0F80
0F80
0F80
0F80
0F80
0F80
0F80
0F80
0F80
0F80
0F80
0F80
0F80
0F80
0F80
0F80
0F80
0F80
0F80
0F80
0F80
0F80
0F80
0F80
0F80
ENDCHAR
STARTCHAR 01D1
ENCODING 465
SWIDTH 760 0
DWIDTH 38 0
BBX 33 47 3 -1
BITMAP
00180C0000
003C1E0000
003E3E0000
001F7C0000
000FF80000
0007F00000
0003E00000
0001C00000
0000800000
0000000000
0000000000
001FFC0000
00FFFF8000
01FFFFC000
07FFFFE000
0FF00FF000
0FC003F800
1F8000FC00
3F00007E00
3E00007E00
7E00003F00
7C00001F00
7C00001F00
FC00001F00
F800001F80
F800000F80
F800000F80
F800000F80
F800000F80
F800000F80
F800000F80
F800000F80
F800001F80
FC00001F80
7C00001F00
7C00001F00
7E00003F00
3E00003E00
3F00007E00
1F8000FC00
1FC001FC00
0FF007F800
07FFFFF000
03FFFFE000
00FFFF8000
003FFE0000
0003E00000
ENDCHAR
STARTCHAR 01D2
ENCODING 466
SWIDTH 580 0
DWIDTH 29 0
BBX 24 40 3 -1
BITMAP
000080
0301C0
0783E0
03C7C0
01EF80
00FF00
007E00
003C00
001800
000000
000000
000000
003800
03FF80
07FFE0
0FFFF0
1FEFF8
3F01FC
7E007C
7C007E
F8003E
F8003E
F8001F
F8001F
F0001F
F0001F
F0001F
F0001F
F8001F
F8001F
F8003E
F8003E
7C007E
7E007C
3F00FC
1FEFF8
0FFFF0
07FFE0
03FF80
003800
ENDCHAR
STARTCHAR 01D3
ENCODING 467
SWIDTH 680 0
DWIDTH 34 0
BBX 26 47 4 -1
BITMAP
01806000
01E0F000
01F1E000
00FBC000
007F8000
003F0000
001E0000
000E0000
00040000
00000000
00000000
F80007C0
F80007C0
F80007C0
F80007C0
F80007C0
F80007C0
F80007C0
F80007C0
F80007C0
F80007C0
F80007C0
F80007C0
F80007C0
F80007C0
F80007C0
F80007C0
F80007C0
F80007C0
F80007C0
F80007C0
F80007C0
F80007C0
F80007C0
F80007C0
F80007C0
F80007C0
7C0007C0
7C000FC0
7E000F80
3F001F80
3F807F00
1FFFFE00
0FFFFE00
07FFF800
01FFF000
003F0000
ENDCHAR
STARTCHAR 01D4
ENCODING 468
SWIDTH 560 0
DWIDTH 28 0
BBX 21 40 4 -1
BITMAP
040000
0E0300
1F0780
0F8F00
07FE00
03FC00
01F800
00F000
006000
000000
000000
000000
000000
F000F8
F000F8
F000F8
F000F8
F000F8
F000F8
F000F8
F000F8
F000F8
F000F8
F000F8
F000F8
F000F8
F000F8
F000F8
F000F8
F800F8
F800F8
F800F8
F800F8
7C00F8
7E00F8
3FFFF8
3FFFF8
1FFFF8
07FFF0
002800
ENDCHAR
STARTCHAR 01D5
ENCODING 469
SWIDTH 680 0
DWIDTH 34 0
BBX 26 49 4 -1
BITMAP
01FFF000
01FFF000
01FFF000
00000000
00000000
01C07000
03C0F800
07E0F800
07E0F800
03C0F800
01806000
00000000
00000000
F80007C0
F80007C0
F80007C0
F80007C0
F80007C0
F80007C0
F80007C0
F80007C0
F80007C0
F80007C0
F80007C0
F80007C0
F80007C0
F80007C0
F80007C0
F80007C0
F80007C0
F80007C0
F80007C0
F80007C0
F80007C0
F80007C0
F80007C0
F80007C0
F80007C0
F80007C0
7C0007C0
7C000FC0
7E000F80
3F001F80
3F807F00
1FFFFE00
0FFFFE00
07FFF800
01FFF000
003F0000
ENDCHAR
STARTCHAR 01D6
ENCODING 470
SWIDTH 560 0
DWIDTH 28 0
BBX 21 41 4 -1
BITMAP
0FFF80
0FFF80
0FFF80
000000
000000
0E0380
1E07C0
3F07C0
3F07C0
1E07C0
0C0300
000000
000000
000000
F000F8
F000F8
F000F8
F000F8
F000F8
F000F8
F000F8
F000F8
F000F8
F000F8
F000F8
F000F8
F000F8
F000F8
F000F8
F000F8
F800F8
F800F8
F800F8
F800F8
7C00F8
7E00F8
3FFFF8
3FFFF8
1FFFF8
07FFF0
002800
ENDCHAR
STARTCHAR 01D7
ENCODING 471
SWIDTH 680 0
DWIDTH 34 0
BBX 26 49 4 -1
BITMAP
00010000
00038000
0003C000
0007C000
000F8000
070F1800
0F9E3C00
0F9C7E00
0F887E00
0F803C00
02001800
00000000
00000000
F80007C0
F80007C0
F80007C0
F80007C0
F80007C0
F80007C0
F80007C0
F80007C0
F80007C0
F80007C0
F80007C0
F80007C0
F80007C0
F80007C0
F80007C0
F80007C0
F80007C0
F80007C0
F80007C0
F80007C0
F80007C0
F80007C0
F80007C0
F80007C0
F80007C0
F80007C0
7C0007C0
7C000FC0
7E000F80
3F001F80
3F807F00
1FFFFE00
0FFFFE00
07FFF800
01FFF000
003F0000
ENDCHAR
STARTCHAR 01D8
ENCODING 472
SWIDTH 560 0
DWIDTH 28 0
BBX 21 43 4 0
BITMAP
000C00
001E00
001E00
003C00
007C00
007800
00F000
0C6380
1E07C0
3F07C0
3F07C0
1E07C0
0C0300
000000
000000
000000
F000F8
F000F8
F000F8
F000F8
F000F8
F000F8
F000F8
F000F8
F000F8
F000F8
F000F8
F000F8
F000F8
F000F8
F000F8
F000F8
F800F8
F800F8
F800F8
F800F8
7C00F8
7E00F8
3FFFF8
3FFFF8
1FFFF8
07FFF0
002800
ENDCHAR
STARTCHAR 01D9
ENCODING 473
SWIDTH 680 0
DWIDTH 34 0
BBX 26 49 4 -1
BITMAP
00804000
01E1E000
01FBE000
007FC000
003F0000
071E1800
0F843C00
0F807E00
0F807E00
0F803C00
06001800
00000000
00000000
F80007C0
F80007C0
F80007C0
F80007C0
F80007C0
F80007C0
F80007C0
F80007C0
F80007C0
F80007C0
F80007C0
F80007C0
F80007C0
F80007C0
F80007C0
F80007C0
F80007C0
F80007C0
F80007C0
F80007C0
F80007C0
F80007C0
F80007C0
F80007C0
F80007C0
F80007C0
7C0007C0
7C000FC0
7E000F80
3F001F80
3F807F00
1FFFFE00
0FFFFE00
07FFF800
01FFF000
003F0000
ENDCHAR
STARTCHAR 01DA
ENCODING 474
SWIDTH 560 0
DWIDTH 28 0
BBX 21 43 4 -1
BITMAP
040000
060700
0F8F00
07FE00
03FC00
00F800
006000
0C0380
1E07C0
3F07C0
3F07C0
1E07C0
0C0180
000000
000000
000000
F000F8
F000F8
F000F8
F000F8
F000F8
F000F8
F000F8
F000F8
F000F8
F000F8
F000F8
F000F8
F000F8
F000F8
F000F8
F000F8
F800F8
F800F8
F800F8
F800F8
7C00F8
7E00F8
3FFFF8
3FFFF8
1FFFF8
07FFF0
002800
ENDCHAR
STARTCHAR 01DB
ENCODING 475
SWIDTH 680 0
DWIDTH 34 0
BBX 26 49 4 -1
BITMAP
00200000
00700000
00F80000
00780000
003C0000
071E1800
0F8E3C00
0F8E7E00
0F847E00
0F803C00
02001800
00000000
00000000
F80007C0
F80007C0
F80007C0
F80007C0
F80007C0
F80007C0
F80007C0
F80007C0
F80007C0
F80007C0
F80007C0
F80007C0
F80007C0
F80007C0
F80007C0
F80007C0
F80007C0
F80007C0
F80007C0
F80007C0
F80007C0
F80007C0
F80007C0
F80007C0
F80007C0
F80007C0
7C0007C0
7C000FC0
7E000F80
3F001F80
3F807F00
1FFFFE00
0FFFFE00
07FFF800
01FFF000
003F0000
ENDCHAR
STARTCHAR 01DC
ENCODING 476
SWIDTH 560 0
DWIDTH 28 0
BBX 21 44 4 -1
BITMAP
010000
030000
078000
07C000
03C000
01E000
00F000
007000
0C6380
1E07C0
3F07C0
3F07C0
1E07C0
0C0300
000000
000000
000000
F000F8
F000F8
F000F8
F000F8
F000F8
F000F8
F000F8
F000F8
F000F8
F000F8
F000F8
F000F8
F000F8
F000F8
F000F8
F000F8
F800F8
F800F8
F800F8
F800F8
7C00F8
7E00F8
3FFFF8
3FFFF8
1FFFF8
07FFF0
002800
ENDCHAR
STARTCHAR 01DD
ENCODING 477
SWIDTH 540 0
DWIDTH 27 0
BBX 22 28 3 -1
BITMAP
03E000
3FFE00
7FFF80
3FFFC0
3F7FE0
2003F0
0001F8
0000F8
0000F8
00007C
00007C
00007C
00007C
FFFFFC
FFFFFC
FFFFFC
F0007C
F0007C
F8007C
F800F8
F800F8
7C01F8
7E03F0
3F8FE0
1FFFC0
0FFF80
07FE00
006000
ENDCHAR
STARTCHAR 01DE
ENCODING 478
SWIDTH 660 0
DWIDTH 33 0
BBX 32 48 1 0
BITMAP
007FFC00
007FFC00
007FFC00
00000000
00000000
00701C00
00F83E00
00F83E00
00F83E00
00F83E00
00600800
00000000
00000000
0007C000
0007C000
000FE000
000FE000
001FF000
001FF000
003EF800
003EF800
003C7800
007C7C00
00787C00
00F83E00
00F83E00
00F01F00
01F01F00
01E01F00
03E00F80
03E00F80
03C007C0
07C007C0
07C007C0
0F8003E0
0FFFFFE0
0FFFFFF0
1FFFFFF0
1FFFFFF0
1E0001F8
3E0000F8
3E0000F8
7C0000FC
7C00007C
7C00007C
F800007E
F800003E
F800003F
ENDCHAR
STARTCHAR 01DF
ENCODING 479
SWIDTH 520 0
DWIDTH 26 0
BBX 20 41 2 -1
BITMAP
07FFC0
07FFC0
07FFC0
000000
000000
0601C0
0F03E0
1F83E0
1F83E0
0F03C0
060180
000000
000000
01F800
1FFF00
1FFFC0
1FFFE0
1F0FE0
0003F0
0001F0
0001F0
0000F0
0000F0
0000F0
00FCF0
0FFFF0
1FFFF0
3FFFF0
7F00F0
7C00F0
F800F0
F800F0
F800F0
F800F0
F800F0
7C00F0
7F83F0
3FFFF0
1FFFF0
0FFFF0
002000
ENDCHAR
STARTCHAR 01E0
ENCODING 480
SWIDTH 660 0
DWIDTH 33 0
BBX 32 48 1 0
BITMAP
007FFC00
007FFC00
007FFC00
00000000
00000000
00038000
0007C000
0007C000
0007C000
0007C000
00010000
00000000
00000000
0007C000
0007C000
000FE000
000FE000
001FF000
001FF000
003EF800
003EF800
003C7800
007C7C00
00787C00
00F83E00
00F83E00
00F01F00
01F01F00
01E01F00
03E00F80
03E00F80
03C007C0
07C007C0
07C007C0
0F8003E0
0FFFFFE0
0FFFFFF0
1FFFFFF0
1FFFFFF0
1E0001F8
3E0000F8
3E0000F8
7C0000FC
7C00007C
7C00007C
F800007E
F800003E
F800003F
ENDCHAR
STARTCHAR 01E1
ENCODING 481
SWIDTH 520 0
DWIDTH 26 0
BBX 20 41 2 -1
BITMAP
07FFC0
07FFC0
07FFC0
000000
000000
003800
007C00
00FC00
00FC00
007800
003000
000000
000000
01F800
1FFF00
1FFFC0
1FFFE0
1F0FE0
0003F0
0001F0
0001F0
0000F0
0000F0
0000F0
00FCF0
0FFFF0
1FFFF0
3FFFF0
7F00F0
7C00F0
F800F0
F800F0
F800F0
F800F0
F800F0
7C00F0
7F83F0
3FFFF0
1FFFF0
0FFFF0
002000
ENDCHAR
STARTCHAR 01E2
ENCODING 482
SWIDTH 920 0
DWIDTH 46 0
BBX 44 43 1 0
BITMAP
000007FFE000
000007FFE000
000007FFE000
000000000000
000000000000
000000000000
000000000000
000000000000
00000FFFFFE0
00000FFFFFE0
00001FFFFFE0
00003FFFFFE0
00007FF00000
00007DF00000
0000F9F00000
0001F1F00000
0001F1F00000
0003E1F00000
0007C1F00000
0007C1F00000
000F81F00000
000F81F00000
001F01F00000
003E01FFFF80
003E01FFFF80
007C01FFFF80
007C01FFFF80
00F801F00000
01F001F00000
01F001F00000
03FFFFF00000
03FFFFF00000
07FFFFF00000
0FFFFFF00000
0F8001F00000
1F0001F00000
1F0001F00000
3E0001F00000
3E0001F00000
7C0001FFFFF0
7C0001FFFFF0
F80001FFFFF0
F80001FFFFF0
ENDCHAR
STARTCHAR 01E3
ENCODING 483
SWIDTH 840 0
DWIDTH 42 0
BBX 38 37 2 -1
BITMAP
000FFFC000
000FFFC000
000FFFC000
000FFFC000
0000000000
0000000000
0000000000
0000000000
0000000000
01F0003C00
1FFF01FF80
1FFF87FFC0
1FFFCFFFE0
1F0FFFC7F0
0003FF01F8
0001FE00F8
0001FC0078
0000F8007C
0000F8007C
0000F8007C
00FCFFFFFC
0FFFFFFFFC
1FFFFFFFFC
3FFFFFFFFC
7F00F00000
7C00F80000
F800F80000
F800F80000
F800F80000
F8007C0000
F8007E0000
7C00FF0010
7F87FFFFF0
3FFFFFFFF0
1FFFE7FFF0
0FFF83FFF0
0030001E00
ENDCHAR
STARTCHAR 01E4
ENCODING 484
SWIDTH 700 0
DWIDTH 35 0
BBX 31 36 3 -1
BITMAP
001FFF00
00FFFFC0
01FFFFE0
07FFFFE0
0FF803C0
0FC00040
1F800000
3F000000
3E000000
7E000000
7C000000
7C000000
FC000000
F8000000
F8000000
F8000000
F8000000
F80003E0
F80003E0
F80003E0
F80003E0
F80003E0
FC007FFE
7C007FFE
7C007FFE
7E0003E0
7E0003E0
3F0003E0
1F8003E0
1FC003E0
0FF003E0
07FFFFE0
03FFFFE0
01FFFFE0
003FFFC0
0003F000
ENDCHAR
STARTCHAR 01E5
ENCODING 485
SWIDTH 580 0
DWIDTH 29 0
BBX 26 36 3 -9
BITMAP
00080000
01FFF800
07FFFC00
0FFFFC00
1FFFFC00
3F007C00
7E007C00
7C007C00
F8007C00
F8007C00
F8007C00
F8007C00
F00FFFC0
F00FFFC0
F00FFFC0
F8007C00
F8007C00
F8007C00
F8007C00
7C007C00
7E007C00
3F81FC00
3FFFFC00
1FFFFC00
07FFFC00
01FE7C00
00007C00
00007C00
00007C00
0000F800
0000F800
3003F000
7FFFF000
7FFFE000
7FFFC000
1FFE0000
ENDCHAR
STARTCHAR 01E6
ENCODING 486
SWIDTH 660 0
DWIDTH 33 0
BBX 27 47 3 -1
BITMAP
00300C00
00783C00
003C7C00
001EF800
000FF000
0007E000
0003C000
00038000
00010000
00000000
00000000
001FFF00
00FFFFC0
01FFFFE0
03FFFFE0
07F803C0
0FE00040
1F800000
3F000000
3F000000
7E000000
7C000000
7C000000
FC000000
F8000000
F8000000
F8000000
F8000000
F8000000
F80003E0
F80003E0
F80003E0
F80003E0
FC0003E0
7C0003E0
7C0003E0
7E0003E0
7E0003E0
3F0003E0
1F8003E0
1FC003E0
0FF003E0
07FFFFE0
03FFFFE0
01FFFFE0
003FFFC0
0003F000
ENDCHAR
STARTCHAR 01E7
ENCODING 487
SWIDTH 560 0
DWIDTH 28 0
BBX 22 48 3 -9
BITMAP
020000
030180
0783C0
03C780
01EF00
01FE00
00FE00
007C00
003800
001000
000000
000000
000800
01FFF8
07FFFC
0FFFFC
1FFFFC
3F007C
7E007C
7C007C
F8007C
F8007C
F8007C
F8007C
F0007C
F0007C
F0007C
F8007C
F8007C
F8007C
F8007C
7C007C
7E007C
3F81FC
3FFFFC
1FFFFC
07FFFC
01FE7C
00007C
00007C
00007C
0000F8
0000F8
2003F8
3FFFF0
7FFFE0
7FFFC0
3FFF00
ENDCHAR
STARTCHAR 01E8
ENCODING 488
SWIDTH 620 0
DWIDTH 31 0
BBX 27 46 4 0
BITMAP
0300C000
0781E000
03C3C000
01EF8000
00FF0000
007E0000
003C0000
00180000
00000000
00000000
00000000
F8000FC0
F8001F80
F8003F00
F8007E00
F800FC00
F801F800
F803F000
F807E000
F80FC000
F81F8000
F83F0000
F87E0000
F8FC0000
F9F80000
FBF00000
FFE00000
FFC00000
FFF00000
FFF80000
F9FC0000
F8FE0000
F87F0000
F83F8000
F80FC000
F807E000
F803F000
F801F800
F800FC00
F800FE00
F8007E00
F8003F00
F8001F80
F8000FC0
F8000FC0
F80007E0
ENDCHAR
STARTCHAR 01E9
ENCODING 489
SWIDTH 520 0
DWIDTH 26 0
BBX 22 48 3 0
BITMAP
402000
F0F000
FBF000
7FC000
1F8000
0F0000
040000
000000
000000
0C0000
7C0000
7C0000
7C0000
7C0000
7C0000
7C0000
7C0000
7C0000
7C0000
7C0000
7C0000
7C0000
7C00F8
7C01F0
7C03E0
7C07C0
7C0F80
7C1F00
7C3E00
7C7C00
7CFC00
7DF800
7FF000
7FE000
7FE000
7FF800
7DFC00
7CFC00
7C7E00
7C3F00
7C1F80
7C0FC0
7C07E0
7C03E0
7C01F0
7C01F8
7C00F8
7C007C
ENDCHAR
STARTCHAR 01EA
ENCODING 490
SWIDTH 760 0
DWIDTH 38 0
BBX 33 44 3 -9
BITMAP
001FFC0000
00FFFF8000
01FFFFC000
07FFFFE000
0FF00FF000
0FC003F800
1F8000FC00
3F00007E00
3E00007E00
7E00003F00
7C00001F00
7C00001F00
FC00001F00
F800001F80
F800000F80
F800000F80
F800000F80
F800000F80
F800000F80
F800000F80
F800000F80
F800001F80
FC00001F80
7C00001F00
7C00001F00
7E00003F00
3E00003E00
3F00007E00
1F8000FC00
1FC001FC00
0FF007F800
07FFFFF000
03FFFFE000
00FFFF8000
003FFE0000
0003FC0000
0000F00000
0001E00000
0001E00000
0003C00000
0003E00000
0003FE0000
0001FE0000
0000FE0000
ENDCHAR
STARTCHAR 01EB
ENCODING 491
SWIDTH 580 0
DWIDTH 29 0
BBX 24 36 3 -9
BITMAP
003800
03FF80
07FFE0
0FFFF0
1FEFF8
3F01FC
7E007C
7C007E
F8003E
F8003E
F8001F
F8001F
F0001F
F0001F
F0001F
F0001F
F8001F
F8001F
F8003E
F8003E
7C007E
7E007C
3F00FC
1FEFF8
0FFFF0
07FFE0
03FF80
003E00
003C00
007800
00F800
00F000
00F800
00FF00
00FF80
007F80
ENDCHAR
STARTCHAR 01EC
ENCODING 492
SWIDTH 760 0
DWIDTH 38 0
BBX 33 52 3 -9
BITMAP
007FFF0000
007FFF0000
007FFF0000
0000000000
0000000000
0000000000
0000000000
0000000000
001FFC0000
00FFFF8000
01FFFFC000
07FFFFE000
0FF00FF000
0FC003F800
1F8000FC00
3F00007E00
3E00007E00
7E00003F00
7C00001F00
7C00001F00
FC00001F00
F800001F80
F800000F80
F800000F80
F800000F80
F800000F80
F800000F80
F800000F80
F800000F80
F800001F80
FC00001F80
7C00001F00
7C00001F00
7E00003F00
3E00003E00
3F00007E00
1F8000FC00
1FC001FC00
0FF007F800
07FFFFF000
03FFFFE000
00FFFF8000
003FFE0000
0003FC0000
0000F00000
0001E00000
0001E00000
0003C00000
0003E00000
0003FE0000
0001FE0000
0000FE0000
ENDCHAR
STARTCHAR 01ED
ENCODING 493
SWIDTH 580 0
DWIDTH 29 0
BBX 24 45 3 -9
BITMAP
07FFE0
07FFE0
07FFE0
07FFE0
000000
000000
000000
000000
000000
003800
03FF80
07FFE0
0FFFF0
1FEFF8
3F01FC
7E007C
7C007E
F8003E
F8003E
F8001F
F8001F
F0001F
F0001F
F0001F
F0001F
F8001F
F8001F
F8003E
F8003E
7C007E
7E007C
3F00FC
1FEFF8
0FFFF0
07FFE0
03FF80
003E00
003C00
007800
00F800
00F000
00F800
00FF00
00FF80
007F80
ENDCHAR
STARTCHAR 01EE
ENCODING 494
SWIDTH 560 0
DWIDTH 28 0
BBX 24 47 2 -1
BITMAP
0300C0
0781E0
03C3C0
01EF80
00FF00
007E00
003C00
001800
000000
000000
000000
7FFFFE
7FFFFE
7FFFFE
7FFFFE
00007C
0000F8
0001F8
0003F0
0003E0
0007C0
000F80
001F00
003E00
007C00
00F800
01FE00
01FFC0
01FFF0
003FF8
0001FC
00007E
00003E
00003E
00001F
00001F
00001F
00001F
00003F
00003E
00007E
F000FE
FFBFFC
FFFFF8
FFFFF0
3FFFC0
03F800
ENDCHAR
STARTCHAR 01EF
ENCODING 495
SWIDTH 460 0
DWIDTH 23 0
BBX 22 47 0 -8
BITMAP
0E0300
1F0780
0F9F00
07FE00
03FC00
01F800
00F000
006000
000000
000000
000000
000000
7FFFF0
7FFFF0
7FFFF0
7FFFF0
0003E0
0003E0
0007C0
000F80
001F00
001F00
003E00
007C00
00F800
01F000
03F000
03FE00
03FF80
03FFE0
001FF0
0003F0
0001F8
0000F8
000078
000078
00007C
00007C
0000F8
0000F8
0001F8
0003F0
6007F0
FFFFE0
FFFFC0
FFFF80
3FFC00
ENDCHAR
STARTCHAR 01F0
ENCODING 496
SWIDTH 240 0
DWIDTH 12 0
BBX 16 48 -3 -9
BITMAP
0800
0C06
1E0F
0F1E
07BC
07F8
03F8
01F0
00E0
0040
0000
0000
0000
01F0
01F0
01F0
01F0
01F0
01F0
01F0
01F0
01F0
01F0
01F0
01F0
01F0
01F0
01F0
01F0
01F0
01F0
01F0
01F0
01F0
01F0
01F0
01F0
01F0
01F0
01F0
01F0
01E0
03E0
07E0
FFC0
FFC0
FF80
FE00
ENDCHAR
STARTCHAR 01F1
ENCODING 497
SWIDTH 1280 0
DWIDTH 64 0
BBX 59 35 4 0
BITMAP
3FFE00003FFFFFC0
FFFFE0003FFFFFC0
FFFFF8003FFFFFC0
FFFFFC003FFFFFC0
F807FF003FFFFFC0
F8007F8000001F80
F8001F8000003F00
F8000FC000003E00
F80007E000007C00
F80003E00000FC00
F80003F00001F800
F80001F00001F000
F80001F00003E000
F80001F00007E000
F80001F8000FC000
F80001F8000F8000
F80000F8001F0000
F80000F8003F0000
F80000F8003E0000
F80001F8007C0000
F80001F800FC0000
F80001F000F80000
F80001F001F00000
F80001F003F00000
F80003F003E00000
F80003E007C00000
F80007E00FC00000
F8000FC00F800000
F8001FC01F000000
F8003F801F000000
F801FF003E000000
FFFFFE003FFFFFE0
FFFFF8007FFFFFE0
FFFFE0007FFFFFE0
7FFF00007FFFFFE0
ENDCHAR
STARTCHAR 01F2
ENCODING 498
SWIDTH 1180 0
DWIDTH 59 0
BBX 54 35 4 0
BITMAP
3FFE0000000000
FFFFE000000000
FFFFF800000000
FFFFFC00000000
F807FF00000000
F8007F80000000
F8001F80000000
F8000FC0000000
F80007E0000000
F80003E03FFFF8
F80003F03FFFF8
F80001F03FFFF8
F80001F03FFFF8
F80001F00001F0
F80001F80003E0
F80001F80007E0
F80000F8000FC0
F80000F8001F80
F80000F8001F00
F80001F8003E00
F80001F8007E00
F80001F000FC00
F80001F000F800
F80001F001F000
F80003F003F000
F80003E003E000
F80007E007C000
F8000FC00F8000
F8001FC00F8000
F8003F801F0000
F801FF003F0000
FFFFFE003FFFFC
FFFFF8003FFFFC
FFFFE0003FFFFC
7FFF00003FFFFC
ENDCHAR
STARTCHAR 01F3
ENCODING 499
SWIDTH 1060 0
DWIDTH 53 0
BBX 48 40 3 -1
BITMAP
000004000000
00003C000000
00003C000000
00003C000000
00003C000000
00003C000000
00003C000000
00003C000000
00003C000000
00003C000000
00003C000000
00003C000000
00383C000000
03FFBC07FFFF
0FFFFC07FFFF
1FFFFC07FFFF
3FFFFC07FFFF
3F00FC00007E
7E003C00007C
7C003C0000F8
F8003C0001F0
F8003C0003F0
F8003C0003E0
F8003C0007C0
F0003C000F80
F0003C001F80
F0003C001F00
F0003C003E00
F8003C007C00
F8003C00FC00
F8003C00F800
FC003C01F000
7C003C03F000
7E003C03E000
3F803C07C000
1FFFFC07FFFF
0FFFFC0FFFFF
07FFFC0FFFFF
01FFFC0FFFFF
001C00000000
ENDCHAR
STARTCHAR 01F4
ENCODING 500
SWIDTH 660 0
DWIDTH 33 0
BBX 27 47 3 0
BITMAP
00003000
00007800
0000FC00
0000F800
0001F000
0003E000
0007C000
00078000
00030000
00000000
00000000
001FFF00
00FFFFC0
01FFFFE0
03FFFFE0
07F803C0
0FE00040
1F800000
3F000000
3F000000
7E000000
7C000000
7C000000
FC000000
F8000000
F8000000
F8000000
F8000000
F8000000
F80003E0
F80003E0
F80003E0
F80003E0
FC0003E0
7C0003E0
7C0003E0
7E0003E0
7E0003E0
3F0003E0
1F8003E0
1FC003E0
0FF003E0
07FFFFE0
03FFFFE0
01FFFFE0
003FFFC0
0003F000
ENDCHAR
STARTCHAR 01F5
ENCODING 501
SWIDTH 560 0
DWIDTH 28 0
BBX 22 48 3 -9
BITMAP
000200
000300
000780
000F80
001F00
003E00
003C00
007800
007000
002000
000000
000000
000800
01FFF8
07FFFC
0FFFFC
1FFFFC
3F007C
7E007C
7C007C
F8007C
F8007C
F8007C
F8007C
F0007C
F0007C
F0007C
F8007C
F8007C
F8007C
F8007C
7C007C
7E007C
3F81FC
3FFFFC
1FFFFC
07FFFC
01FE7C
00007C
00007C
00007C
0000F8
0000F8
2003F8
3FFFF0
7FFFE0
7FFFC0
3FFF00
ENDCHAR
STARTCHAR 01F6
ENCODING 502
SWIDTH 1040 0
DWIDTH 52 0
BBX 45 36 4 -1
BITMAP
F80003E00000
F80003E00000
F80003E00000
F80003E00000
F80003E00000
F80003E00000
F80003E00000
F80003E00000
F80003E00000
F80003E000F8
F80003E000F8
F80003E000F8
F80003E000F8
F80003E000F8
F80003E000F8
FFFFFFE000F8
FFFFFFE000F8
FFFFFFE000F8
FFFFFFE000F8
F80003E000F8
F80003E000F8
F80003E000F8
F80003E000F8
F80003E000F8
F80003E000F8
F80003E000F8
F80003E000F8
F80003F000F8
F80001F001F8
F80001F801F0
F80001FC03F0
F80000FFFFE0
F800007FFFE0
F800003FFFC0
F800001FFF00
00000003F800
ENDCHAR
STARTCHAR 01F7
ENCODING 503
SWIDTH 640 0
DWIDTH 32 0
BBX 26 44 4 -9
BITMAP
03FF0000
1FFFE000
FFFFF800
FFFFFC00
FF83FE00
F8007F00
F8003F00
F8001F80
F8000F80
F8000F80
F8000FC0
F80007C0
F80007C0
F80007C0
F8000FC0
F8000FC0
F8000F80
F8000F80
F8000F80
F8001F80
F8001F00
F8003F00
F8007E00
F800FC00
F801FC00
F803F800
F807F000
F81FE000
F87FC000
F9FF0000
FFFE0000
FFF80000
FFE00000
FF800000
FC000000
F8000000
F8000000
F8000000
F8000000
F8000000
F8000000
F8000000
F8000000
F8000000
ENDCHAR
STARTCHAR 01F8
ENCODING 504
SWIDTH 720 0
DWIDTH 36 0
BBX 28 46 4 1
BITMAP
00300000
00780000
00FC0000
007E0000
003E0000
001F0000
000F8000
00078000
00010000
00000000
00000000
F00001F0
F80001F0
FC0001F0
FE0001F0
FF0001F0
FF8001F0
FF8001F0
FFC001F0
FFE001F0
FBF001F0
F9F801F0
F8F801F0
F87C01F0
F83E01F0
F83F01F0
F81F01F0
F80F81F0
F80FC1F0
F807C1F0
F803E1F0
F801F1F0
F801F1F0
F800F9F0
F8007DF0
F8007DF0
F8003FF0
F8001FF0
F8001FF0
F8000FF0
F80007F0
F80007F0
F80003F0
F80001F0
F80001F0
F80000F0
ENDCHAR
STARTCHAR 01F9
ENCODING 505
SWIDTH 560 0
DWIDTH 28 0
BBX 21 39 4 0
BITMAP
010000
038000
078000
07C000
03E000
01F000
00F800
007C00
003800
001000
000000
000000
00B000
7FFF00
FFFF80
FFFFE0
FFFFE0
F803F0
F801F0
F801F0
F800F8
F800F8
F800F8
F800F8
F800F8
F800F8
F800F8
F800F8
F800F8
F800F8
F800F8
F800F8
F800F8
F800F8
F800F8
F800F8
F800F8
F800F8
F800F8
ENDCHAR
STARTCHAR 01FA
ENCODING 506
SWIDTH 660 0
DWIDTH 33 0
BBX 32 48 1 0
BITMAP
00002000
0000E000
0003F000
000FF000
001FC000
000E0000
00000000
0007C000
000FE000
001C7000
00183000
00183000
00183000
001C7000
000FE000
000FE000
000FE000
001FF000
001FF000
001EF800
003EF800
003C7800
007C7C00
00787C00
00F83E00
00F83E00
00F01F00
01F01F00
01E01F00
03E00F80
03E00F80
03C007C0
07C007C0
07C007C0
0F8003E0
0FFFFFE0
0FFFFFE0
1FFFFFF0
1FFFFFF0
3E0001F8
3E0000F8
3E0000F8
7C0000FC
7C00007C
7C00007C
F800007E
F800003E
F800003F
ENDCHAR
STARTCHAR 01FB
ENCODING 507
SWIDTH 520 0
DWIDTH 26 0
BBX 20 46 2 0
BITMAP
000E00
001E00
007F00
01FE00
01F000
00C000
000000
007800
00FE00
01CE00
018700
038300
018700
018600
01FE00
00FC00
000000
000000
01F800
1FFF00
1FFFC0
1FFFE0
1F0FE0
0003F0
0001F0
0001F0
0000F0
0000F0
0000F0
00FCF0
0FFFF0
1FFFF0
3FFFF0
7F00F0
7C00F0
F800F0
F800F0
F800F0
F800F0
F800F0
7C00F0
7F83F0
3FFFF0
1FFFF0
0FFFF0
002000
ENDCHAR
STARTCHAR 01FC
ENCODING 508
SWIDTH 920 0
DWIDTH 46 0
BBX 44 47 1 0
BITMAP
000000020000
000000030000
000000078000
0000000F8000
0000001F0000
0000003E0000
0000007C0000
000000780000
000000700000
000000200000
000000000000
000000000000
00000FFFFFE0
00000FFFFFE0
00001FFFFFE0
00003FFFFFE0
00007FF00000
00007DF00000
0000F9F00000
0001F1F00000
0001F1F00000
0003E1F00000
0007C1F00000
0007C1F00000
000F81F00000
000F81F00000
001F01F00000
003E01FFFF80
003E01FFFF80
007C01FFFF80
007C01FFFF80
00F801F00000
01F001F00000
01F001F00000
03FFFFF00000
03FFFFF00000
07FFFFF00000
0FFFFFF00000
0F8001F00000
1F0001F00000
1F0001F00000
3E0001F00000
3E0001F00000
7C0001FFFFF0
7C0001FFFFF0
F80001FFFFF0
F80001FFFFF0
ENDCHAR
STARTCHAR 01FD
ENCODING 509
SWIDTH 840 0
DWIDTH 42 0
BBX 38 40 2 -1
BITMAP
0000020000
0000070000
00000F8000
00001F8000
00001F0000
00003E0000
00007C0000
0000F80000
0000F00000
0000200000
0000000000
0000000000
01F0003C00
1FFF01FF80
1FFF87FFC0
1FFFCFFFE0
1F0FFFC7F0
0003FF01F8
0001FE00F8
0001FC0078
0000F8007C
0000F8007C
0000F8007C
00FCFFFFFC
0FFFFFFFFC
1FFFFFFFFC
3FFFFFFFFC
7F00F00000
7C00F80000
F800F80000
F800F80000
F800F80000
F8007C0000
F8007E0000
7C00FF0010
7F87FFFFF0
3FFFFFFFF0
1FFFE7FFF0
0FFF83FFF0
0030001E00
ENDCHAR
STARTCHAR 01FE
ENCODING 510
SWIDTH 760 0
DWIDTH 38 0
BBX 33 48 3 -2
BITMAP
0000100000
0000180000
00003C0000
00007C0000
0000F80000
0001F00000
0003E00000
0003C00000
0003800000
0001000000
0000000000
0000000C00
001FFC1F00
00FFFF9E00
01FFFFFE00
07FFFFFC00
0FF00FF800
0FC003F800
1F8001FC00
3F0003FE00
3E0007FE00
7E000FBF00
7C000F9F00
7C001F1F00
FC003E1F00
F8007C1F80
F800780F80
F800F80F80
F801F00F80
F803E00F80
F807C00F80
F807C00F80
F80F800F80
F81F001F80
FC3E001F80
7C3C001F00
7C7C001F00
7EF8003F00
3FF0003E00
3FE0007E00
1FE000FC00
1FC001FC00
0FF007F800
1FFFFFF000
1FFFFFE000
3EFFFF8000
7C3FFE0000
3807E00000
ENDCHAR
STARTCHAR 01FF
ENCODING 511
SWIDTH 580 0
DWIDTH 29 0
BBX 24 40 3 -1
BITMAP
000300
000780
000F80
001F00
003E00
003C00
007800
007000
002000
000000
000000
003C0E
03FF9F
07FFFE
0FFFFC
1FEFF8
3F00FC
7E01FC
7C01FE
F803FE
F807BE
F80F9F
F80F1F
F01E1F
F03C1F
F0781F
F0F81F
F8F01F
F9E01F
FBC03E
FFC03E
7F803E
7F007C
3F00FC
3FE7F8
3FFFF0
7FFFE0
F3FF80
603800
200000
ENDCHAR
STARTCHAR 0200
ENCODING 512
SWIDTH 660 0
DWIDTH 33 0
BBX 32 46 1 1
BITMAP
01818000
03C3C000
03C3E000
03E1E000
01F0F000
00F0F800
00787800
003C3C00
00101800
00000000
00000000
0007C000
0007C000
000FE000
000FE000
001FF000
001FF000
003EF800
003EF800
003C7800
007C7C00
00787C00
00F83E00
00F83E00
00F01F00
01F01F00
01E01F00
03E00F80
03E00F80
03C007C0
07C007C0
07C007C0
0F8003E0
0FFFFFE0
0FFFFFF0
1FFFFFF0
1FFFFFF0
1E0001F8
3E0000F8
3E0000F8
7C0000FC
7C00007C
7C00007C
F800007E
F800003E
F800003F
ENDCHAR
STARTCHAR 0201
ENCODING 513
SWIDTH 520 0
DWIDTH 26 0
BBX 20 40 2 -1
BITMAP
101000
303800
787800
7C7C00
3E3E00
1E1F00
0F0F00
078780
078380
020100
000000
000000
01F800
1FFF00
1FFFC0
1FFFE0
1F0FE0
0003F0
0001F0
0001F0
0000F0
0000F0
0000F0
00FCF0
0FFFF0
1FFFF0
3FFFF0
7F00F0
7C00F0
F800F0
F800F0
F800F0
F800F0
F800F0
7C00F0
7F83F0
3FFFF0
1FFFF0
0FFFF0
002000
ENDCHAR
STARTCHAR 0202
ENCODING 514
SWIDTH 660 0
DWIDTH 33 0
BBX 32 45 1 0
BITMAP
000FE000
001FF000
003FF800
007C7800
00703C00
00701C00
00701C00
00000000
00000000
00000000
0007C000
0007C000
000FE000
000FE000
001FF000
001FF000
003EF800
003EF800
003C7800
007C7C00
00787C00
00F83E00
00F83E00
00F01F00
01F01F00
01E01F00
03E00F80
03E00F80
03C007C0
07C007C0
07C007C0
0F8003E0
0FFFFFE0
0FFFFFF0
1FFFFFF0
1FFFFFF0
1E0001F8
3E0000F8
3E0000F8
7C0000FC
7C00007C
7C00007C
F800007E
F800003E
F800003F
ENDCHAR
STARTCHAR 0203
ENCODING 515
SWIDTH 520 0
DWIDTH 26 0
BBX 20 38 2 -1
BITMAP
01FE00
03FF00
07FF80
078780
0703C0
0F01C0
0E01C0
000000
000000
000000
01F800
1FFF00
1FFFC0
1FFFE0
1F0FE0
0003F0
0001F0
0001F0
0000F0
0000F0
0000F0
00FCF0
0FFFF0
1FFFF0
3FFFF0
7F00F0
7C00F0
F800F0
F800F0
F800F0
F800F0
F800F0
7C00F0
7F83F0
3FFFF0
1FFFF0
0FFFF0
002000
ENDCHAR
STARTCHAR 0204
ENCODING 516
SWIDTH 560 0
DWIDTH 28 0
BBX 23 47 4 0
BITMAP
000800
181800
3C3C00
3E3E00
1E1E00
0F0F00
0F8780
0783C0
03C3C0
018180
000000
000000
FFFFF8
FFFFF8
FFFFF8
FFFFF8
FFFFF8
F80000
F80000
F80000
F80000
F80000
F80000
F80000
F80000
F80000
F80000
FFFFF0
FFFFF0
FFFFF0
FFFFF0
F80000
F80000
F80000
F80000
F80000
F80000
F80000
F80000
F80000
F80000
F80000
F80000
FFFFFE
FFFFFE
FFFFFE
FFFFFE
ENDCHAR
STARTCHAR 0205
ENCODING 517
SWIDTH 540 0
DWIDTH 27 0
BBX 22 40 3 -1
BITMAP
100000
381800
783C00
7C7C00
3E3E00
1E1F00
0F0F00
078780
038380
010100
000000
000000
003C00
03FF80
07FFC0
1FFFE0
1FC7F0
3F01F8
7C00F8
7C0078
F8007C
F8007C
F8007C
FFFFFC
FFFFFC
FFFFFC
FFFFFC
F00000
F80000
F80000
F80000
F80000
7C0000
7E0000
3F0010
3FFFF0
1FFFF0
07FFF0
01FFF0
003E00
ENDCHAR
STARTCHAR 0206
ENCODING 518
SWIDTH 560 0
DWIDTH 28 0
BBX 23 45 4 0
BITMAP
00FC00
03FF00
07FF00
078780
0F0380
0E0380
0E0380
000000
000000
000000
FFFFF8
FFFFF8
FFFFF8
FFFFF8
FFFFF8
F80000
F80000
F80000
F80000
F80000
F80000
F80000
F80000
F80000
F80000
FFFFF0
FFFFF0
FFFFF0
FFFFF0
F80000
F80000
F80000
F80000
F80000
F80000
F80000
F80000
F80000
F80000
F80000
F80000
FFFFFE
FFFFFE
FFFFFE
FFFFFE
ENDCHAR
STARTCHAR 0207
ENCODING 519
SWIDTH 540 0
DWIDTH 27 0
BBX 22 38 3 -1
BITMAP
00FE00
03FF00
03FF80
078780
0703C0
0701C0
0701C0
000000
000000
000000
003C00
03FF80
07FFC0
1FFFE0
1FC7F0
3F01F8
7C00F8
7C0078
F8007C
F8007C
F8007C
FFFFFC
FFFFFC
FFFFFC
FFFFFC
F00000
F80000
F80000
F80000
F80000
7C0000
7E0000
3F0010
3FFFF0
1FFFF0
07FFF0
01FFF0
003E00
ENDCHAR
STARTCHAR 0208
ENCODING 520
SWIDTH 260 0
DWIDTH 13 0
BBX 16 46 -3 1
BITMAP
6060
F0F0
F0F8
F878
7C3C
3C3E
1E1E
0F0F
0406
0000
0000
01F0
01F0
01F0
01F0
01F0
01F0
01F0
01F0
01F0
01F0
01F0
01F0
01F0
01F0
01F0
01F0
01F0
01F0
01F0
01F0
01F0
01F0
01F0
01F0
01F0
01F0
01F0
01F0
01F0
01F0
01F0
01F0
01F0
01F0
01F0
ENDCHAR
STARTCHAR 0209
ENCODING 521
SWIDTH 240 0
DWIDTH 12 0
BBX 16 39 -4 0
BITMAP
2000
7030
F078
F878
7C7C
3E3E
1E1E
0F0F
0707
0202
0000
0000
0000
00F8
00F8
00F8
00F8
00F8
00F8
00F8
00F8
00F8
00F8
00F8
00F8
00F8
00F8
00F8
00F8
00F8
00F8
00F8
00F8
00F8
00F8
00F8
00F8
00F8
00F8
ENDCHAR
STARTCHAR 020A
ENCODING 522
SWIDTH 260 0
DWIDTH 13 0
BBX 13 45 0 0
BITMAP
0FC0
3FF0
7FF0
7878
F038
E038
E038
0000
0000
0000
0F80
0F80
0F80
0F80
0F80
0F80
0F80
0F80
0F80
0F80
0F80
0F80
0F80
0F80
0F80
0F80
0F80
0F80
0F80
0F80
0F80
0F80
0F80
0F80
0F80
0F80
0F80
0F80
0F80
0F80
0F80
0F80
0F80
0F80
0F80
ENDCHAR
STARTCHAR 020B
ENCODING 523
SWIDTH 240 0
DWIDTH 12 0
BBX 13 37 0 0
BITMAP
1FC0
3FE0
7FF0
F078
E038
E038
E038
0000
0000
0000
0000
0F80
0F80
0F80
0F80
0F80
0F80
0F80
0F80
0F80
0F80
0F80
0F80
0F80
0F80
0F80
0F80
0F80
0F80
0F80
0F80
0F80
0F80
0F80
0F80
0F80
0F80
ENDCHAR
STARTCHAR 020C
ENCODING 524
SWIDTH 760 0
DWIDTH 38 0
BBX 33 47 3 0
BITMAP
00C0C00000
01C1E00000
03E3E00000
01F1F00000
00F0F80000
0078780000
003C3C0000
001C1E0000
0018080000
0000000000
0000000000
001FFC0000
00FFFF8000
01FFFFC000
07FFFFE000
0FF00FF000
0FC003F800
1F8000FC00
3F00007E00
3E00007E00
7E00003F00
7C00001F00
7C00001F00
FC00001F00
F800001F80
F800000F80
F800000F80
F800000F80
F800000F80
F800000F80
F800000F80
F800000F80
F800001F80
FC00001F80
7C00001F00
7C00001F00
7E00003F00
3E00003E00
3F00007E00
1F8000FC00
1FC001FC00
0FF007F800
07FFFFF000
03FFFFE000
00FFFF8000
003FFE0000
0003E00000
ENDCHAR
STARTCHAR 020D
ENCODING 525
SWIDTH 580 0
DWIDTH 29 0
BBX 24 40 3 -1
BITMAP
000800
181800
3C3C00
3C3E00
1E1E00
1F0F00
0F8780
0787C0
0383C0
010100
000000
000000
003800
03FF80
07FFE0
0FFFF0
1FEFF8
3F01FC
7E007C
7C007E
F8003E
F8003E
F8001F
F8001F
F0001F
F0001F
F0001F
F0001F
F8001F
F8001F
F8003E
F8003E
7C007E
7E007C
3F00FC
1FEFF8
0FFFF0
07FFE0
03FF80
003800
ENDCHAR
STARTCHAR 020E
ENCODING 526
SWIDTH 760 0
DWIDTH 38 0
BBX 33 46 3 -1
BITMAP
0007F00000
000FF80000
001FFC0000
003E3E0000
00381E0000
00380E0000
00380E0000
0000000000
0000000000
0000000000
001FFC0000
00FFFF8000
01FFFFC000
07FFFFE000
0FF00FF000
0FC003F800
1F8000FC00
3F00007E00
3E00007E00
7E00003F00
7C00001F00
7C00001F00
FC00001F00
F800001F80
F800000F80
F800000F80
F800000F80
F800000F80
F800000F80
F800000F80
F800000F80
F800001F80
FC00001F80
7C00001F00
7C00001F00
7E00003F00
3E00003E00
3F00007E00
1F8000FC00
1FC001FC00
0FF007F800
07FFFFF000
03FFFFE000
00FFFF8000
003FFE0000
0003E00000
ENDCHAR
STARTCHAR 020F
ENCODING 527
SWIDTH 580 0
DWIDTH 29 0
BBX 24 38 3 -1
BITMAP
00FE00
01FF80
03FF80
03C3C0
0781C0
0701C0
0701C0
000000
000000
000000
003800
03FF80
07FFE0
0FFFF0
1FEFF8
3F01FC
7E007C
7C007E
F8003E
F8003E
F8001F
F8001F
F0001F
F0001F
F0001F
F0001F
F8001F
F8001F
F8003E
F8003E
7C007E
7E007C
3F00FC
1FEFF8
0FFFF0
07FFE0
03FF80
003800
ENDCHAR
STARTCHAR 0210
ENCODING 528
SWIDTH 620 0
DWIDTH 31 0
BBX 26 46 4 1
BITMAP
30300000
78780000
F8780000
7C3C0000
3E3E0000
1E1F0000
0F0F0000
07878000
02030000
00000000
00000000
3FFE0000
FFFFC000
FFFFF000
FFFFFC00
F807FC00
F800FE00
F8003F00
F8003F00
F8001F00
F8001F00
F8001F00
F8001F00
F8001F00
F8001F00
F8003F00
F8003E00
F800FE00
FFFFFC00
FFFFF800
FFFFE000
FFFF8000
F80FC000
F807E000
F803F000
F801F000
F801F800
F800FC00
F8007C00
F8007E00
F8003F00
F8001F00
F8001F80
F8000F80
F8000FC0
F80007C0
ENDCHAR
STARTCHAR 0211
ENCODING 529
SWIDTH 380 0
DWIDTH 19 0
BBX 18 39 1 0
BITMAP
200000
703000
F07800
F87800
7C3C00
3E3E00
1E1F00
0F0F00
070700
020200
000000
000000
000C00
07FFC0
1FFFC0
1FFF80
1FFF80
1F0000
1F0000
1F0000
1F0000
1F0000
1F0000
1F0000
1F0000
1F0000
1F0000
1F0000
1F0000
1F0000
1F0000
1F0000
1F0000
1F0000
1F0000
1F0000
1F0000
1F0000
1F0000
ENDCHAR
STARTCHAR 0212
ENCODING 530
SWIDTH 620 0
DWIDTH 31 0
BBX 26 45 4 0
BITMAP
01FC0000
03FE0000
07FF0000
078F8000
0F038000
0E038000
0E038000
00000000
00000000
00000000
3FFE0000
FFFFC000
FFFFF000
FFFFFC00
F807FC00
F800FE00
F8003F00
F8003F00
F8001F00
F8001F00
F8001F00
F8001F00
F8001F00
F8001F00
F8003F00
F8003E00
F800FE00
FFFFFC00
FFFFF800
FFFFE000
FFFF8000
F80FC000
F807E000
F803F000
F801F000
F801F800
F800FC00
F8007C00
F8007E00
F8003F00
F8001F00
F8001F80
F8000F80
F8000FC0
F80007C0
ENDCHAR
STARTCHAR 0213
ENCODING 531
SWIDTH 380 0
DWIDTH 19 0
BBX 15 37 4 0
BITMAP
0FE0
1FF0
3FF8
783C
701C
701C
701C
0000
0000
0000
0060
3FFE
FFFE
FFFC
FFFC
F800
F800
F800
F800
F800
F800
F800
F800
F800
F800
F800
F800
F800
F800
F800
F800
F800
F800
F800
F800
F800
F800
ENDCHAR
STARTCHAR 0214
ENCODING 532
SWIDTH 680 0
DWIDTH 34 0
BBX 26 48 4 -1
BITMAP
04000000
0C060000
1E0E0000
1F1F0000
0F0F8000
07878000
03C3C000
03E1E000
01E0E000
00C0C000
00000000
00000000
F80007C0
F80007C0
F80007C0
F80007C0
F80007C0
F80007C0
F80007C0
F80007C0
F80007C0
F80007C0
F80007C0
F80007C0
F80007C0
F80007C0
F80007C0
F80007C0
F80007C0
F80007C0
F80007C0
F80007C0
F80007C0
F80007C0
F80007C0
F80007C0
F80007C0
F80007C0
7C0007C0
7C000FC0
7E000F80
3F001F80
3F807F00
1FFFFE00
0FFFFE00
07FFF800
01FFF000
003F0000
ENDCHAR
STARTCHAR 0215
ENCODING 533
SWIDTH 560 0
DWIDTH 28 0
BBX 21 40 4 -1
BITMAP
202000
607000
F0F000
F8F800
7C7C00
3C3E00
1E1E00
0F0F00
070700
060200
000000
000000
000000
F000F8
F000F8
F000F8
F000F8
F000F8
F000F8
F000F8
F000F8
F000F8
F000F8
F000F8
F000F8
F000F8
F000F8
F000F8
F000F8
F800F8
F800F8
F800F8
F800F8
7C00F8
7E00F8
3FFFF8
3FFFF8
1FFFF8
07FFF0
002800
ENDCHAR
STARTCHAR 0216
ENCODING 534
SWIDTH 680 0
DWIDTH 34 0
BBX 26 46 4 -1
BITMAP
003F0000
00FFC000
00FFE000
01E1E000
01C0F000
01C07000
01C07000
00000000
00000000
00000000
F80007C0
F80007C0
F80007C0
F80007C0
F80007C0
F80007C0
F80007C0
F80007C0
F80007C0
F80007C0
F80007C0
F80007C0
F80007C0
F80007C0
F80007C0
F80007C0
F80007C0
F80007C0
F80007C0
F80007C0
F80007C0
F80007C0
F80007C0
F80007C0
F80007C0
F80007C0
7C0007C0
7C000FC0
7E000F80
3F001F80
3F807F00
1FFFFE00
0FFFFE00
07FFF800
01FFF000
003F0000
ENDCHAR
STARTCHAR 0217
ENCODING 535
SWIDTH 560 0
DWIDTH 28 0
BBX 21 38 4 -1
BITMAP
01FC00
07FE00
0FFF00
0F0F00
0E0780
0E0380
0E0380
000000
000000
000000
000000
F000F8
F000F8
F000F8
F000F8
F000F8
F000F8
F000F8
F000F8
F000F8
F000F8
F000F8
F000F8
F000F8
F000F8
F000F8
F000F8
F800F8
F800F8
F800F8
F800F8
7C00F8
7E00F8
3FFFF8
3FFFF8
1FFFF8
07FFF0
002800
ENDCHAR
STARTCHAR 0218
ENCODING 536
SWIDTH 520 0
DWIDTH 26 0
BBX 23 44 2 -9
BITMAP
03FFE0
0FFFF8
1FFFF8
3FFFF8
3F0078
7E0000
7C0000
7C0000
F80000
FC0000
FC0000
7C0000
7E0000
7F8000
3FE000
1FFC00
0FFF00
03FFC0
00FFE0
001FF8
0007F8
0001FC
0000FC
00007E
00003E
00003E
00003E
00003E
00003E
00007E
7000FC
FFDFF8
FFFFF8
FFFFE0
3FFFC0
01FC00
000000
007C00
007C00
007C00
007800
03F800
03F000
03E000
ENDCHAR
STARTCHAR 0219
ENCODING 537
SWIDTH 440 0
DWIDTH 22 0
BBX 18 36 2 -9
BITMAP
00F000
0FFF80
1FFF80
3FFF80
7F0F00
7C0000
F80000
F80000
F80000
7C0000
7E0000
7F8000
3FF000
1FFC00
07FF00
00FF80
003F80
000FC0
0007C0
0003C0
0003C0
0007C0
4007C0
783FC0
FFFF80
FFFF00
7FFC00
038000
000000
01E000
01E000
03E000
03E000
1FC000
1FC000
1F8000
ENDCHAR
STARTCHAR 021A
ENCODING 538
SWIDTH 560 0
DWIDTH 28 0
BBX 26 44 1 -9
BITMAP
FFFFFFC0
FFFFFFC0
FFFFFFC0
FFFFFFC0
FFFFFFC0
001F0000
001F0000
001F0000
001F0000
001F0000
001F0000
001F0000
001F0000
001F0000
001F0000
001F0000
001F0000
001F0000
001F0000
001F0000
001F0000
001F0000
001F0000
001F0000
001F0000
001F0000
001F0000
001F0000
001F0000
001F0000
001F0000
001F0000
001F0000
001F0000
001F0000
00000000
00000000
001F0000
001F0000
001F0000
001E0000
00FE0000
00FC0000
00F80000
ENDCHAR
STARTCHAR 021B
ENCODING 539
SWIDTH 400 0
DWIDTH 20 0
BBX 15 43 4 -9
BITMAP
7000
F000
F000
F000
F000
F000
F000
F000
FFFC
FFFC
FFFC
FFFC
F000
F000
F000
F000
F000
F000
F000
F000
F000
F000
F000
F000
F000
F000
F800
F800
F800
FC00
7FFE
7FFE
3FFE
0FFC
0080
0000
07C0
07C0
07C0
07C0
3F80
3F80
3F00
ENDCHAR
STARTCHAR 021C
ENCODING 540
SWIDTH 520 0
DWIDTH 26 0
BBX 23 44 1 -9
BITMAP
1FFE00
FFFF80
FFFFE0
FFFFE0
7007F0
4001F8
0001F8
0000F8
0000FC
00007C
00007C
00007C
0000F8
0000F8
0001F8
0001F0
0007E0
001FE0
07FF80
07FE00
07FF80
07FFE0
001FF0
0003F8
0001FC
0000FC
00007C
00007E
00003E
00003E
00003E
00003E
00003E
00003E
00007C
0000FC
0001FC
0003F8
000FF0
007FE0
FFFFC0
FFFF00
FFFC00
FFE000
ENDCHAR
STARTCHAR 021D
ENCODING 541
SWIDTH 420 0
DWIDTH 21 0
BBX 19 36 1 -9
BITMAP
074000
FFF800
FFFE00
FFFF00
F07F00
801F80
000F80
000780
000780
0007C0
000780
000F80
000F80
001F00
00FE00
0FFC00
0FF000
0FFE00
0FFF00
003F80
000FC0
0007C0
0003C0
0003E0
0003E0
0003E0
0003C0
0007C0
000FC0
001F80
003F80
03FF00
FFFE00
FFF800
FFE000
FE0000
ENDCHAR
STARTCHAR 021E
ENCODING 542
SWIDTH 700 0
DWIDTH 35 0
BBX 27 46 4 0
BITMAP
00C06000
01E0F000
01F1F000
00FBE000
007FC000
003F8000
001F0000
000E0000
00040000
00000000
00000000
F80003E0
F80003E0
F80003E0
F80003E0
F80003E0
F80003E0
F80003E0
F80003E0
F80003E0
F80003E0
F80003E0
F80003E0
F80003E0
F80003E0
F80003E0
FFFFFFE0
FFFFFFE0
FFFFFFE0
FFFFFFE0
F80003E0
F80003E0
F80003E0
F80003E0
F80003E0
F80003E0
F80003E0
F80003E0
F80003E0
F80003E0
F80003E0
F80003E0
F80003E0
F80003E0
F80003E0
F80003E0
ENDCHAR
STARTCHAR 021F
ENCODING 543
SWIDTH 560 0
DWIDTH 28 0
BBX 22 48 3 0
BITMAP
402000
F0F000
FBF000
7FC000
1F8000
0F0000
040000
000000
000000
0C0000
7C0000
7C0000
7C0000
7C0000
7C0000
7C0000
7C0000
7C0000
7C0000
7C0000
7C0000
7C3800
7FFF80
7FFFC0
7FFFF0
7FFFF0
7C01F8
7C00F8
7C00F8
7C007C
7C007C
7C007C
7C007C
7C007C
7C007C
7C007C
7C007C
7C007C
7C007C
7C007C
7C007C
7C007C
7C007C
7C007C
7C007C
7C007C
7C007C
7C007C
ENDCHAR
STARTCHAR 0220
ENCODING 544
SWIDTH 660 0
DWIDTH 33 0
BBX 26 44 4 -9
BITMAP
0FFFE000
FFFFF800
FFFFFC00
FFFFFE00
FC00FF00
F8003F00
F8001F80
F8001F80
F8000F80
F8000F80
F8000FC0
F80007C0
F80007C0
F80007C0
F80007C0
F80007C0
F80007C0
F80007C0
F80007C0
F80007C0
F80007C0
F80007C0
F80007C0
F80007C0
F80007C0
F80007C0
F80007C0
F80007C0
F80007C0
F80007C0
F80007C0
F80007C0
F80007C0
F80007C0
F80007C0
000007C0
000007C0
000007C0
000007C0
000007C0
000007C0
000007C0
000007C0
000007C0
ENDCHAR
STARTCHAR 0221
ENCODING 545
SWIDTH 720 0
DWIDTH 36 0
BBX 34 48 3 -9
BITMAP
0000040000
00003C0000
00003C0000
00003C0000
00003C0000
00003C0000
00003C0000
00003C0000
00003C0000
00003C0000
00003C0000
00003C0000
00383C0000
03FFBC0000
0FFFFC0000
1FFFFC0000
3FFFFC0000
3F00FC0000
7E003C0000
7C003C0000
F8003C0000
F8003C0000
F8003C0000
F8003C0000
F0003C0000
F0003C0000
F0003C0000
F0003C0000
F8003C0000
F8003C0000
F8003C0000
FC003C0000
7C003C0000
7E003C0000
3F803CFC00
1FFFFFFE00
0FFFFFFF00
07FFFFDF80
01FFFE0780
00003C0780
00007C03C0
00007E03C0
0000FE0380
0001FE0780
0003DF9F80
00078FFF00
000787FE00
000303FC00
ENDCHAR
STARTCHAR 0222
ENCODING 546
SWIDTH 660 0
DWIDTH 33 0
BBX 29 35 2 0
BITMAP
0F0007C0
1F0007C0
1F0003C0
1F0003C0
1F0003E0
1F0003E0
1F0003E0
1F0003E0
1F0003E0
1F0003E0
1F0007E0
1F0007C0
0F800FC0
0FE01F80
07FFFF80
03FFFE00
03FFFF00
0FFFFF80
1FF07FE0
3F8007E0
7E0003F0
7C0001F0
7C0000F8
FC0000F8
FC0000F8
FC0000F8
7C0000F8
7C0001F8
7E0001F0
7F0003F0
3FC00FE0
1FFFFFE0
0FFFFFC0
07FFFF00
00FFFC00
ENDCHAR
STARTCHAR 0223
ENCODING 547
SWIDTH 580 0
DWIDTH 29 0
BBX 24 40 3 -1
BITMAP
3E007C
3C007C
3C007C
3C007C
7C007C
7C003C
7C003C
7C003C
7C003C
7C007C
7C007C
3E007C
3E007C
3F00F8
1FC3F0
0FFFF0
03FFC0
0FFFE0
1FFFF8
3F81F8
7E00FC
7C007E
F8003E
F8001E
F8001F
F8001F
F0001F
F0001F
F0001F
F8001F
F8001F
F8003E
7C003E
7E007E
3F00FC
3FE7F8
1FFFF0
07FFE0
03FF80
003C00
ENDCHAR
STARTCHAR 0224
ENCODING 548
SWIDTH 560 0
DWIDTH 28 0
BBX 25 44 2 -9
BITMAP
7FFFFF00
7FFFFF00
7FFFFF00
7FFFFF00
00003F00
00007E00
00007C00
0000F800
0001F800
0003F000
0007E000
0007C000
000FC000
001F8000
001F0000
003E0000
007E0000
00FC0000
00F80000
01F80000
03F00000
03E00000
07E00000
0FC00000
0F800000
1F800000
1F000000
3E000000
7E000000
7C000000
FC000000
FFFFFF80
FFFFFF80
FFFFFF80
FFFFFF80
00000F80
00000F80
00000F80
00000F80
00001F00
00017F00
0001FF00
0001FE00
0003FC00
ENDCHAR
STARTCHAR 0225
ENCODING 549
SWIDTH 460 0
DWIDTH 23 0
BBX 20 35 2 -9
BITMAP
FFFFE0
FFFFE0
FFFFE0
FFFFE0
0007C0
000FC0
001F80
003F00
003E00
007C00
00F800
01F800
01F000
03E000
07C000
0FC000
0F8000
1F0000
3F0000
3E0000
7C0000
7C0000
FFFFF0
FFFFF0
FFFFF0
FFFFF0
0001F0
0001F0
0001F0
0001E0
0001E0
0003E0
003FE0
003FC0
003F80
ENDCHAR
STARTCHAR 0226
ENCODING 550
SWIDTH 660 0
DWIDTH 33 0
BBX 32 45 1 0
BITMAP
00010000
0007C000
0007C000
0007E000
0007C000
0007C000
00010000
00000000
00000000
00000000
0007C000
0007C000
000FE000
000FE000
001FF000
001FF000
003EF800
003EF800
003C7800
007C7C00
00787C00
00F83E00
00F83E00
00F01F00
01F01F00
01E01F00
03E00F80
03E00F80
03C007C0
07C007C0
07C007C0
0F8003E0
0FFFFFE0
0FFFFFF0
1FFFFFF0
1FFFFFF0
1E0001F8
3E0000F8
3E0000F8
7C0000FC
7C00007C
7C00007C
F800007E
F800003E
F800003F
ENDCHAR
STARTCHAR 0227
ENCODING 551
SWIDTH 520 0
DWIDTH 26 0
BBX 20 38 2 -1
BITMAP
003800
007C00
00FC00
00FC00
00FC00
007800
000000
000000
000000
000000
01F800
1FFF00
1FFFC0
1FFFE0
1F0FE0
0003F0
0001F0
0001F0
0000F0
0000F0
0000F0
00FCF0
0FFFF0
1FFFF0
3FFFF0
7F00F0
7C00F0
F800F0
F800F0
F800F0
F800F0
F800F0
7C00F0
7F83F0
3FFFF0
1FFFF0
0FFFF0
002000
ENDCHAR
STARTCHAR 0228
ENCODING 552
SWIDTH 560 0
DWIDTH 28 0
BBX 23 44 4 -9
BITMAP
FFFFF8
FFFFF8
FFFFF8
FFFFF8
FFFFF8
F80000
F80000
F80000
F80000
F80000
F80000
F80000
F80000
F80000
F80000
FFFFF0
FFFFF0
FFFFF0
FFFFF0
F80000
F80000
F80000
F80000
F80000
F80000
F80000
F80000
F80000
F80000
F80000
F80000
FFFFFE
FFFFFE
FFFFFE
FFFFFE
003800
003800
007C00
007E00
001E00
001E00
01FE00
03FE00
03FC00
ENDCHAR
STARTCHAR 0229
ENCODING 553
SWIDTH 540 0
DWIDTH 27 0
BBX 22 36 3 -9
BITMAP
003C00
03FF80
07FFC0
1FFFE0
1FC7F0
3F01F8
7E00F8
7C0078
F8007C
F8007C
F8007C
FFFFFC
FFFFFC
FFFFFC
FFFFFC
F00000
F80000
F80000
F80000
F80000
7C0000
7E0000
3F0010
3FFFF0
1FFFF0
07FFF0
01FFF0
003E00
003800
007C00
007E00
001E00
001F00
01FE00
01FE00
03FC00
ENDCHAR
STARTCHAR 022A
ENCODING 554
SWIDTH 760 0
DWIDTH 38 0
BBX 33 49 3 -1
BITMAP
003FFE0000
003FFE0000
003FFE0000
0000000000
0000000000
00380E0000
007C1F0000
007C1F0000
007C1F0000
007C1F0000
00100C0000
0000000000
0000000000
001FFC0000
00FFFF8000
01FFFFC000
07FFFFE000
0FF00FF000
0FC003F800
1F8000FC00
3F00007E00
3E00007E00
7E00003F00
7C00001F00
7C00001F00
FC00001F00
F800001F80
F800000F80
F800000F80
F800000F80
F800000F80
F800000F80
F800000F80
F800000F80
F800001F80
FC00001F80
7C00001F00
7C00001F00
7E00003F00
3E00003E00
3F00007E00
1F8000FC00
1FC001FC00
0FF007F800
07FFFFF000
03FFFFE000
00FFFF8000
003FFE0000
0003E00000
ENDCHAR
STARTCHAR 022B
ENCODING 555
SWIDTH 580 0
DWIDTH 29 0
BBX 24 41 3 -1
BITMAP
07FFC0
07FFC0
07FFC0
000000
000000
0701C0
0F83E0
0F83E0
0F83E0
0F81E0
0300C0
000000
000000
003800
03FF80
07FFE0
0FFFF0
1FEFF8
3F01FC
7E007C
7C007E
F8003E
F8003E
F8001F
F8001F
F0001F
F0001F
F0001F
F0001F
F8001F
F8001F
F8003E
F8003E
7C007E
7E007C
3F00FC
1FEFF8
0FFFF0
07FFE0
03FF80
003800
ENDCHAR
STARTCHAR 022C
ENCODING 556
SWIDTH 760 0
DWIDTH 38 0
BBX 33 49 3 -1
BITMAP
003FFE0000
003FFE0000
003FFE0000
0000000000
0000000000
0004020000
001F870000
003FFF0000
007FFE0000
0070FC0000
0000000000
0000000000
0000000000
001FFC0000
00FFFF8000
01FFFFC000
07FFFFE000
0FF00FF000
0FC003F800
1F8000FC00
3F00007E00
3E00007E00
7E00003F00
7C00001F00
7C00001F00
FC00001F00
F800001F80
F800000F80
F800000F80
F800000F80
F800000F80
F800000F80
F800000F80
F800000F80
F800001F80
FC00001F80
7C00001F00
7C00001F00
7E00003F00
3E00003E00
3F00007E00
1F8000FC00
1FC001FC00
0FF007F800
07FFFFF000
03FFFFE000
00FFFF8000
003FFE0000
0003E00000
ENDCHAR
STARTCHAR 022D
ENCODING 557
SWIDTH 580 0
DWIDTH 29 0
BBX 24 41 3 -1
BITMAP
07FFC0
07FFC0
07FFC0
000000
000000
000040
03F0E0
07FFE0
07FFC0
0E1F80
000000
000000
000000
003800
03FF80
07FFE0
0FFFF0
1FEFF8
3F01FC
7E007C
7C007E
F8003E
F8003E
F8001F
F8001F
F0001F
F0001F
F0001F
F0001F
F8001F
F8001F
F8003E
F8003E
7C007E
7E007C
3F00FC
1FEFF8
0FFFF0
07FFE0
03FF80
003800
ENDCHAR
STARTCHAR 022E
ENCODING 558
SWIDTH 760 0
DWIDTH 38 0
BBX 33 46 3 -1
BITMAP
0003E00000
0003E00000
0007E00000
0003E00000
0003E00000
0000800000
0000000000
0000000000
0000000000
0000000000
001FFC0000
00FFFF8000
01FFFFC000
07FFFFE000
0FF00FF000
0FC003F800
1F8000FC00
3F00007E00
3E00007E00
7E00003F00
7C00001F00
7C00001F00
FC00001F00
F800001F80
F800000F80
F800000F80
F800000F80
F800000F80
F800000F80
F800000F80
F800000F80
F800001F80
FC00001F80
7C00001F00
7C00001F00
7E00003F00
3E00003E00
3F00007E00
1F8000FC00
1FC001FC00
0FF007F800
07FFFFF000
03FFFFE000
00FFFF8000
003FFE0000
0003E00000
ENDCHAR
STARTCHAR 022F
ENCODING 559
SWIDTH 580 0
DWIDTH 29 0
BBX 24 38 3 -1
BITMAP
003800
007C00
007E00
007E00
007E00
003C00
000000
000000
000000
000000
003800
03FF80
07FFE0
0FFFF0
1FEFF8
3F01FC
7E007C
7C007E
F8003E
F8003E
F8001F
F8001F
F0001F
F0001F
F0001F
F0001F
F8001F
F8001F
F8003E
F8003E
7C007E
7E007C
3F00FC
1FEFF8
0FFFF0
07FFE0
03FF80
003800
ENDCHAR
STARTCHAR 0230
ENCODING 560
SWIDTH 760 0
DWIDTH 38 0
BBX 33 49 3 -1
BITMAP
003FFE0000
003FFE0000
003FFE0000
0000000000
0000000000
0001C00000
0003E00000
0003E00000
0003E00000
0003E00000
0000800000
0000000000
0000000000
001FFC0000
00FFFF8000
01FFFFC000
07FFFFE000
0FF00FF000
0FC003F800
1F8000FC00
3F00007E00
3E00007E00
7E00003F00
7C00001F00
7C00001F00
FC00001F00
F800001F80
F800000F80
F800000F80
F800000F80
F800000F80
F800000F80
F800000F80
F800000F80
F800001F80
FC00001F80
7C00001F00
7C00001F00
7E00003F00
3E00003E00
3F00007E00
1F8000FC00
1FC001FC00
0FF007F800
07FFFFF000
03FFFFE000
00FFFF8000
003FFE0000
0003E00000
ENDCHAR
STARTCHAR 0231
ENCODING 561
SWIDTH 580 0
DWIDTH 29 0
BBX 24 41 3 -1
BITMAP
07FFC0
07FFC0
07FFC0
000000
000000
003800
007C00
007C00
007C00
007C00
001800
000000
000000
003800
03FF80
07FFE0
0FFFF0
1FEFF8
3F01FC
7E007C
7C007E
F8003E
F8003E
F8001F
F8001F
F0001F
F0001F
F0001F
F0001F
F8001F
F8001F
F8003E
F8003E
7C007E
7E007C
3F00FC
1FEFF8
0FFFF0
07FFE0
03FF80
003800
ENDCHAR
STARTCHAR 0232
ENCODING 562
SWIDTH 580 0
DWIDTH 29 0
BBX 30 43 0 0
BITMAP
00FFFC00
00FFFC00
00FFFC00
00000000
00000000
00000000
00000000
00000000
FC0000FC
7E0000F8
7E0001F0
3F0001F0
1F0003E0
1F8003E0
0F8007C0
0FC007C0
07C00F80
07E01F00
03E01F00
01F03E00
01F03E00
00F87C00
00FCF800
007CF800
003FF000
003FF000
001FE000
001FC000
000FC000
00078000
00078000
00078000
00078000
00078000
00078000
00078000
00078000
00078000
00078000
00078000
00078000
00078000
00078000
ENDCHAR
STARTCHAR 0233
ENCODING 563
SWIDTH 480 0
DWIDTH 24 0
BBX 24 45 0 -9
BITMAP
03FFF0
03FFF0
03FFF0
03FFF0
000000
000000
000000
000000
000000
000000
7C001F
7C001F
7C001E
3E003E
3E003E
3E003E
1F003C
1F007C
1F007C
0F8078
0F8078
0F80F8
07C0F0
07C0F0
03C1F0
03E1E0
03E1E0
01F3E0
01F3C0
00F3C0
00FFC0
007F80
007F80
003F80
003F00
001F00
001E00
001E00
003C00
007C00
00F800
7FF800
7FF000
FFE000
FF8000
ENDCHAR
STARTCHAR 0234
ENCODING 564
SWIDTH 400 0
DWIDTH 20 0
BBX 21 48 0 -9
BITMAP
00C000
07C000
07C000
07C000
07C000
07C000
07C000
07C000
07C000
07C000
07C000
07C000
07C000
07C000
07C000
07C000
07C000
07C000
07C000
07C000
07C000
07C000
07C000
07C000
07C000
07C000
07C000
07C000
07C000
07C000
07C000
07C000
07C000
07C000
07DF80
07FFC0
07FFE0
07FBF0
07E0F0
07C078
07C078
0FC078
1FC078
3FE0F0
7BF3F0
F9FFE0
F0FFC0
607F80
ENDCHAR
STARTCHAR 0235
ENCODING 565
SWIDTH 700 0
DWIDTH 35 0
BBX 32 36 4 -9
BITMAP
00B00000
7FFF0000
FFFF8000
FFFFE000
FFFFE000
F803F000
F801F000
F801F000
F800F800
F800F800
F800F800
F800F800
F800F800
F800F800
F800F800
F800F800
F800F800
F800F800
F800F800
F800F800
F800F800
F800F800
F800F9F0
F800FFFC
F800FFFE
F800FF7E
F800FC1F
0000F80F
0000F80F
0001F80F
0003F80F
0007FC0F
0007BF3E
000F3FFE
001E1FFC
000407F0
ENDCHAR
STARTCHAR 0236
ENCODING 566
SWIDTH 400 0
DWIDTH 20 0
BBX 21 43 0 -9
BITMAP
03C000
07C000
07C000
07C000
07C000
07C000
07C000
07C000
07FFE0
07FFE0
07FFE0
07FFE0
07C000
07C000
07C000
07C000
07C000
07C000
07C000
07C000
07C000
07C000
07C000
07C000
07C000
07C000
07C000
07C000
07C000
07DF80
07FFC0
07FFE0
07FBF0
07E0F0
07C078
07C078
0FC078
1FC078
3FE0F0
7BF3F0
F9FFE0
F0FFC0
607F80
ENDCHAR
STARTCHAR 0237
ENCODING 567
SWIDTH 240 0
DWIDTH 12 0
BBX 12 35 -3 -9
BITMAP
01F0
01F0
01F0
01F0
01F0
01F0
01F0
01F0
01F0
01F0
01F0
01F0
01F0
01F0
01F0
01F0
01F0
01F0
01F0
01F0
01F0
01F0
01F0
01F0
01F0
01F0
01F0
01F0
01E0
03E0
07E0
FFC0
FFC0
FF80
FE00
ENDCHAR
STARTCHAR 0238
ENCODING 568
SWIDTH 920 0
DWIDTH 46 0
BBX 41 40 3 -1
BITMAP
000004000000
00003C000000
00003C000000
00003C000000
00003C000000
00003C000000
00003C000000
00003C000000
00003C000000
00003C000000
00003C000000
00003C000000
00383C1C0000
03FFBCFFC000
0FFFFFFFF000
1FFFFFFFF800
3FFFFFFFFC00
3F00FF00FE00
7E003C003E00
7C003C003F00
F8003C001F00
F8003C001F00
F8003C001F00
F8003C000F80
F0003C000F80
F0003C000F80
F0003C000F80
F0003C000F80
F8003C000F80
F8003C001F00
F8003C001F00
FC003C001F00
7C003C003E00
7E003C007E00
3F803C00FC00
1FFFFFFFFC00
0FFFFFFFF800
07FFFFFFE000
01FFFFFF8000
001C001C0000
ENDCHAR
STARTCHAR 0239
ENCODING 569
SWIDTH 920 0
DWIDTH 46 0
BBX 41 36 3 -9
BITMAP
001800300000
01FFF7FF8000
07FFFFFFE000
0FFFFFFFF800
1FFFFFFFFC00
3F803C00FC00
7E003C007E00
7C003C003E00
FC003C001F00
F8003C001F00
F8003C001F00
F8003C000F80
F0003C000F80
F0003C000F80
F0003C000F80
F0003C000F80
F8003C000F80
F8003C001F00
F8003C001F00
F8003C001F00
7C003C003F00
7E003C003E00
3F00FF00FE00
3FFFFFFFFC00
1FFFFFFFF800
0FFFFFFFF000
03FFBCFFC000
00783C0C0000
00003C000000
00003C000000
00003C000000
00003C000000
00003C000000
00003C000000
00003C000000
00003C000000
ENDCHAR
STARTCHAR 023A
ENCODING 570
SWIDTH 660 0
DWIDTH 33 0
BBX 32 44 1 -5
BITMAP
00000180
000001E0
000001E0
000003C0
0007C3C0
0007C3C0
000FE780
000FE780
000FFF00
001FFF00
001EFF00
003EFE00
003C7E00
007C7E00
00783C00
00F83E00
00F87E00
00F07F00
01F07F00
01E0FF00
03E0FF80
03E0EF80
03C1E7C0
07C1E7C0
07C3C7C0
0F83C3E0
0FFFFFE0
0FFFFFE0
1FFFFFF0
1FFFFFF0
1E0F00F8
3E0F00F8
3E1E00F8
7C1E007C
7C1E007C
7C3C007C
F83C003E
F838003E
F878003F
00780000
00F00000
00F00000
00F00000
00600000
ENDCHAR
STARTCHAR 023B
ENCODING 571
SWIDTH 640 0
DWIDTH 32 0
BBX 27 44 3 -5
BITMAP
00000200
000003C0
000007C0
00000780
001FFF80
00FFFFC0
01FFFFE0
03FFFFE0
07F01FE0
0FC01EC0
1F803C00
3F003C00
3E007800
7E007800
7C00F800
7C00F000
FC00F000
F801E000
F801E000
F803E000
F803C000
F803C000
F8078000
F8078000
F80F0000
F80F0000
FC1F0000
7C1E0000
7C1E0000
7E3C0000
7E3C0000
3F7C0000
3FF80000
1FF80000
0FF001C0
07FFFFC0
03FFFFE0
01FFFFE0
03FFFF80
03C7F000
03C00000
07800000
07800000
01000000
ENDCHAR
STARTCHAR 023C
ENCODING 572
SWIDTH 460 0
DWIDTH 23 0
BBX 19 35 3 -4
BITMAP
000100
0001C0
0003C0
0003C0
003F80
01FFC0
07FFE0
0FFFE0
1FF7E0
3F0F00
7E0E00
7C0E00
F81E00
F81C00
F81C00
F83C00
F03800
F03800
F07800
F07000
F87000
F8F000
F8F000
F8E000
7DE000
7FE000
3FC020
3FFFE0
1FFFE0
07FFE0
03FFE0
079C00
070000
070000
070000
ENDCHAR
STARTCHAR 023D
ENCODING 573
SWIDTH 520 0
DWIDTH 26 0
BBX 25 35 1 0
BITMAP
0F800000
0F800000
0F800000
0F800000
0F800000
0F800000
0F800000
0F800000
0F800000
0F800000
0F800000
0F800000
0F800000
0F800000
0F800000
FFFF8000
FFFF8000
FFFF8000
FFFF8000
0F800000
0F800000
0F800000
0F800000
0F800000
0F800000
0F800000
0F800000
0F800000
0F800000
0F800000
0F800000
0FFFFF80
0FFFFF80
0FFFFF80
0FFFFF80
ENDCHAR
STARTCHAR 023E
ENCODING 574
SWIDTH 620 0
DWIDTH 31 0
BBX 30 40 1 -2
BITMAP
00000010
00000038
0000007C
FFFFFFF8
FFFFFFF8
FFFFFFF0
FFFFFFE0
001E03C0
001E07C0
001E0780
001E0F00
001E1F00
001E3E00
001E3C00
001E7C00
001EF800
001EF000
001FF000
001FE000
001FC000
001FC000
001F8000
001F0000
003F0000
003F0000
007F0000
00FF0000
00FF0000
01FF0000
03FF0000
03DF0000
079F0000
0F9F0000
1F1F0000
1E1F0000
3E1F0000
7C1F0000
781F0000
78000000
10000000
ENDCHAR
STARTCHAR 023F
ENCODING 575
SWIDTH 440 0
DWIDTH 22 0
BBX 18 36 2 -9
BITMAP
00F000
0FFF80
1FFF80
3FFF80
7F0F00
7C0000
F80000
F80000
F80000
7C0000
7E0000
7F8000
3FF000
1FFC00
07FF00
00FF80
003F80
000FC0
0007C0
0003C0
0003C0
0007C0
4007C0
783F80
FFFF80
FFFE00
7FF800
3E0000
1F0000
0F8000
07C000
07E000
03FF80
01FF80
00FF80
003F80
ENDCHAR
STARTCHAR 0240
ENCODING 576
SWIDTH 460 0
DWIDTH 23 0
BBX 21 35 2 -9
BITMAP
FFFFE0
FFFFE0
FFFFE0
FFFFE0
0007C0
000F80
001F80
003F00
003E00
007C00
00F800
01F800
01F000
03E000
07C000
07C000
0F8000
1F0000
1F0000
3E0000
7C0000
7C0000
FC0000
FF0000
FFC000
FFE000
0FF000
03F800
00FC00
007E00
003F80
001FF8
000FF8
0007F8
0001F8
ENDCHAR
STARTCHAR 0241
ENCODING 577
SWIDTH 460 0
DWIDTH 23 0
BBX 21 35 1 0
BITMAP
1FFF00
7FFFC0
FFFFE0
FFFFF0
7807F0
4001F8
0000F8
0000F8
0000F8
0000F8
0000F8
0001F8
0001F8
0007F0
000FE0
003FC0
007F80
00FE00
01FC00
03F000
03E000
07E000
07C000
07C000
07C000
07C000
07C000
07C000
07C000
07C000
07C000
07C000
07C000
07C000
07C000
ENDCHAR
STARTCHAR 0242
ENCODING 578
SWIDTH 400 0
DWIDTH 20 0
BBX 19 27 1 0
BITMAP
01C000
3FFE00
FFFF00
FFFF80
FE3FC0
6007C0
0003C0
0003E0
0003E0
0003C0
0007C0
001FC0
003F80
00FF00
01FC00
03F800
07E000
07C000
07C000
078000
0F8000
0F8000
0F8000
0F8000
0F8000
0F8000
0F8000
ENDCHAR
ENDFONT
